SplineFontDB: 3.2
FontName: Academicons
FullName: Academicons
FamilyName: Academicons
Weight: Book
Version: 1.9.4
ItalicAngle: 0
UnderlinePosition: -49
UnderlineWidth: 25
Ascent: 448
Descent: 64
InvalidEm: 0
sfntRevision: 0x0001e666
LayerCount: 2
Layer: 0 1 "Back" 1
Layer: 1 1 "Fore" 0
XUID: [1021 421 -158818336 3372]
StyleMap: 0x0040
FSType: 0
OS2Version: 4
OS2_WeightWidthSlopeOnly: 0
OS2_UseTypoMetrics: 1
CreationTime: 1594201369
ModificationTime: 1701417335
PfmFamily: 17
TTFWeight: 400
TTFWidth: 5
LineGap: 46
VLineGap: 0
Panose: 2 0 5 3 0 0 0 0 0 0
OS2TypoAscent: 448
OS2TypoAOffset: 0
OS2TypoDescent: -64
OS2TypoDOffset: 0
OS2TypoLinegap: 46
OS2WinAscent: 444
OS2WinAOffset: 0
OS2WinDescent: 64
OS2WinDOffset: 0
HheadAscent: 444
HheadAOffset: 0
HheadDescent: -64
HheadDOffset: 0
OS2SubXSize: 332
OS2SubYSize: 358
OS2SubXOff: 0
OS2SubYOff: 71
OS2SupXSize: 332
OS2SupYSize: 358
OS2SupXOff: 0
OS2SupYOff: 245
OS2StrikeYSize: 25
OS2StrikeYPos: 132
OS2Vendor: 'PfEd'
OS2CodePages: 00000001.00000000
OS2UnicodeRanges: 00000000.10000000.00000000.00000000
MarkAttachClasses: 1
DEI: 91125
ShortTable: cvt  2
  17
  324
EndShort
ShortTable: maxp 16
  1
  0
  148
  1125
  121
  0
  0
  2
  0
  1
  1
  0
  64
  46
  0
  0
EndShort

StartChar: .notdef
Encoding: 65536 -1 0
Width: 187
GlyphClass: 1
Flags: W
LayerCount: 2
Fore
SplineSet
17 0 m 1,0,-1
 17 341 l 1,1,-1
 153 341 l 1,2,-1
 153 0 l 1,3,-1
 17 0 l 1,0,-1
34 17 m 1,4,-1
 136 17 l 1,5,-1
 136 324 l 1,6,-1
 34 324 l 1,7,-1
 34 17 l 1,4,-1
EndSplineSet
EndChar

StartChar: academia
Encoding: 59823 59823 3
Width: 448
GlyphClass: 1
Flags: W
LayerCount: 2
Fore
SplineSet
244 21 m 1,0,1
 280 23 280 23 288 36 c 0,2,3
 291 48 291 48 283 70 c 0,4,5
 279 79 279 79 272 96.5 c 128,-1,6
 265 114 265 114 264 117 c 0,7,8
 241 118 241 118 194.5 118 c 128,-1,9
 148 118 148 118 125 118 c 1,10,11
 109 78 109 78 102 58 c 0,12,13
 93 40 93 40 103 31 c 0,14,15
 109 26 109 26 138 21 c 1,16,-1
 138 0 l 1,17,-1
 24 0 l 1,18,19
 24 0 24 0 24 20 c 1,20,21
 50 27 50 27 54 39 c 0,22,23
 134 241 134 241 172 342 c 1,24,25
 169 349 169 349 163.5 363 c 128,-1,26
 158 377 158 377 155 384 c 1,27,-1
 254 384 l 1,28,29
 281 317 281 317 331.5 192.5 c 128,-1,30
 382 68 382 68 393 40 c 0,31,32
 397 25 397 25 424 21 c 1,33,-1
 424 0 l 1,34,35
 424 0 424 0 244 0 c 1,36,37
 244 0 244 0 244 21 c 1,0,1
139 154 m 1,38,39
 139 154 139 154 194 154 c 2,40,41
 194 154 194 154 249 154 c 1,42,43
 239 177 239 177 220.5 225 c 128,-1,44
 202 273 202 273 193 296 c 1,45,46
 184 272 184 272 166 225 c 128,-1,47
 148 178 148 178 139 154 c 1,38,39
EndSplineSet
EndChar

StartChar: academia-square
Encoding: 59709 59709 4
Width: 448
GlyphClass: 1
Flags: W
LayerCount: 2
Fore
SplineSet
48 416 m 2,0,-1
 400 416 l 2,1,2
 420 416 420 416 434 402 c 128,-1,3
 448 388 448 388 448 368 c 2,4,-1
 448 16 l 2,5,6
 448 -4 448 -4 434 -18 c 128,-1,7
 420 -32 420 -32 400 -32 c 2,8,-1
 48 -32 l 2,9,10
 28 -32 28 -32 14 -18 c 128,-1,11
 0 -4 0 -4 0 16 c 2,12,-1
 0 368 l 2,13,14
 0 388 0 388 14 402 c 128,-1,15
 28 416 28 416 48 416 c 2,0,-1
208 352 m 0,16,17
 194 352 194 352 166 352 c 1,18,19
 169 347 169 347 173.5 335 c 128,-1,20
 178 323 178 323 181 317 c 1,21,22
 150 236 150 236 83 64 c 0,23,24
 79 54 79 54 57 49 c 0,25,26
 57 46 57 46 57 40.5 c 128,-1,27
 57 35 57 35 57 32 c 1,28,29
 63 32 63 32 104.5 32 c 128,-1,30
 146 32 146 32 153 32 c 1,31,32
 153 35 153 35 153 40.5 c 128,-1,33
 153 46 153 46 153 49 c 0,34,35
 128 53 128 53 123 58 c 0,36,37
 116 64 116 64 122 81 c 0,38,39
 138 123 138 123 141 130 c 1,40,41
 162 130 162 130 199.5 130 c 128,-1,42
 237 130 237 130 257 130 c 1,43,44
 263 116 263 116 273 90 c 0,45,46
 280 72 280 72 277 62 c 0,47,48
 275 59 275 59 272.5 56.5 c 128,-1,49
 270 54 270 54 267.5 53 c 128,-1,50
 265 52 265 52 260.5 51 c 128,-1,51
 256 50 256 50 254.5 50 c 128,-1,52
 253 50 253 50 247.5 49.5 c 128,-1,53
 242 49 242 49 241 49 c 1,54,55
 241 46 241 46 241 40.5 c 128,-1,56
 241 35 241 35 241 32 c 1,57,58
 269 32 269 32 316 32 c 128,-1,59
 363 32 363 32 391 32 c 1,60,61
 391 35 391 35 391 40.5 c 128,-1,62
 391 46 391 46 391 49 c 0,63,64
 369 54 369 54 365 65 c 0,65,66
 352 97 352 97 328.5 155 c 128,-1,67
 305 213 305 213 285.5 261 c 128,-1,68
 266 309 266 309 249 352 c 1,69,70
 231 352 231 352 208 352 c 0,16,17
198 278 m 1,71,72
 203 265 203 265 209.5 249 c 128,-1,73
 216 233 216 233 221.5 220 c 128,-1,74
 227 207 227 207 233.5 190 c 128,-1,75
 240 173 240 173 245 161 c 1,76,77
 222 161 222 161 199 161 c 128,-1,78
 176 161 176 161 153 161 c 1,79,80
 159 176 159 176 167.5 198 c 128,-1,81
 176 220 176 220 184 240.5 c 128,-1,82
 192 261 192 261 198 278 c 1,71,72
EndSplineSet
EndChar

StartChar: acclaim
Encoding: 59694 59694 5
Width: 384
GlyphClass: 1
Flags: W
LayerCount: 2
Fore
SplineSet
192 384 m 1,0,1
 205 375 205 375 278 305.5 c 128,-1,2
 351 236 351 236 357 227 c 1,3,-1
 357 154 l 1,4,5
 351 154 351 154 275.5 227.5 c 128,-1,6
 200 301 200 301 192 305 c 1,7,8
 184 301 184 301 108.5 227.5 c 128,-1,9
 33 154 33 154 27 154 c 1,10,-1
 27 227 l 1,11,12
 33 236 33 236 106 305.5 c 128,-1,13
 179 375 179 375 192 384 c 1,0,1
192 230 m 1,14,15
 200 224 200 224 239 188 c 128,-1,16
 278 152 278 152 315.5 115 c 128,-1,17
 353 78 353 78 357 72 c 1,18,-1
 357 0 l 1,19,20
 351 0 351 0 275.5 73.5 c 128,-1,21
 200 147 200 147 192 150 c 1,22,23
 184 147 184 147 108.5 73.5 c 128,-1,24
 33 0 33 0 27 0 c 1,25,-1
 27 72 l 1,26,27
 33 81 33 81 106 151 c 128,-1,28
 179 221 179 221 192 230 c 1,14,15
EndSplineSet
EndChar

StartChar: acclaim-square
Encoding: 59706 59706 6
Width: 448
GlyphClass: 1
Flags: W
LayerCount: 2
Fore
SplineSet
48 416 m 2,0,-1
 400 416 l 2,1,2
 420 416 420 416 434 402 c 128,-1,3
 448 388 448 388 448 368 c 2,4,-1
 448 16 l 2,5,6
 448 -4 448 -4 434 -18 c 128,-1,7
 420 -32 420 -32 400 -32 c 2,8,-1
 48 -32 l 2,9,10
 28 -32 28 -32 14 -18 c 128,-1,11
 0 -4 0 -4 0 16 c 2,12,-1
 0 368 l 2,13,14
 0 388 0 388 14 402 c 128,-1,15
 28 416 28 416 48 416 c 2,0,-1
224 352 m 1,16,17
 213 345 213 345 152 287 c 128,-1,18
 91 229 91 229 87 221 c 1,19,-1
 87 161 l 1,20,21
 91 161 91 161 154 222 c 128,-1,22
 217 283 217 283 224 286 c 1,23,24
 231 283 231 283 294 222 c 128,-1,25
 357 161 357 161 361 161 c 1,26,-1
 361 221 l 1,27,28
 357 229 357 229 296 287 c 128,-1,29
 235 345 235 345 224 352 c 1,16,17
224 223 m 1,30,31
 213 216 213 216 152 158 c 128,-1,32
 91 100 91 100 87 92 c 1,33,-1
 87 32 l 1,34,35
 91 32 91 32 154 93.5 c 128,-1,36
 217 155 217 155 224 157 c 0,37,38
 231 155 231 155 294 93.5 c 128,-1,39
 357 32 357 32 361 32 c 1,40,-1
 361 92 l 1,41,42
 357 100 357 100 296 158 c 128,-1,43
 235 216 235 216 224 223 c 1,30,31
EndSplineSet
EndChar

StartChar: acm
Encoding: 59708 59708 7
Width: 512
GlyphClass: 1
Flags: W
LayerCount: 2
Fore
SplineSet
256 440 m 1,0,-1
 504 192 l 1,1,-1
 256 -56 l 1,2,-1
 8 192 l 1,3,-1
 256 440 l 1,0,-1
256 41 m 128,-1,5
 319 41 319 41 363.5 85.5 c 128,-1,6
 408 130 408 130 408 193 c 128,-1,7
 408 256 408 256 363.5 300.5 c 128,-1,8
 319 345 319 345 256 345 c 128,-1,9
 193 345 193 345 148.5 300.5 c 128,-1,10
 104 256 104 256 104 193 c 128,-1,11
 104 130 104 130 148.5 85.5 c 128,-1,4
 193 41 193 41 256 41 c 128,-1,5
161.5 188 m 128,-1,13
 164 189 164 189 168 189 c 0,14,15
 171 189 171 189 176 190 c 1,16,-1
 176 176 l 2,17,18
 174 174 174 174 171 173 c 0,19,20
 169 172 169 172 166 172 c 0,21,22
 161 172 161 172 158.5 173.5 c 128,-1,23
 156 175 156 175 156 180 c 0,24,25
 156 183 156 183 158 185 c 0,26,12
 159 187 159 187 161.5 188 c 128,-1,13
256 329 m 128,-1,28
 313 329 313 329 353 289 c 128,-1,29
 393 249 393 249 393 192.5 c 128,-1,30
 393 136 393 136 353 96 c 128,-1,31
 313 56 313 56 256 56 c 128,-1,32
 199 56 199 56 159 96 c 128,-1,33
 119 136 119 136 119 192.5 c 128,-1,34
 119 249 119 249 159 289 c 128,-1,27
 199 329 199 329 256 329 c 128,-1,28
197 159 m 1,35,-1
 197 204 l 2,36,37
 197 216 197 216 189 221.5 c 128,-1,38
 181 227 181 227 164 227 c 0,39,40
 157 227 157 227 151 226 c 0,41,42
 143 224 143 224 141 223 c 2,43,-1
 141 208 l 1,44,-1
 142 208 l 2,45,46
 148 210 148 210 152 211 c 0,47,48
 157 212 157 212 160 212 c 0,49,50
 168 212 168 212 172.5 210 c 128,-1,51
 177 208 177 208 177 203 c 2,52,-1
 177 202 l 1,53,54
 170 202 170 202 160 201 c 0,55,56
 152 200 152 200 147 197 c 0,57,58
 141 194 141 194 138 189.5 c 128,-1,59
 135 185 135 185 135 178 c 0,60,61
 135 169 135 169 141 163 c 128,-1,62
 147 157 147 157 155 157 c 0,63,64
 160 157 160 157 163 158 c 0,65,66
 165 159 165 159 168 160.5 c 128,-1,67
 171 162 171 162 173 163 c 0,68,69
 174 164 174 164 176 166 c 1,70,-1
 176 159 l 1,71,-1
 197 159 l 1,35,-1
263 204 m 1,72,-1
 263 221 l 1,73,74
 258 224 258 224 252 225 c 0,75,76
 247 227 247 227 241 227 c 0,77,78
 234 227 234 227 227.5 225 c 128,-1,79
 221 223 221 223 216 219 c 128,-1,80
 211 215 211 215 208 208 c 128,-1,81
 205 201 205 201 205 192 c 256,82,83
 205 183 205 183 207.5 176.5 c 128,-1,84
 210 170 210 170 215 165.5 c 128,-1,85
 220 161 220 161 227 159 c 256,86,87
 234 157 234 157 242 157 c 0,88,89
 246 157 246 157 249 158 c 0,90,91
 253 159 253 159 255 159 c 0,92,93
 256 159 256 159 259 161 c 0,94,95
 260 161 260 161 261.5 161.5 c 128,-1,96
 263 162 263 162 263 162 c 1,97,-1
 263 180 l 1,98,-1
 261 180 l 2,99,100
 260 179 260 179 258 178 c 0,101,102
 257 176 257 176 255 175 c 0,103,104
 252 174 252 174 250 173 c 0,105,106
 246 172 246 172 243 172 c 0,107,108
 235 172 235 172 230.5 177 c 128,-1,109
 226 182 226 182 226 192 c 0,110,111
 226 201 226 201 230 206.5 c 128,-1,112
 234 212 234 212 242 212 c 0,113,114
 246 212 246 212 249 211 c 0,115,116
 253 210 253 210 254 209 c 0,117,118
 256 208 256 208 258 206 c 0,119,120
 260 205 260 205 261 204 c 2,121,-1
 263 204 l 1,72,-1
353 159 m 1,122,-1
 374 159 l 1,123,-1
 374 202 l 2,124,125
 374 209 374 209 372 213 c 0,126,127
 371 218 371 218 368 221 c 0,128,129
 366 224 366 224 362 225 c 0,130,131
 358 227 358 227 354 227 c 0,132,133
 348 227 348 227 343 224 c 128,-1,134
 338 221 338 221 332 215 c 1,135,136
 329 221 329 221 324.5 224 c 128,-1,137
 320 227 320 227 314 227 c 0,138,139
 309 227 309 227 304.5 224.5 c 128,-1,140
 300 222 300 222 295 218 c 1,141,-1
 295 225 l 1,142,-1
 274 225 l 1,143,-1
 274 159 l 1,144,-1
 295 159 l 1,145,-1
 295 206 l 2,146,147
 297 207 297 207 299.5 208.5 c 128,-1,148
 302 210 302 210 304 210 c 0,149,150
 308 210 308 210 309.5 209 c 128,-1,151
 311 208 311 208 312 206 c 256,152,153
 313 204 313 204 313 200 c 0,154,155
 314 197 314 197 314 192 c 2,156,-1
 314 159 l 1,157,-1
 334 159 l 1,158,-1
 334 206 l 2,159,160
 337 208 337 208 339 209 c 256,161,162
 341 210 341 210 344 210 c 256,163,164
 347 210 347 210 349 209 c 256,165,166
 351 208 351 208 352 206 c 128,-1,167
 353 204 353 204 353 200 c 0,168,169
 353 197 353 197 353 192 c 2,170,-1
 353 159 l 1,122,-1
EndSplineSet
EndChar

StartChar: acm-square
Encoding: 59741 59741 8
Width: 448
GlyphClass: 1
Flags: W
LayerCount: 2
Fore
SplineSet
48 416 m 2,0,-1
 400 416 l 2,1,2
 420 416 420 416 434 402 c 128,-1,3
 448 388 448 388 448 368 c 2,4,-1
 448 16 l 2,5,6
 448 -4 448 -4 434 -18 c 128,-1,7
 420 -32 420 -32 400 -32 c 2,8,-1
 48 -32 l 2,9,10
 28 -32 28 -32 14 -18 c 128,-1,11
 0 -4 0 -4 0 16 c 2,12,-1
 0 368 l 2,13,14
 0 388 0 388 14 402 c 128,-1,15
 28 416 28 416 48 416 c 2,0,-1
224 352 m 1,16,-1
 64 192 l 1,17,-1
 224 32 l 1,18,-1
 384 192 l 1,19,-1
 224 352 l 1,16,-1
224 290 m 0,20,21
 251 290 251 290 273.5 277 c 128,-1,22
 296 264 296 264 309 241.5 c 128,-1,23
 322 219 322 219 322 192.5 c 128,-1,24
 322 166 322 166 309 143.5 c 128,-1,25
 296 121 296 121 273.5 107.5 c 128,-1,26
 251 94 251 94 224 94 c 0,27,28
 183 94 183 94 154.5 123 c 128,-1,29
 126 152 126 152 126 192.5 c 128,-1,30
 126 233 126 233 154.5 261.5 c 128,-1,31
 183 290 183 290 224 290 c 0,20,21
224 281 m 128,-1,33
 188 281 188 281 162 255 c 128,-1,34
 136 229 136 229 136 192.5 c 128,-1,35
 136 156 136 156 162 130 c 128,-1,36
 188 104 188 104 224 104 c 128,-1,37
 260 104 260 104 286 130 c 128,-1,38
 312 156 312 156 312 192.5 c 128,-1,39
 312 229 312 229 286 255 c 128,-1,32
 260 281 260 281 224 281 c 128,-1,33
165 214 m 0,40,41
 176 214 176 214 181 210.5 c 128,-1,42
 186 207 186 207 186 200 c 2,43,-1
 186 171 l 1,44,-1
 173 171 l 1,45,-1
 173 175 l 1,46,47
 171 174 171 174 170 173 c 256,48,49
 169 172 169 172 167 171 c 128,-1,50
 165 170 165 170 163.5 170 c 128,-1,51
 162 170 162 170 159 170 c 0,52,53
 154 170 154 170 150 173.5 c 128,-1,54
 146 177 146 177 146 183 c 0,55,56
 146 188 146 188 148 191 c 128,-1,57
 150 194 150 194 153.5 195.5 c 128,-1,58
 157 197 157 197 162 198 c 0,59,60
 169 198 169 198 173 199 c 0,61,62
 173 202 173 202 170.5 203.5 c 128,-1,63
 168 205 168 205 162 205 c 0,64,65
 160 205 160 205 157 204 c 0,66,67
 154 204 154 204 151 202 c 2,68,-1
 150 202 l 1,69,-1
 150 212 l 2,70,71
 151 213 151 213 156 214 c 0,72,73
 160 214 160 214 165 214 c 0,40,41
262 214 m 0,74,75
 265 214 265 214 268 212.5 c 128,-1,76
 271 211 271 211 273 207 c 1,77,78
 277 211 277 211 280.5 212.5 c 128,-1,79
 284 214 284 214 287 214 c 256,80,81
 290 214 290 214 292.5 213 c 128,-1,82
 295 212 295 212 296 211 c 0,83,84
 298 209 298 209 299 206 c 128,-1,85
 300 203 300 203 300 198 c 2,86,-1
 300 171 l 1,87,-1
 287 171 l 1,88,-1
 287 192 l 2,89,90
 287 195 287 195 286 197 c 0,91,92
 286 199 286 199 285.5 200.5 c 128,-1,93
 285 202 285 202 284 202.5 c 128,-1,94
 283 203 283 203 281 203 c 256,95,96
 279 203 279 203 277.5 202.5 c 128,-1,97
 276 202 276 202 274 201 c 2,98,-1
 274 171 l 1,99,-1
 261 171 l 1,100,-1
 261 192 l 2,101,102
 261 195 261 195 261 197 c 0,103,104
 261 200 261 200 260 201 c 0,105,106
 260 202 260 202 258.5 202.5 c 128,-1,107
 257 203 257 203 255 203 c 0,108,109
 254 203 254 203 252 202.5 c 128,-1,110
 250 202 250 202 249 201 c 2,111,-1
 249 171 l 1,112,-1
 236 171 l 1,113,-1
 236 213 l 1,114,-1
 249 213 l 1,115,-1
 249 209 l 1,116,117
 252 211 252 211 255 212.5 c 128,-1,118
 258 214 258 214 262 214 c 0,74,75
215 214 m 0,119,120
 218 214 218 214 221.5 213.5 c 128,-1,121
 225 213 225 213 229 211 c 1,122,-1
 229 200 l 1,123,-1
 227 200 l 2,124,125
 226 200 226 200 225 201 c 128,-1,126
 224 202 224 202 223 203 c 0,127,128
 222 203 222 203 219 204 c 0,129,130
 217 205 217 205 215 205 c 0,131,132
 210 205 210 205 207.5 201.5 c 128,-1,133
 205 198 205 198 205 192 c 0,134,135
 205 185 205 185 208 182 c 128,-1,136
 211 179 211 179 215 179 c 0,137,138
 218 179 218 179 220 180 c 0,139,140
 222 180 222 180 223.5 181 c 128,-1,141
 225 182 225 182 225 183 c 0,142,143
 227 184 227 184 227 184 c 1,144,-1
 229 184 l 1,145,-1
 229 173 l 1,146,147
 228 173 228 173 227.5 172.5 c 128,-1,148
 227 172 227 172 226 172 c 0,149,150
 224 171 224 171 223 171 c 0,151,152
 222 170 222 170 219 170 c 0,153,154
 218 170 218 170 215 170 c 0,155,156
 210 170 210 170 205.5 171 c 128,-1,157
 201 172 201 172 198 175 c 128,-1,158
 195 178 195 178 193 182 c 128,-1,159
 191 186 191 186 191 192 c 256,160,161
 191 198 191 198 193 202.5 c 128,-1,162
 195 207 195 207 198 209.5 c 128,-1,163
 201 212 201 212 205.5 213 c 128,-1,164
 210 214 210 214 215 214 c 0,119,120
173 191 m 1,165,166
 169 190 169 190 167 190 c 128,-1,167
 165 190 165 190 163 189.5 c 128,-1,168
 161 189 161 189 160.5 187.5 c 128,-1,169
 160 186 160 186 160 184 c 0,170,171
 160 181 160 181 161.5 180 c 128,-1,172
 163 179 163 179 166 179 c 0,173,174
 168 179 168 179 169.5 179.5 c 128,-1,175
 171 180 171 180 173 182 c 2,176,-1
 173 191 l 1,165,166
EndSplineSet
EndChar

StartChar: acmdl
Encoding: 59754 59754 9
Width: 512
GlyphClass: 1
Flags: W
LayerCount: 2
Fore
SplineSet
220 240 m 0,0,1
 229 233 229 233 228 221 c 0,2,3
 228 209 228 209 228 191.5 c 128,-1,4
 228 174 228 174 228 163 c 0,5,6
 228 160 228 160 225 156 c 0,7,8
 219 146 219 146 205 147 c 0,9,10
 202 147 202 147 170 147 c 1,11,-1
 170 243 l 1,12,-1
 174 243 l 2,13,14
 207 243 207 243 212 243 c 0,15,16
 216 243 216 243 220 240 c 0,0,1
500 189 m 1,17,18
 455 144 455 144 454 143 c 0,19,20
 451 140 451 140 452 135 c 0,21,22
 455 123 455 123 470 68 c 0,23,24
 468 67 468 67 468 67 c 1,25,26
 415 53 415 53 401 49 c 0,27,28
 398 48 398 48 398 45 c 0,29,30
 394 32 394 32 387 5 c 0,31,32
 386 2 386 2 379 -23 c 1,33,34
 376 -22 376 -22 375 -22 c 0,35,36
 325 -9 325 -9 311 -5 c 0,37,38
 308 -4 308 -4 305 -6 c 0,39,40
 300 -12 300 -12 290 -22 c 128,-1,41
 280 -32 280 -32 275 -37 c 0,42,43
 274 -38 274 -38 256 -56 c 1,44,-1
 255 -56 l 1,45,46
 217 -18 217 -18 205 -6 c 0,47,48
 203 -4 203 -4 200 -5 c 0,49,50
 183 -9 183 -9 131 -23 c 1,51,52
 123 6 123 6 122 10 c 0,53,54
 116 35 116 35 113 45 c 0,55,56
 112 48 112 48 109 49 c 0,57,58
 96 53 96 53 74 59 c 128,-1,59
 52 65 52 65 44 66 c 0,60,61
 40 68 40 68 41 72 c 0,62,63
 44 82 44 82 49.5 103.5 c 128,-1,64
 55 125 55 125 58 136 c 0,65,66
 59 139 59 139 57 142 c 0,67,68
 53 146 53 146 36 163 c 128,-1,69
 19 180 19 180 10 189 c 0,70,71
 7 192 7 192 10 195 c 0,72,73
 17 202 17 202 25 210 c 128,-1,74
 33 218 33 218 42.5 227.5 c 128,-1,75
 52 237 52 237 57 242 c 0,76,77
 59 245 59 245 59 248 c 0,78,79
 56 258 56 258 50.5 279.5 c 128,-1,80
 45 301 45 301 41 312 c 0,81,82
 40 316 40 316 45 318 c 0,83,84
 56 320 56 320 77 326 c 128,-1,85
 98 332 98 332 107 334 c 0,86,87
 112 335 112 335 113 340 c 0,88,89
 117 353 117 353 131 406 c 1,90,91
 131 406 131 406 131 407 c 1,92,93
 171 397 171 397 175 396 c 0,94,95
 178 395 178 395 187 392.5 c 128,-1,96
 196 390 196 390 201 389 c 0,97,98
 203 388 203 388 204 390 c 0,99,100
 217 402 217 402 255 440 c 1,101,-1
 256 440 l 1,102,103
 293 403 293 403 307 389 c 0,104,105
 308 388 308 388 310 389 c 0,106,107
 317 390 317 390 324 392 c 128,-1,108
 331 394 331 394 340 396.5 c 128,-1,109
 349 399 349 399 354 400 c 0,110,111
 356 401 356 401 379 407 c 0,112,113
 380 404 380 404 380 404 c 2,114,115
 393 357 393 357 398 339 c 0,116,117
 399 335 399 335 402 335 c 0,118,119
 406 334 406 334 432 327 c 0,120,121
 444 323 444 323 470 316 c 0,122,123
 470 315 470 315 470 315 c 1,124,125
 456 261 456 261 452 247 c 0,126,127
 451 245 451 245 453 243 c 0,128,129
 457 238 457 238 472 224 c 0,130,131
 477 218 477 218 504 192 c 1,132,133
 500 189 500 189 500 189 c 1,17,18
249 145 m 0,134,135
 254 150 254 150 254 156 c 0,136,137
 254 219 254 219 254 234 c 0,138,139
 254 241 254 241 249 245 c 0,140,141
 242 252 242 252 231 263 c 0,142,143
 227 267 227 267 220 267 c 0,144,145
 207 267 207 267 148 267 c 2,146,-1
 144 267 l 1,147,-1
 144 124 l 2,148,149
 146 123 146 123 146 123 c 1,150,151
 205 123 205 123 223 123 c 0,152,153
 227 123 227 123 230 126 c 0,154,155
 237 133 237 133 249 145 c 0,134,135
393 123 m 1,156,-1
 393 148 l 1,157,-1
 322 148 l 1,158,-1
 322 267 l 1,159,-1
 296 267 l 1,160,-1
 296 123 l 1,161,-1
 393 123 l 1,156,-1
EndSplineSet
EndChar

StartChar: acmdl-square
Encoding: 59859 59859 10
Width: 448
GlyphClass: 1
Flags: W
LayerCount: 2
Fore
SplineSet
48 416 m 2,0,-1
 400 416 l 2,1,2
 420 416 420 416 434 402 c 128,-1,3
 448 388 448 388 448 368 c 2,4,-1
 448 16 l 2,5,6
 448 -4 448 -4 434 -18 c 128,-1,7
 420 -32 420 -32 400 -32 c 2,8,-1
 48 -32 l 2,9,10
 28 -32 28 -32 14 -18 c 128,-1,11
 0 -4 0 -4 0 16 c 2,12,-1
 0 368 l 2,13,14
 0 388 0 388 14 402 c 128,-1,15
 28 416 28 416 48 416 c 2,0,-1
223 352 m 1,16,17
 199 328 199 328 191 319 c 0,18,19
 190 319 190 319 188 319 c 0,20,21
 185 320 185 320 179.5 321.5 c 128,-1,22
 174 323 174 323 172 323 c 0,23,24
 168 324 168 324 144 331 c 0,25,26
 143 330 143 330 143 330 c 1,27,28
 134 296 134 296 132 288 c 0,29,30
 131 285 131 285 128 284 c 0,31,32
 122 282 122 282 108.5 278.5 c 128,-1,33
 95 275 95 275 88 273 c 0,34,35
 85 272 85 272 86 269 c 0,36,37
 87 264 87 264 89 256.5 c 128,-1,38
 91 249 91 249 93 241.5 c 128,-1,39
 95 234 95 234 97 228 c 0,40,41
 97 226 97 226 96 224 c 0,42,43
 93 222 93 222 89.5 218.5 c 128,-1,44
 86 215 86 215 83.5 212 c 128,-1,45
 81 209 81 209 77.5 206 c 128,-1,46
 74 203 74 203 71 200 c 128,-1,47
 68 197 68 197 65 194 c 0,48,49
 63 192 63 192 65 190 c 0,50,51
 70 185 70 185 75 180 c 128,-1,52
 80 175 80 175 86 169 c 128,-1,53
 92 163 92 163 96 160 c 0,54,55
 97 158 97 158 97 156 c 0,56,57
 95 149 95 149 91 135 c 128,-1,58
 87 121 87 121 86 114 c 0,59,60
 85 112 85 112 88 111 c 0,61,62
 92 110 92 110 106.5 106 c 128,-1,63
 121 102 121 102 129 100 c 0,64,65
 131 99 131 99 132 97 c 0,66,67
 133 91 133 91 138 74 c 0,68,69
 139 70 139 70 143 53 c 1,70,71
 177 62 177 62 188 65 c 0,72,73
 190 65 190 65 191 64 c 0,74,75
 199 57 199 57 223 32 c 1,76,-1
 224 32 l 1,77,78
 235 43 235 43 236 44 c 0,79,80
 239 47 239 47 245.5 54 c 128,-1,81
 252 61 252 61 256 64 c 0,82,83
 257 66 257 66 259 65 c 0,84,85
 269 62 269 62 301 54 c 2,86,87
 301 54 301 54 304 53 c 1,88,89
 308 70 308 70 308 71 c 0,90,91
 313 89 313 89 315 97 c 0,92,93
 316 99 316 99 318 100 c 0,94,95
 327 102 327 102 361 112 c 1,96,97
 361 112 361 112 362 112 c 1,98,99
 353 148 353 148 351 155 c 0,100,101
 350 158 350 158 352 160 c 0,102,103
 352 161 352 161 381 190 c 0,104,105
 382 190 382 190 384 192 c 1,106,107
 367 209 367 209 363 212 c 0,108,109
 354 222 354 222 351 225 c 0,110,111
 350 226 350 226 350 228 c 0,112,113
 353 237 353 237 362 271 c 1,114,115
 362 271 362 271 362 272 c 0,116,117
 341 278 341 278 338 279 c 0,118,119
 321 283 321 283 318 284 c 0,120,121
 316 285 316 285 315 287 c 0,122,123
 312 298 312 298 304 329 c 1,124,125
 304 329 304 329 303 331 c 0,126,127
 288 327 288 327 287 326 c 0,128,129
 284 326 284 326 278.5 324.5 c 128,-1,130
 273 323 273 323 268 321.5 c 128,-1,131
 263 320 263 320 259 319 c 0,132,133
 257 319 257 319 257 319 c 1,134,135
 248 328 248 328 224 352 c 1,136,-1
 223 352 l 1,16,17
201 241 m 0,137,138
 205 241 205 241 208 238 c 0,139,140
 215 231 215 231 219 226 c 0,141,142
 223 223 223 223 223 219 c 0,143,144
 223 209 223 209 223 169 c 0,145,146
 223 165 223 165 219 161 c 0,147,148
 212 154 212 154 207 150 c 0,149,150
 205 148 205 148 202 148 c 0,151,152
 191 148 191 148 153 148 c 2,153,154
 153 148 153 148 152 148 c 1,155,-1
 152 241 l 1,156,-1
 155 241 l 2,157,158
 195 241 195 241 201 241 c 0,137,138
250 241 m 1,159,-1
 267 241 l 1,160,-1
 267 163 l 1,161,-1
 312 163 l 1,162,-1
 312 148 l 1,163,-1
 250 148 l 1,164,-1
 250 241 l 1,159,-1
196 225 m 0,165,166
 193 225 193 225 171 225 c 2,167,-1
 168 225 l 1,168,-1
 168 163 l 1,169,170
 189 163 189 163 191 163 c 0,171,172
 200 163 200 163 204 169 c 0,173,174
 206 171 206 171 206 173 c 0,175,176
 206 177 206 177 206 191.5 c 128,-1,177
 206 206 206 206 206 210 c 0,178,179
 206 219 206 219 201 223 c 0,180,181
 198 225 198 225 196 225 c 0,165,166
EndSplineSet
EndChar

StartChar: ads
Encoding: 59851 59851 11
Width: 512
GlyphClass: 1
Flags: W
LayerCount: 2
Fore
SplineSet
456 285 m 0,0,1
 497 220 497 220 479.5 144.5 c 128,-1,2
 462 69 462 69 397 28 c 0,3,4
 344 -3 344 -3 285.5 0.5 c 128,-1,5
 227 4 227 4 181 41 c 1,6,-1
 190 46 l 1,7,8
 234 13 234 13 288.5 10 c 128,-1,9
 343 7 343 7 391 37 c 0,10,11
 453 75 453 75 469.5 146.5 c 128,-1,12
 486 218 486 218 448 280 c 0,13,14
 421 322 421 322 380.5 344 c 128,-1,15
 340 366 340 366 293 363 c 1,16,-1
 262 357 l 1,17,18
 261 362 261 362 260 366 c 1,19,20
 319 381 319 381 370 361 c 128,-1,21
 421 341 421 341 456 285 c 0,0,1
116 146 m 1,22,23
 101 215 101 215 135 277 c 1,24,-1
 143 270 l 1,25,26
 112 215 112 215 125 152 c 1,27,-1
 116 146 l 1,22,23
349.5 134.5 m 128,-1,29
 351 132 351 132 354 131 c 2,30,-1
 354 126 l 1,31,-1
 320 126 l 1,32,33
 318 130 318 130 317.5 133 c 128,-1,34
 317 136 317 136 317 140 c 1,35,36
 310 133 310 133 302 128 c 0,37,38
 291 122 291 122 278 122 c 0,39,40
 262 122 262 122 251 131.5 c 128,-1,41
 240 141 240 141 240 158 c 0,42,43
 240 181 240 181 257 191 c 0,44,45
 267 196 267 196 285 199 c 2,46,-1
 296 200 l 2,47,48
 305 201 305 201 309 203 c 0,49,50
 316 206 316 206 316 212 c 0,51,52
 316 219 316 219 310.5 222 c 128,-1,53
 305 225 305 225 295 225 c 0,54,55
 284 225 284 225 279 219 c 0,56,57
 276 215 276 215 275 208 c 1,58,-1
 244 208 l 1,59,60
 245 224 245 224 253 234 c 0,61,62
 265 250 265 250 296 250 c 0,63,64
 316 250 316 250 331.5 242.5 c 128,-1,65
 347 235 347 235 347 213 c 2,66,-1
 347 157 l 2,67,68
 347 151 347 151 348 143 c 0,69,28
 348 137 348 137 349.5 134.5 c 128,-1,29
316 173 m 2,70,-1
 316 185 l 1,71,72
 313 183 313 183 310 182 c 128,-1,73
 307 181 307 181 301 180 c 2,74,-1
 294 178 l 2,75,76
 284 177 284 177 279 174 c 0,77,78
 272 170 272 170 272 161 c 256,79,80
 272 152 272 152 276.5 148.5 c 128,-1,81
 281 145 281 145 287 145 c 0,82,83
 298 145 298 145 306.5 151 c 128,-1,84
 315 157 315 157 316 173 c 2,70,-1
226 338 m 0,85,86
 226 319 226 319 212.5 306 c 128,-1,87
 199 293 199 293 180 293 c 128,-1,88
 161 293 161 293 147.5 306 c 128,-1,89
 134 319 134 319 134 338 c 128,-1,90
 134 357 134 357 147.5 370.5 c 128,-1,91
 161 384 161 384 180 384 c 0,92,93
 192 384 192 384 202.5 378 c 128,-1,94
 213 372 213 372 219.5 361.5 c 128,-1,95
 226 351 226 351 226 338 c 0,85,86
317 321 m 0,96,97
 373 313 373 313 406.5 267 c 128,-1,98
 440 221 440 221 431 165 c 128,-1,99
 422 109 422 109 376.5 76 c 128,-1,100
 331 43 331 43 275 51.5 c 128,-1,101
 219 60 219 60 185 106 c 1,102,-1
 163 92 l 1,103,104
 164 78 164 78 152 70 c 2,105,-1
 65 13 l 2,106,107
 57 8 57 8 47 10 c 128,-1,108
 37 12 37 12 31.5 20.5 c 128,-1,109
 26 29 26 29 28 38.5 c 128,-1,110
 30 48 30 48 39 54 c 2,111,-1
 126 111 l 2,112,113
 138 118 138 118 150 112 c 1,114,-1
 173 126 l 1,115,116
 154 165 154 165 161 208 c 0,117,118
 165 234 165 234 179 257 c 1,119,120
 203 257 203 257 223 269 c 0,121,122
 251 287 251 287 259 318 c 1,123,124
 288 326 288 326 317 321 c 0,96,97
393 169 m 0,125,126
 397 195 397 195 387.5 219.5 c 128,-1,127
 378 244 378 244 358 260.5 c 128,-1,128
 338 277 338 277 311 281 c 0,129,130
 271 288 271 288 238.5 264 c 128,-1,131
 206 240 206 240 199.5 200 c 128,-1,132
 193 160 193 160 217 127 c 128,-1,133
 241 94 241 94 281 88 c 0,134,135
 300 85 300 85 319.5 89.5 c 128,-1,136
 339 94 339 94 354 105 c 128,-1,137
 369 116 369 116 379.5 132.5 c 128,-1,138
 390 149 390 149 393 169 c 0,125,126
EndSplineSet
EndChar

StartChar: ads-square
Encoding: 59722 59722 12
Width: 448
GlyphClass: 1
Flags: W
LayerCount: 2
Fore
SplineSet
48 416 m 2,0,-1
 400 416 l 2,1,2
 420 416 420 416 434 402 c 128,-1,3
 448 388 448 388 448 368 c 2,4,-1
 448 16 l 2,5,6
 448 -4 448 -4 434 -18 c 128,-1,7
 420 -32 420 -32 400 -32 c 2,8,-1
 48 -32 l 2,9,10
 28 -32 28 -32 14 -18 c 128,-1,11
 0 -4 0 -4 0 16 c 2,12,-1
 0 368 l 2,13,14
 0 388 0 388 14 402 c 128,-1,15
 28 416 28 416 48 416 c 2,0,-1
160.5 352 m 128,-1,17
 145 352 145 352 133.5 341 c 128,-1,18
 122 330 122 330 122 314 c 128,-1,19
 122 298 122 298 133.5 287 c 128,-1,20
 145 276 145 276 160.5 276 c 128,-1,21
 176 276 176 276 187.5 287 c 128,-1,22
 199 298 199 298 199 314 c 128,-1,23
 199 330 199 330 187.5 341 c 128,-1,16
 176 352 176 352 160.5 352 c 128,-1,17
268 342 m 0,24,25
 248 342 248 342 227 337 c 1,26,-1
 229 330 l 1,27,28
 241 334 241 334 255 335 c 0,29,30
 294 337 294 337 328 319 c 128,-1,31
 362 301 362 301 384 265 c 0,32,33
 416 214 416 214 402.5 154.5 c 128,-1,34
 389 95 389 95 337 63 c 0,35,36
 296 38 296 38 250.5 40.5 c 128,-1,37
 205 43 205 43 169 71 c 1,38,-1
 162 66 l 1,39,40
 200 36 200 36 249 32.5 c 128,-1,41
 298 29 298 29 341 56 c 0,42,43
 396 90 396 90 410.5 152.5 c 128,-1,44
 425 215 425 215 391 270 c 0,45,46
 345 343 345 343 268 342 c 0,24,25
256 301 m 0,47,48
 241 301 241 301 226 297 c 1,49,50
 220 271 220 271 197 256 c 0,51,52
 180 246 180 246 160 246 c 1,53,54
 148 227 148 227 145 205 c 0,55,56
 139 169 139 169 155 137 c 1,57,-1
 136 125 l 1,58,59
 126 131 126 131 116 124 c 2,60,-1
 43 77 l 2,61,62
 36 72 36 72 34 64 c 128,-1,63
 32 56 32 56 36.5 49 c 128,-1,64
 41 42 41 42 49.5 40.5 c 128,-1,65
 58 39 58 39 65 43 c 2,66,-1
 138 90 l 2,67,68
 148 97 148 97 147 109 c 1,69,-1
 165 120 l 1,70,71
 193 82 193 82 239.5 74.5 c 128,-1,72
 286 67 286 67 324.5 95 c 128,-1,73
 363 123 363 123 370 169.5 c 128,-1,74
 377 216 377 216 349.5 254 c 128,-1,75
 322 292 322 292 275 300 c 0,76,77
 266 301 266 301 256 301 c 0,47,48
258 267 m 0,78,79
 264 267 264 267 270 266 c 0,80,81
 304 261 304 261 323.5 233.5 c 128,-1,82
 343 206 343 206 338 173 c 128,-1,83
 333 140 333 140 305.5 120 c 128,-1,84
 278 100 278 100 244.5 105 c 128,-1,85
 211 110 211 110 191.5 137.5 c 128,-1,86
 172 165 172 165 177 198 c 0,87,88
 182 229 182 229 205 248 c 128,-1,89
 228 267 228 267 258 267 c 0,78,79
123 263 m 1,90,91
 95 211 95 211 107 154 c 1,92,-1
 115 158 l 1,93,94
 104 211 104 211 130 257 c 1,95,96
 126 261 126 261 123 263 c 1,90,91
258 241 m 0,97,98
 232 241 232 241 221 227 c 0,99,100
 215 219 215 219 214 205 c 1,101,-1
 239 205 l 1,102,103
 240 211 240 211 243 215 c 0,104,105
 247 219 247 219 257 219 c 0,106,107
 265 219 265 219 269.5 217 c 128,-1,108
 274 215 274 215 274 208 c 0,109,110
 274 203 274 203 268 201 c 0,111,112
 265 199 265 199 258 199 c 2,113,-1
 249 197 l 2,114,115
 233 195 233 195 225 191 c 0,116,117
 211 183 211 183 211 164 c 0,118,119
 211 149 211 149 220 141.5 c 128,-1,120
 229 134 229 134 243 134 c 0,121,122
 253 134 253 134 262 139 c 0,123,124
 269 143 269 143 275 149 c 1,125,126
 275 145 275 145 275.5 142.5 c 128,-1,127
 276 140 276 140 277 137 c 2,128,-1
 306 137 l 1,129,-1
 306 141 l 2,130,131
 303 142 303 142 302 144 c 128,-1,132
 301 146 301 146 300 151 c 0,133,134
 300 158 300 158 300 163 c 2,135,-1
 300 209 l 2,136,137
 300 227 300 227 287 234 c 128,-1,138
 274 241 274 241 258 241 c 0,97,98
274 186 m 1,139,-1
 274 176 l 2,140,141
 274 163 274 163 266.5 158 c 128,-1,142
 259 153 259 153 250 153 c 0,143,144
 245 153 245 153 241 156 c 128,-1,145
 237 159 237 159 237 166 c 256,146,147
 237 173 237 173 243 177 c 0,148,149
 247 179 247 179 256 181 c 2,150,-1
 262 182 l 2,151,152
 266 183 266 183 268.5 184 c 128,-1,153
 271 185 271 185 274 186 c 1,139,-1
EndSplineSet
EndChar

StartChar: africarxiv
Encoding: 59675 59675 13
Width: 448
GlyphClass: 1
Flags: W
LayerCount: 2
Fore
SplineSet
167 440 m 0,0,1
 177 440 177 440 190 436 c 1,2,3
 188 434 188 434 182.5 431.5 c 128,-1,4
 177 429 177 429 175 427 c 1,5,6
 178 426 178 426 184.5 428 c 128,-1,7
 191 430 191 430 194 431 c 1,8,9
 191 427 191 427 190 424 c 128,-1,10
 189 421 189 421 191.5 417.5 c 128,-1,11
 194 414 194 414 195 412.5 c 128,-1,12
 196 411 196 411 201 407 c 1,13,-1
 32 352 l 1,14,15
 36 359 36 359 48 373 c 0,16,17
 50 379 50 379 58.5 383.5 c 128,-1,18
 67 388 67 388 71 394 c 1,19,20
 71 405 71 405 81 408 c 0,21,22
 87 410 87 410 101 416.5 c 128,-1,23
 115 423 115 423 124 424 c 0,24,25
 125 425 125 425 138 432 c 0,26,27
 151 440 151 440 167 440 c 0,0,1
258 406 m 0,28,29
 259 406 259 406 264.5 401.5 c 128,-1,30
 270 397 270 397 274 396 c 2,31,-1
 279 396 l 1,32,-1
 279 396 l 1,33,34
 288 396 288 396 297 400 c 0,35,36
 309 405 309 405 314 392 c 1,37,38
 314 392 314 392 314 392 c 1,39,40
 319 381 319 381 319 374 c 1,41,-1
 250 336 l 2,42,43
 247 334 247 334 247 333 c 1,44,-1
 247 333 l 1,45,46
 253 334 253 334 259.5 336.5 c 128,-1,47
 266 339 266 339 274 342.5 c 128,-1,48
 282 346 282 346 286 347 c 0,49,50
 306 354 306 354 325 363 c 0,51,52
 332 366 332 366 335 359 c 0,53,54
 340 349 340 349 341 341 c 1,55,-1
 340 341 l 1,56,57
 342 331 342 331 349 318 c 0,58,59
 352 313 352 313 345 310 c 0,60,61
 313 293 313 293 249 260 c 0,62,63
 212 241 212 241 176 223 c 0,64,65
 170 220 170 220 169 220 c 0,66,67
 163 224 163 224 155 224.5 c 128,-1,68
 147 225 147 225 141 224.5 c 128,-1,69
 135 224 135 224 127 224 c 0,70,71
 126 224 126 224 118 224 c 0,72,73
 116 223 116 223 111 223 c 1,74,-1
 111 223 l 1,75,-1
 111 223 l 1,76,77
 100 221 100 221 92 225 c 0,78,79
 85 228 85 228 83 222 c 0,80,81
 79 214 79 214 69 219 c 0,82,83
 67 220 67 220 52 227 c 0,84,85
 36 232 36 232 32 237 c 0,86,87
 23 243 23 243 33 246 c 0,88,89
 37 247 37 247 50.5 253 c 128,-1,90
 64 259 64 259 72 261 c 2,91,-1
 121 285 l 1,92,-1
 154 305 l 2,93,94
 155 306 155 306 156 307 c 1,95,96
 155 307 155 307 154 307 c 0,97,98
 106 286 106 286 59 265 c 0,99,100
 38 256 38 256 29 251 c 0,101,102
 22 248 22 248 21 255 c 0,103,104
 17 274 17 274 19 282 c 1,105,-1
 19 282 l 1,106,107
 19 286 19 286 23 288 c 0,108,109
 30 292 30 292 30 299 c 128,-1,110
 30 306 30 306 28 312 c 0,111,112
 26 320 26 320 27 322.5 c 128,-1,113
 28 325 28 325 37 328 c 0,114,115
 91 353 91 353 148 378 c 0,116,117
 191 398 191 398 196 400 c 0,118,119
 207 405 207 405 215 399 c 0,120,121
 226 390 226 390 238 400 c 0,122,123
 244 405 244 405 258 406 c 0,28,29
359 297 m 0,124,125
 363 298 363 298 366 293 c 0,126,127
 367 290 367 290 370.5 287 c 128,-1,128
 374 284 374 284 376 281 c 128,-1,129
 378 278 378 278 377 275 c 0,130,131
 377 273 377 273 374 271.5 c 128,-1,132
 371 270 371 270 366.5 268 c 128,-1,133
 362 266 362 266 360 265 c 0,134,135
 338 254 338 254 316 242 c 0,136,137
 316 241 316 241 314 240 c 1,138,139
 317 240 317 240 319 240 c 0,140,141
 349 253 349 253 379 265 c 0,142,143
 385 267 385 267 386 265 c 0,144,145
 391 258 391 258 408 257 c 1,146,-1
 408 257 l 1,147,148
 415 258 415 258 420 262 c 0,149,150
 427 267 427 267 429 258 c 0,151,152
 430 251 430 251 429 246 c 1,153,154
 429 246 429 246 428 247 c 1,155,156
 428 246 428 246 429 246 c 1,157,158
 422 241 422 241 406.5 235 c 128,-1,159
 391 229 391 229 387 227 c 0,160,161
 386 226 386 226 379 223 c 0,162,163
 378 221 378 221 376 220 c 1,164,165
 380 221 380 221 383 221 c 2,166,-1
 426 234 l 1,167,168
 425 232 425 232 423 229 c 128,-1,169
 421 226 421 226 420 224 c 128,-1,170
 419 222 419 222 417 219.5 c 128,-1,171
 415 217 415 217 413.5 215 c 128,-1,172
 412 213 412 213 410 211.5 c 128,-1,173
 408 210 408 210 406 208 c 1,174,-1
 406 208 l 1,175,176
 404 206 404 206 398 201.5 c 128,-1,177
 392 197 392 197 390 193 c 2,178,-1
 374 171 l 2,179,180
 373 167 373 167 370 163 c 128,-1,181
 367 159 367 159 364.5 155 c 128,-1,182
 362 151 362 151 361 148 c 0,183,184
 361 146 361 146 360.5 143.5 c 128,-1,185
 360 141 360 141 359 139 c 0,186,187
 359 137 359 137 361 129 c 128,-1,188
 363 121 363 121 360 120 c 0,189,190
 359 119 359 119 343 113 c 0,191,192
 273 87 273 87 204 62 c 0,193,194
 203 62 203 62 201 61 c 0,195,196
 196 58 196 58 194 60 c 0,197,198
 192 63 192 63 192 67 c 0,199,200
 192 70 192 70 193 73 c 0,201,202
 201 103 201 103 201 113 c 0,203,204
 201 119 201 119 211 121 c 0,205,206
 214 124 214 124 218 125 c 2,207,208
 218 125 218 125 219 125 c 0,209,210
 239 135 239 135 259 143 c 0,211,212
 260 145 260 145 262 145 c 2,213,-1
 263 145 l 1,214,215
 272 150 272 150 279 152 c 2,216,-1
 313 168 l 1,217,-1
 311 170 l 1,218,219
 230 143 230 143 217 139 c 256,220,221
 204 135 204 135 202 146 c 1,222,-1
 193 157 l 1,223,-1
 190 162 l 1,224,225
 190 162 190 162 190 162 c 1,226,227
 185 168 185 168 184 176 c 0,228,229
 184 181 184 181 185 186 c 1,230,231
 185 186 185 186 185 186 c 1,232,233
 184 201 184 201 182 205 c 0,234,235
 181 209 181 209 187 210 c 0,236,237
 191 212 191 212 277 256 c 0,238,239
 339 288 339 288 354 295 c 0,240,241
 357 297 357 297 359 297 c 0,124,125
362 112 m 0,242,243
 364 111 364 111 365 107 c 0,244,245
 366 85 366 85 356 73 c 1,246,-1
 355 73 l 1,247,-1
 356 73 l 1,248,249
 346 50 346 50 326 41 c 0,250,251
 309 33 309 33 275 18.5 c 128,-1,252
 241 4 241 4 225 -3 c 0,253,254
 219 -5 219 -5 217.5 -4 c 128,-1,255
 216 -3 216 -3 217 3 c 2,256,257
 217 3 217 3 216 11 c 1,258,-1
 216 11 l 1,259,260
 213 24 213 24 204 42 c 0,261,262
 202 47 202 47 207 49 c 0,263,264
 283 80 283 80 358 111 c 0,265,266
 360 112 360 112 362 112 c 0,242,243
417 93 m 0,267,268
 418 93 418 93 419 93 c 0,269,270
 422 92 422 92 422.5 90.5 c 128,-1,271
 423 89 423 89 422.5 85.5 c 128,-1,272
 422 82 422 82 422 82 c 2,273,274
 419 46 419 46 397 37 c 0,275,276
 396 36 396 36 388 32 c 0,277,278
 387 30 387 30 386 29 c 1,279,280
 387 30 387 30 388.5 30 c 128,-1,281
 390 30 390 30 390 30 c 1,282,-1
 406 35 l 1,283,284
 407 29 407 29 404 21 c 0,285,286
 404 20 404 20 403.5 16.5 c 128,-1,287
 403 13 403 13 402.5 12 c 128,-1,288
 402 11 402 11 401 8.5 c 128,-1,289
 400 6 400 6 399 4.5 c 128,-1,290
 398 3 398 3 396 1.5 c 128,-1,291
 394 0 394 0 391 -1 c 0,292,293
 384 -3 384 -3 380.5 -1.5 c 128,-1,294
 377 0 377 0 374 7 c 0,295,296
 373 13 373 13 375 23 c 0,297,298
 376 25 376 25 378 26 c 1,299,300
 377 26 377 26 376 27 c 0,301,302
 374 32 374 32 377 42.5 c 128,-1,303
 380 53 380 53 380 58 c 0,304,305
 379 62 379 62 383.5 64.5 c 128,-1,306
 388 67 388 67 392 67 c 0,307,308
 400 65 400 65 404 75 c 256,309,310
 408 85 408 85 409 85 c 0,311,312
 413 93 413 93 417 93 c 0,267,268
326 34 m 1,313,314
 326 29 326 29 324 23 c 128,-1,315
 322 17 322 17 320 11.5 c 128,-1,316
 318 6 318 6 318 2 c 0,317,318
 318 -1 318 -1 314 -4 c 128,-1,319
 310 -7 310 -7 310 -9 c 0,320,321
 311 -18 311 -18 301 -23 c 0,322,323
 296 -26 296 -26 287 -31 c 128,-1,324
 278 -36 278 -36 275 -38 c 0,325,326
 270 -50 270 -50 260.5 -54.5 c 128,-1,327
 251 -59 251 -59 241 -53 c 0,328,329
 235 -52 235 -52 232 -49 c 1,330,331
 232 -49 232 -49 232 -49 c 1,332,-1
 232 -49 l 1,333,334
 222 -43 222 -43 220 -34 c 0,335,336
 214 -23 214 -23 225 -17 c 0,337,338
 240 -10 240 -10 326 34 c 1,313,314
EndSplineSet
EndChar

StartChar: africarxiv-square
Encoding: 59659 59659 14
Width: 448
GlyphClass: 1
Flags: W
LayerCount: 2
Fore
SplineSet
48 416 m 2,0,-1
 400 416 l 2,1,2
 420 416 420 416 434 402 c 128,-1,3
 448 388 448 388 448 368 c 2,4,-1
 448 16 l 2,5,6
 448 -4 448 -4 434 -18 c 128,-1,7
 420 -32 420 -32 400 -32 c 2,8,-1
 48 -32 l 2,9,10
 28 -32 28 -32 14 -18 c 128,-1,11
 0 -4 0 -4 0 16 c 2,12,-1
 0 368 l 2,13,14
 0 388 0 388 14 402 c 128,-1,15
 28 416 28 416 48 416 c 2,0,-1
187 352 m 0,16,17
 177 352 177 352 168 347 c 0,18,19
 160 342 160 342 159 342 c 0,20,21
 154 341 154 341 145 336.5 c 128,-1,22
 136 332 136 332 132 331 c 0,23,24
 125 329 125 329 125 323 c 0,25,26
 123 318 123 318 117.5 315.5 c 128,-1,27
 112 313 112 313 111 309 c 0,28,29
 103 300 103 300 100 295 c 1,30,-1
 209 331 l 1,31,32
 200 340 200 340 205 346 c 1,33,34
 203 346 203 346 199 344.5 c 128,-1,35
 195 343 195 343 192 343 c 1,36,37
 193 345 193 345 195 345.5 c 128,-1,38
 197 346 197 346 199 347 c 128,-1,39
 201 348 201 348 202 350 c 1,40,41
 194 352 194 352 187 352 c 0,16,17
246 330 m 1,42,43
 237 330 237 330 233 326 c 0,44,45
 225 320 225 320 218 326 c 0,46,47
 213 330 213 330 206 326 c 0,48,49
 203 325 203 325 175 312 c 0,50,51
 138 296 138 296 104 280 c 0,52,53
 98 278 98 278 97 276.5 c 128,-1,54
 96 275 96 275 97 269 c 0,55,56
 100 257 100 257 94 254 c 0,57,58
 92 253 92 253 92 250 c 1,59,-1
 92 250 l 1,60,61
 91 245 91 245 93 232 c 0,62,63
 94 228 94 228 98 230 c 0,64,65
 104 233 104 233 117 239 c 0,66,67
 147 252 147 252 179 266 c 0,68,69
 180 266 180 266 180 266 c 1,70,71
 179 265 179 265 179 265 c 1,72,-1
 158 252 l 1,73,-1
 126 236 l 2,74,75
 121 235 121 235 112 231.5 c 128,-1,76
 103 228 103 228 101 227 c 0,77,78
 94 225 94 225 100 221 c 0,79,80
 103 218 103 218 113 214 c 256,81,82
 123 210 123 210 124 209 c 0,83,84
 130 207 130 207 133 212 c 0,85,86
 134 215 134 215 139 213 c 256,87,88
 144 211 144 211 151 212 c 1,89,-1
 151 212 l 1,90,-1
 151 212 l 1,91,92
 154 212 154 212 156 213 c 0,93,94
 161 213 161 213 161.5 213 c 128,-1,95
 162 213 162 213 175 213 c 128,-1,96
 188 213 188 213 188 210 c 1,97,98
 189 210 189 210 193 212 c 0,99,100
 216 224 216 224 240 236 c 0,101,102
 279 256 279 256 302 268 c 0,103,104
 307 271 307 271 305 273 c 0,105,106
 300 282 300 282 299 288 c 0,107,108
 299 293 299 293 296 300 c 0,109,110
 294 304 294 304 289 302 c 0,111,112
 277 297 277 297 264 292 c 0,113,114
 239 283 239 283 239 283 c 1,115,-1
 239 283 l 1,116,117
 239 284 239 284 241 285 c 2,118,-1
 285 310 l 2,119,120
 285 314 285 314 282 321 c 1,121,-1
 282 321 l 1,122,123
 279 329 279 329 271 326 c 0,124,125
 265 324 265 324 259 324 c 1,126,127
 259 324 259 324 259 324 c 1,128,-1
 256 324 l 2,129,130
 254 324 254 324 250 327 c 128,-1,131
 246 330 246 330 246 330 c 1,42,43
311 260 m 0,132,133
 310 260 310 260 308 259 c 0,134,135
 298 254 298 254 258 233 c 0,136,137
 203 205 203 205 200 204 c 2,138,139
 200 204 200 204 199 203 c 0,140,141
 196 203 196 203 197 200.5 c 128,-1,142
 198 198 198 198 199 188 c 1,143,-1
 199 188 l 1,144,145
 199 185 199 185 198 182 c 0,146,147
 199 177 199 177 202 173 c 1,148,-1
 202 173 l 1,149,-1
 204 169 l 1,150,-1
 210 163 l 1,151,152
 211 155 211 155 220 158 c 0,153,154
 228 161 228 161 280 178 c 1,155,-1
 281 176 l 1,156,-1
 259 166 l 2,157,158
 255 165 255 165 249 161 c 0,159,160
 247 161 247 161 247 160 c 0,161,162
 233 155 233 155 221 149 c 0,163,164
 220 149 220 149 220 149 c 2,165,166
 218 148 218 148 216 146 c 0,167,168
 209 145 209 145 209 141 c 0,169,170
 209 135 209 135 204 115 c 0,171,172
 203 114 203 114 203 112 c 0,173,174
 203 109 203 109 205 107 c 0,175,176
 206 106 206 106 211 108 c 0,177,178
 256 124 256 124 301 141 c 0,179,180
 311 145 311 145 312 146 c 0,181,182
 314 146 314 146 312.5 151.5 c 128,-1,183
 311 157 311 157 311 158 c 256,184,185
 311 159 311 159 312 160 c 0,186,187
 312 162 312 162 312 163 c 0,188,189
 313 166 313 166 314.5 168.5 c 128,-1,190
 316 171 316 171 318 173.5 c 128,-1,191
 320 176 320 176 321 178 c 2,192,-1
 331 192 l 2,193,194
 332 195 332 195 336 198 c 128,-1,195
 340 201 340 201 341 203 c 1,196,-1
 341 202 l 1,197,-1
 341 203 l 1,198,199
 345 205 345 205 354 219 c 1,200,-1
 327 211 l 2,201,202
 325 211 325 211 322 210 c 1,203,204
 323 211 323 211 324 212 c 0,205,206
 329 214 329 214 329 214 c 2,207,208
 332 216 332 216 341.5 220 c 128,-1,209
 351 224 351 224 356 227 c 0,210,211
 357 230 357 230 356 234 c 0,212,213
 355 240 355 240 351 237 c 256,214,215
 347 234 347 234 343 234 c 1,216,-1
 343 234 l 1,217,218
 332 235 332 235 329 239 c 0,219,220
 328 240 328 240 324 239 c 0,221,222
 305 231 305 231 285 223 c 0,223,224
 284 223 284 223 282 223 c 1,225,226
 283 224 283 224 284 225 c 0,227,228
 298 232 298 232 312 239 c 0,229,230
 323 245 323 245 323 246 c 256,231,232
 323 247 323 247 322 249 c 128,-1,233
 321 251 321 251 318.5 253 c 128,-1,234
 316 255 316 255 315 257 c 0,235,236
 314 260 314 260 311 260 c 0,132,133
356 227 m 1024,237,238
313 140 m 256,239,240
 312 140 312 140 311 140 c 0,241,242
 262 120 262 120 213 100 c 0,243,244
 210 98 210 98 211 95 c 0,245,246
 217 84 217 84 219 75 c 1,247,-1
 219 75 l 1,248,249
 219 70 219 70 219 70 c 2,250,251
 219 66 219 66 220 65.5 c 128,-1,252
 221 65 221 65 225 66 c 0,253,254
 234 70 234 70 245.5 75 c 128,-1,255
 257 80 257 80 269 85 c 128,-1,256
 281 90 281 90 290 94 c 0,257,258
 303 100 303 100 309 115 c 1,259,-1
 309 115 l 1,260,261
 316 123 316 123 315 137 c 0,262,263
 314 140 314 140 313 140 c 256,239,240
349 128 m 2,264,265
 346 128 346 128 343 123 c 2,266,267
 343 123 343 123 340 116 c 0,268,269
 337 110 337 110 332 111 c 0,270,271
 330 111 330 111 327 109.5 c 128,-1,272
 324 108 324 108 324 105 c 0,273,274
 325 102 325 102 323 95.5 c 128,-1,275
 321 89 321 89 322 85 c 0,276,277
 323 85 323 85 323 85 c 1,278,279
 322 84 322 84 322 83 c 0,280,281
 320 76 320 76 321 73 c 0,282,283
 324 65 324 65 332 68 c 0,284,285
 337 69 337 69 340 82 c 0,286,287
 342 87 342 87 342 91 c 1,288,-1
 331 87 l 1,289,-1
 330 87 l 1,290,-1
 329 87 l 1,291,292
 329 88 329 88 330 89 c 0,293,294
 335 92 335 92 335 92 c 2,295,296
 350 98 350 98 352 121 c 0,297,298
 352 128 352 128 350 128 c 0,299,300
 349 128 349 128 349 128 c 2,264,265
290 90 m 1,301,302
 234 62 234 62 225 57 c 0,303,304
 217 53 217 53 221 46 c 0,305,306
 223 41 223 41 229 37 c 1,307,-1
 229 37 l 1,308,-1
 229 37 l 1,309,310
 231 34 231 34 235 34 c 0,311,312
 241 30 241 30 247.5 33 c 128,-1,313
 254 36 254 36 257 44 c 0,314,315
 259 45 259 45 265 48.5 c 128,-1,316
 271 52 271 52 274 53 c 0,317,318
 280 57 280 57 279 62 c 0,319,320
 280 64 280 64 282 66 c 0,321,322
 285 68 285 68 285 69 c 0,323,324
 285 73 285 73 287.5 79.5 c 128,-1,325
 290 86 290 86 290 90 c 1,301,302
EndSplineSet
EndChar

StartChar: arxiv
Encoding: 59764 59764 15
Width: 448
GlyphClass: 1
Flags: W
LayerCount: 2
Fore
SplineSet
62 440 m 0,0,1
 65 440 65 440 67.5 439 c 128,-1,2
 70 438 70 438 72 436.5 c 128,-1,3
 74 435 74 435 75.5 433.5 c 128,-1,4
 77 432 77 432 78 431 c 2,5,-1
 79 430 l 1,6,-1
 219 296 l 1,7,-1
 320 388 l 1,8,-1
 320 388 l 1,9,10
 328 396 328 396 338 396 c 0,11,12
 340 396 340 396 341 396 c 0,13,14
 357 392 357 392 365 378 c 0,15,16
 370 366 370 366 358 350 c 1,17,-1
 357 350 l 1,18,-1
 270 247 l 1,19,-1
 295 222 l 2,20,21
 308 211 308 211 308 193.5 c 128,-1,22
 308 176 308 176 295 164 c 2,23,-1
 272 143 l 1,24,-1
 401 -12 l 2,25,26
 411 -22 411 -22 407 -36 c 256,27,28
 403 -50 403 -50 389 -55 c 0,29,30
 385 -56 385 -56 382 -56 c 0,31,32
 371 -56 371 -56 363 -48 c 2,33,-1
 217 91 l 1,34,-1
 122 3 l 2,35,36
 116 -5 116 -5 106 -5 c 0,37,38
 91 -5 91 -5 85 9 c 0,39,40
 80 23 80 23 92 36 c 2,41,-1
 172 134 l 1,42,-1
 143 161 l 2,43,44
 134 171 134 171 130.5 183 c 128,-1,45
 127 195 127 195 131 207 c 128,-1,46
 135 219 135 219 145 229 c 2,47,-1
 170 252 l 1,48,49
 59 386 59 386 48 402 c 0,50,51
 37 417 37 417 41 427 c 0,52,53
 47 440 47 440 62 440 c 0,0,1
338 389 m 0,54,55
 330 388 330 388 325 382 c 2,56,-1
 224 291 l 1,57,-1
 265 252 l 1,58,-1
 352 354 l 2,59,60
 361 367 361 367 358 375 c 0,61,62
 352 385 352 385 341 389 c 0,63,64
 339 389 339 389 338 389 c 0,54,55
175 247 m 1,65,-1
 150 224 l 2,66,67
 142 215 142 215 138.5 205.5 c 128,-1,68
 135 196 135 196 137.5 185.5 c 128,-1,69
 140 175 140 175 148 167 c 2,70,-1
 368 -43 l 2,71,72
 374 -48 374 -48 382 -49 c 0,73,74
 384 -49 384 -49 387 -48 c 0,75,76
 397 -44 397 -44 400 -34 c 0,77,78
 403 -26 403 -26 395 -17 c 2,79,-1
 175 247 l 1,65,-1
EndSplineSet
EndChar

StartChar: arxiv-square
Encoding: 59814 59814 16
Width: 448
GlyphClass: 1
Flags: W
LayerCount: 2
Fore
SplineSet
48 416 m 2,0,-1
 400 416 l 2,1,2
 420 416 420 416 434 402 c 128,-1,3
 448 388 448 388 448 368 c 2,4,-1
 448 16 l 2,5,6
 448 -4 448 -4 434 -18 c 128,-1,7
 420 -32 420 -32 400 -32 c 2,8,-1
 48 -32 l 2,9,10
 28 -32 28 -32 14 -18 c 128,-1,11
 0 -4 0 -4 0 16 c 2,12,-1
 0 368 l 2,13,14
 0 388 0 388 14 402 c 128,-1,15
 28 416 28 416 48 416 c 2,0,-1
120 352 m 0,16,17
 110 352 110 352 106 343 c 0,18,19
 104 337 104 337 110 327 c 2,20,-1
 189 231 l 1,21,-1
 173 216 l 2,22,23
 163 206 163 206 162.5 194 c 128,-1,24
 162 182 162 182 172 172 c 2,25,-1
 190 155 l 1,26,-1
 139 91 l 2,27,28
 131 83 131 83 134 74 c 0,29,30
 138 65 138 65 148 65 c 0,31,32
 154 65 154 65 158 70 c 2,33,-1
 219 127 l 1,34,-1
 314 37 l 2,35,36
 319 32 319 32 326 32 c 0,37,38
 328 32 328 32 331 33 c 0,39,40
 340 36 340 36 342 45 c 256,41,42
 344 54 344 54 338 60 c 2,43,-1
 255 160 l 1,44,-1
 270 174 l 2,45,46
 274 178 274 178 276 183 c 128,-1,47
 278 188 278 188 278 193 c 128,-1,48
 278 198 278 198 276 203 c 128,-1,49
 274 208 274 208 270 212 c 2,50,-1
 254 227 l 1,51,-1
 310 294 l 1,52,-1
 310 294 l 1,53,54
 318 304 318 304 315 312 c 0,55,56
 310 321 310 321 300 324 c 0,57,58
 299 324 299 324 298 324 c 0,59,60
 291 323 291 323 286 318 c 1,61,-1
 286 318 l 1,62,-1
 221 259 l 1,63,-1
 131 345 l 2,64,65
 125 352 125 352 120 352 c 0,16,17
298 319 m 2,66,67
 298 319 298 319 299 319 c 0,68,69
 307 317 307 317 311 310 c 0,70,71
 313 305 313 305 306 297 c 2,72,-1
 250 231 l 1,73,-1
 224 256 l 1,74,-1
 289 315 l 2,75,76
 293 318 293 318 298 319 c 2,66,67
192 227 m 1,77,-1
 334 57 l 2,78,79
 339 51 339 51 338 46 c 0,80,81
 336 39 336 39 329 37 c 0,82,83
 327 37 327 37 326 37 c 0,84,85
 321 37 321 37 317 40 c 2,86,-1
 175 176 l 2,87,88
 157 193 157 193 177 213 c 2,89,-1
 192 227 l 1,77,-1
EndSplineSet
EndChar

StartChar: uniE9A2
Encoding: 59810 59810 17
Width: 512
GlyphClass: 1
Flags: W
LayerCount: 2
Fore
SplineSet
396 175 m 1,0,1
 416 201 416 201 417 202 c 0,2,3
 455 263 455 263 462 278 c 0,4,5
 467 287 467 287 472 288 c 0,6,7
 478 288 478 288 481 286 c 0,8,9
 486 283 486 283 484 272 c 0,10,11
 482 262 482 262 478 254 c 0,12,13
 459 213 459 213 413 158 c 0,14,15
 407 151 407 151 411 142 c 0,16,17
 417 128 417 128 427.5 100.5 c 128,-1,18
 438 73 438 73 444 61 c 0,19,20
 447 52 447 52 457 35 c 0,21,22
 464 21 464 21 479 22 c 0,23,24
 496 22 496 22 496 15 c 0,25,26
 497 9 497 9 492.5 7 c 128,-1,27
 488 5 488 5 480 3 c 0,28,29
 469 1 469 1 461 1 c 0,30,31
 426 1 426 1 413 23 c 0,32,33
 403 42 403 42 391 73 c 0,34,35
 389 80 389 80 386 87 c 128,-1,36
 383 94 383 94 379.5 103 c 128,-1,37
 376 112 376 112 374 118 c 1,38,39
 365 109 365 109 365 108 c 0,40,41
 345 82 345 82 310 22 c 0,42,43
 308 18 308 18 305.5 12.5 c 128,-1,44
 303 7 303 7 302 6 c 128,-1,45
 301 5 301 5 298.5 2 c 128,-1,46
 296 -1 296 -1 294.5 0 c 128,-1,47
 293 1 293 1 289 0 c 0,48,49
 278 5 278 5 282 22 c 0,50,51
 286 38 286 38 314 80 c 0,52,53
 322 92 322 92 338 112.5 c 128,-1,54
 354 133 354 133 358 137 c 0,55,56
 362 143 362 143 360 148 c 0,57,58
 346 183 346 183 320 243 c 0,59,60
 316 253 316 253 312.5 257 c 128,-1,61
 309 261 309 261 301 264.5 c 128,-1,62
 293 268 293 268 279 268 c 0,63,64
 271 268 271 268 271 275 c 0,65,66
 271 283 271 283 279 285 c 0,67,68
 339 303 339 303 361 255 c 0,69,70
 363 253 363 253 391 187 c 2,71,72
 391 187 391 187 396 175 c 1,0,1
15 92 m 1,73,74
 27 100 27 100 31.5 107.5 c 128,-1,75
 36 115 36 115 36 126 c 2,76,-1
 36 347 l 2,77,78
 36 356 36 356 32 365 c 0,79,80
 29 369 29 369 26.5 372.5 c 128,-1,81
 24 376 24 376 17 384 c 1,82,-1
 118 384 l 2,83,84
 167 384 167 384 195 364 c 128,-1,85
 223 344 223 344 223 309 c 0,86,87
 223 281 223 281 204 263 c 0,88,89
 194 252 194 252 183.5 247 c 128,-1,90
 173 242 173 242 151 237 c 1,91,-1
 178 201 l 2,92,93
 187 190 187 190 202 173 c 0,94,95
 218 155 218 155 236 136 c 0,96,97
 253 118 253 118 262.5 110.5 c 128,-1,98
 272 103 272 103 292 92 c 1,99,-1
 226 92 l 2,100,101
 210 92 210 92 191 110 c 0,102,103
 169 133 169 133 146 165 c 0,104,105
 131 186 131 186 119 203 c 0,106,107
 110 217 110 217 92 245 c 1,108,109
 169 255 169 255 169 304 c 0,110,111
 169 350 169 350 104 350 c 2,112,-1
 88 350 l 1,113,-1
 88 127 l 2,114,115
 88 116 88 116 92.5 108.5 c 128,-1,116
 97 101 97 101 109 92 c 1,117,-1
 15 92 l 1,73,74
EndSplineSet
EndChar

StartChar: biorxiv-square
Encoding: 59787 59787 18
Width: 448
GlyphClass: 1
Flags: W
LayerCount: 2
Fore
SplineSet
48 416 m 2,0,-1
 400 416 l 2,1,2
 420 416 420 416 434 402 c 128,-1,3
 448 388 448 388 448 368 c 2,4,-1
 448 16 l 2,5,6
 448 -4 448 -4 434 -18 c 128,-1,7
 420 -32 420 -32 400 -32 c 2,8,-1
 48 -32 l 2,9,10
 28 -32 28 -32 14 -18 c 128,-1,11
 0 -4 0 -4 0 16 c 2,12,-1
 0 368 l 2,13,14
 0 388 0 388 14 402 c 128,-1,15
 28 416 28 416 48 416 c 2,0,-1
25 352 m 1,16,17
 31 346 31 346 33 343 c 128,-1,18
 35 340 35 340 37 336 c 0,19,20
 40 329 40 329 40 321 c 2,21,-1
 40 137 l 2,22,23
 40 128 40 128 36.5 121.5 c 128,-1,24
 33 115 33 115 24 108 c 1,25,-1
 101 108 l 1,26,27
 91 116 91 116 87.5 122 c 128,-1,28
 84 128 84 128 84 138 c 2,29,-1
 84 323 l 1,30,-1
 98 323 l 2,31,32
 151 323 151 323 151 285 c 0,33,34
 151 245 151 245 88 236 c 1,35,36
 102 213 102 213 110 201 c 0,37,38
 120 187 120 187 133 169 c 0,39,40
 152 142 152 142 170 124 c 0,41,42
 185 108 185 108 199 108 c 2,43,-1
 254 108 l 1,44,45
 237 117 237 117 229.5 124 c 128,-1,46
 222 131 222 131 208 145 c 0,47,48
 192 161 192 161 179 176 c 0,49,50
 167 190 167 190 159 200 c 2,51,-1
 137 230 l 1,52,53
 155 234 155 234 163.5 238 c 128,-1,54
 172 242 172 242 181 251 c 0,55,56
 196 266 196 266 196 289 c 0,57,58
 196 319 196 319 173 335.5 c 128,-1,59
 150 352 150 352 109 352 c 2,60,-1
 25 352 l 1,16,17
268 273 m 0,61,62
 257 273 257 273 243 269 c 0,63,64
 237 267 237 267 237 261 c 0,65,66
 237 256 237 256 243 255 c 0,67,68
 252 255 252 255 257.5 254 c 128,-1,69
 263 253 263 253 267 250 c 128,-1,70
 271 247 271 247 273 244 c 128,-1,71
 275 241 275 241 277 235 c 0,72,73
 299 185 299 185 311 156 c 0,74,75
 312 151 312 151 309 146 c 0,76,77
 306 143 306 143 292.5 126 c 128,-1,78
 279 109 279 109 272 99 c 0,79,80
 249 64 249 64 246 50 c 256,81,82
 243 36 243 36 251 32 c 0,83,84
 254 33 254 33 255 32.5 c 128,-1,85
 256 32 256 32 257.5 33 c 128,-1,86
 259 34 259 34 260 34.5 c 128,-1,87
 261 35 261 35 262 37 c 128,-1,88
 263 39 263 39 264 40.5 c 128,-1,89
 265 42 265 42 266.5 45 c 128,-1,90
 268 48 268 48 269 50 c 0,91,92
 298 100 298 100 315 122 c 2,93,94
 315 122 315 122 322 130 c 1,95,96
 324 127 324 127 329 113.5 c 128,-1,97
 334 100 334 100 337 93 c 0,98,99
 347 67 347 67 355 51 c 0,100,101
 365 33 365 33 395 33 c 0,102,103
 402 33 402 33 410 34 c 0,104,105
 425 37 425 37 424 44 c 0,106,107
 424 50 424 50 410 50 c 0,108,109
 397 50 397 50 391 61 c 0,110,111
 384 75 384 75 380 83 c 0,112,113
 377 92 377 92 372 104.5 c 128,-1,114
 367 117 367 117 362 129 c 128,-1,115
 357 141 357 141 353 150 c 0,116,117
 350 158 350 158 355 164 c 0,118,119
 393 209 393 209 409 243 c 0,120,121
 412 251 412 251 414 258 c 0,122,123
 416 268 416 268 411 271 c 0,124,125
 409 272 409 272 404 272 c 0,126,127
 400 271 400 271 396 263 c 0,128,129
 390 251 390 251 358 201 c 0,130,131
 357 199 357 199 341 178 c 1,132,133
 337 188 337 188 337 188 c 2,134,135
 313 242 313 242 312 245 c 0,136,137
 299 273 299 273 268 273 c 0,61,62
EndSplineSet
EndChar

StartChar: ceur
Encoding: 59757 59757 19
Width: 512
GlyphClass: 1
Flags: W
LayerCount: 2
Fore
SplineSet
128 64 m 1,0,-1
 256 64 l 1,1,-1
 256 0 l 1,2,-1
 64 0 l 1,3,-1
 64 384 l 1,4,-1
 192 384 l 1,5,-1
 192 320 l 1,6,-1
 128 320 l 1,7,-1
 128 64 l 1,0,-1
384 384 m 1,8,-1
 448 384 l 1,9,-1
 448 0 l 1,10,-1
 320 0 l 1,11,-1
 320 64 l 1,12,-1
 384 64 l 1,13,-1
 384 320 l 1,14,-1
 256 320 l 1,15,-1
 256 384 l 1,16,-1
 384 384 l 1,8,-1
EndSplineSet
EndChar

StartChar: ceur-square
Encoding: 59695 59695 20
Width: 448
GlyphClass: 1
Flags: W
LayerCount: 2
Fore
SplineSet
48 416 m 2,0,-1
 400 416 l 2,1,2
 420 416 420 416 434 402 c 128,-1,3
 448 388 448 388 448 368 c 2,4,-1
 448 16 l 2,5,6
 448 -4 448 -4 434 -18 c 128,-1,7
 420 -32 420 -32 400 -32 c 2,8,-1
 48 -32 l 2,9,10
 28 -32 28 -32 14 -18 c 128,-1,11
 0 -4 0 -4 0 16 c 2,12,-1
 0 368 l 2,13,14
 0 388 0 388 14 402 c 128,-1,15
 28 416 28 416 48 416 c 2,0,-1
64 352 m 1,16,-1
 64 32 l 1,17,-1
 224 32 l 1,18,-1
 224 85 l 1,19,-1
 117 85 l 1,20,-1
 117 299 l 1,21,-1
 171 299 l 1,22,-1
 171 352 l 1,23,-1
 64 352 l 1,16,-1
224 352 m 1,24,-1
 224 299 l 1,25,-1
 331 299 l 1,26,-1
 331 85 l 1,27,-1
 277 85 l 1,28,-1
 277 32 l 1,29,-1
 384 32 l 1,30,-1
 384 352 l 1,31,-1
 331 352 l 1,32,-1
 224 352 l 1,24,-1
EndSplineSet
EndChar

StartChar: cienca-vitae
Encoding: 59666 59666 21
Width: 512
GlyphClass: 1
Flags: W
LayerCount: 2
Fore
SplineSet
129 313 m 1,0,-1
 168 274 l 1,1,-1
 86 192 l 1,2,-1
 167 110 l 1,3,-1
 129 71 l 1,4,-1
 8 192 l 1,5,-1
 129 313 l 1,0,-1
382 303 m 0,6,7
 392 303 392 303 400 298.5 c 128,-1,8
 408 294 408 294 413 285.5 c 128,-1,9
 418 277 418 277 418 267 c 0,10,11
 418 252 418 252 407.5 241.5 c 128,-1,12
 397 231 397 231 382 231 c 128,-1,13
 367 231 367 231 356.5 241.5 c 128,-1,14
 346 252 346 252 346 267 c 128,-1,15
 346 282 346 282 356.5 292.5 c 128,-1,16
 367 303 367 303 382 303 c 0,6,7
301 241 m 1,17,-1
 383 159 l 1,18,-1
 465 241 l 1,19,-1
 504 202 l 1,20,-1
 383 81 l 1,21,-1
 263 202 l 1,22,-1
 301 241 l 1,17,-1
194.5 229 m 128,-1,24
 209 229 209 229 220 218.5 c 128,-1,25
 231 208 231 208 231 193 c 0,26,27
 231 183 231 183 226 175 c 128,-1,28
 221 167 221 167 212.5 162 c 128,-1,29
 204 157 204 157 194.5 157 c 128,-1,30
 185 157 185 157 176.5 162 c 128,-1,31
 168 167 168 167 163 175 c 128,-1,32
 158 183 158 183 158 193 c 0,33,34
 158 208 158 208 169 218.5 c 128,-1,23
 180 229 180 229 194.5 229 c 128,-1,24
EndSplineSet
EndChar

StartChar: cienca-vitae-square
Encoding: 59667 59667 22
Width: 448
GlyphClass: 1
Flags: W
LayerCount: 2
Fore
SplineSet
48 416 m 2,0,-1
 400 416 l 2,1,2
 420 416 420 416 434 402 c 128,-1,3
 448 388 448 388 448 368 c 2,4,-1
 448 16 l 2,5,6
 448 -4 448 -4 434 -18 c 128,-1,7
 420 -32 420 -32 400 -32 c 2,8,-1
 48 -32 l 2,9,10
 28 -32 28 -32 14 -18 c 128,-1,11
 0 -4 0 -4 0 16 c 2,12,-1
 0 368 l 2,13,14
 0 388 0 388 14 402 c 128,-1,15
 28 416 28 416 48 416 c 2,0,-1
142 270 m 1,16,-1
 64 192 l 1,17,-1
 142 114 l 1,18,-1
 167 139 l 1,19,-1
 114 192 l 1,20,-1
 167 245 l 1,21,-1
 142 270 l 1,16,-1
305.5 264 m 128,-1,23
 296 264 296 264 289 257 c 128,-1,24
 282 250 282 250 282 240.5 c 128,-1,25
 282 231 282 231 289 224 c 128,-1,26
 296 217 296 217 305.5 217 c 128,-1,27
 315 217 315 217 322 224 c 128,-1,28
 329 231 329 231 329 240.5 c 128,-1,29
 329 250 329 250 322 257 c 128,-1,22
 315 264 315 264 305.5 264 c 128,-1,23
253 223 m 1,30,-1
 228 198 l 1,31,-1
 306 120 l 1,32,-1
 384 198 l 1,33,-1
 359 223 l 1,34,-1
 306 171 l 1,35,-1
 253 223 l 1,30,-1
184.5 216 m 128,-1,37
 175 216 175 216 168 209 c 128,-1,38
 161 202 161 202 161 192.5 c 128,-1,39
 161 183 161 183 168 176 c 128,-1,40
 175 169 175 169 184.5 169 c 128,-1,41
 194 169 194 169 201 176 c 128,-1,42
 208 183 208 183 208 192.5 c 128,-1,43
 208 202 208 202 201 209 c 128,-1,36
 194 216 194 216 184.5 216 c 128,-1,37
EndSplineSet
EndChar

StartChar: conversation
Encoding: 59724 59724 23
Width: 484
GlyphClass: 1
Flags: W
LayerCount: 2
Fore
SplineSet
324 352 m 2,0,1
 388 352 388 352 433 306.5 c 128,-1,2
 478 261 478 261 478 198 c 2,3,-1
 478 192 l 2,4,5
 478 129 478 129 433 84 c 128,-1,6
 388 39 388 39 324 39 c 2,7,-1
 217 39 l 2,8,9
 164 39 164 39 124 69 c 1,10,-1
 6 32 l 1,11,-1
 87 108 l 1,12,13
 61 148 61 148 61 192 c 2,14,-1
 61 198 l 2,15,16
 61 261 61 261 106.5 306.5 c 128,-1,17
 152 352 152 352 215 352 c 2,18,-1
 324 352 l 2,0,1
406 172 m 2,19,-1
 406 212 l 2,20,21
 406 247 406 247 383 270 c 128,-1,22
 360 293 360 293 325 293 c 2,23,-1
 213 293 l 2,24,25
 178 293 178 293 155 270 c 128,-1,26
 132 247 132 247 132 212 c 2,27,-1
 132 172 l 2,28,29
 132 138 132 138 155 117 c 128,-1,30
 178 96 178 96 213 96 c 2,31,-1
 325 96 l 2,32,33
 348 96 348 96 366.5 105 c 128,-1,34
 385 114 385 114 395.5 131.5 c 128,-1,35
 406 149 406 149 406 172 c 2,19,-1
EndSplineSet
EndChar

StartChar: conversation-square
Encoding: 59669 59669 24
Width: 448
GlyphClass: 1
Flags: W
LayerCount: 2
Fore
SplineSet
48 416 m 2,0,-1
 400 416 l 2,1,2
 420 416 420 416 434 402 c 128,-1,3
 448 388 448 388 448 368 c 2,4,-1
 448 16 l 2,5,6
 448 -4 448 -4 434 -18 c 128,-1,7
 420 -32 420 -32 400 -32 c 2,8,-1
 48 -32 l 2,9,10
 28 -32 28 -32 14 -18 c 128,-1,11
 0 -4 0 -4 0 16 c 2,12,-1
 0 368 l 2,13,14
 0 388 0 388 14 402 c 128,-1,15
 28 416 28 416 48 416 c 2,0,-1
206 300 m 2,16,17
 163 300 163 300 132.5 269.5 c 128,-1,18
 102 239 102 239 102 196 c 2,19,-1
 102 192 l 2,20,21
 102 162 102 162 119 135 c 1,22,-1
 64 84 l 1,23,-1
 144 109 l 1,24,25
 171 88 171 88 207 88 c 2,26,-1
 280 88 l 2,27,28
 323 88 323 88 353.5 118.5 c 128,-1,29
 384 149 384 149 384 192 c 2,30,-1
 384 196 l 2,31,32
 384 224 384 224 370 248 c 128,-1,33
 356 272 356 272 332 286 c 128,-1,34
 308 300 308 300 280 300 c 2,35,-1
 206 300 l 2,16,17
204 260 m 2,36,-1
 280 260 l 2,37,38
 304 260 304 260 319.5 244.5 c 128,-1,39
 335 229 335 229 335 206 c 2,40,-1
 335 178 l 2,41,42
 335 155 335 155 319.5 141 c 128,-1,43
 304 127 304 127 280 127 c 2,44,-1
 204 127 l 2,45,46
 180 127 180 127 165 141 c 128,-1,47
 150 155 150 155 150 178 c 2,48,-1
 150 206 l 2,49,50
 150 229 150 229 165.5 244.5 c 128,-1,51
 181 260 181 260 204 260 c 2,36,-1
EndSplineSet
EndChar

StartChar: coursera
Encoding: 59743 59743 25
Width: 512
GlyphClass: 1
Flags: W
LayerCount: 2
Fore
SplineSet
504 196 m 0,0,1
 504 193 504 193 504 191 c 2,2,-1
 504 190 l 2,3,4
 504 143 504 143 468 107 c 0,5,6
 430 68 430 68 371 65 c 0,7,8
 369 65 369 65 367 65 c 0,9,10
 337 65 337 65 308 77 c 0,11,12
 296 83 296 83 285 91 c 2,13,-1
 267 107 l 1,14,-1
 300 168 l 1,15,16
 327 141 327 141 350 136 c 0,17,18
 361 134 361 134 371 135 c 0,19,20
 397 137 397 137 414 155 c 128,-1,21
 431 173 431 173 429 196.5 c 128,-1,22
 427 220 427 220 407 235 c 128,-1,23
 387 250 387 250 361 247 c 0,24,25
 329 245 329 245 313 220 c 0,26,27
 308 214 308 214 300 200 c 2,28,-1
 299 197 l 1,29,-1
 297 193 l 2,30,31
 266 135 266 135 256 119 c 2,32,-1
 255 117 l 1,33,-1
 254 116 l 1,34,-1
 252 112 l 1,35,-1
 245 105 l 2,36,37
 243 103 243 103 240 100 c 2,38,-1
 239 99 l 2,39,40
 234 94 234 94 229 91 c 2,41,-1
 226 89 l 1,42,-1
 225 88 l 2,43,44
 221 85 221 85 218 84 c 0,45,46
 210 79 210 79 204 77 c 0,47,48
 177 65 177 65 145 65 c 0,49,50
 142 65 142 65 138 66 c 0,51,52
 80 68 80 68 43 106 c 0,53,54
 8 141 8 141 8 190 c 0,55,56
 8 193 8 193 8 196 c 0,57,58
 10 231 10 231 29 260 c 128,-1,59
 48 289 48 289 81 305 c 0,60,61
 109 319 109 319 143 319 c 2,62,-1
 144 319 l 2,63,64
 148 319 148 319 151 319 c 0,65,66
 152 319 152 319 153.5 318.5 c 128,-1,67
 155 318 155 318 156 318 c 128,-1,68
 157 318 157 318 157 318 c 2,69,70
 176 316 176 316 193 311 c 2,71,72
 193 311 193 311 197 309 c 2,73,74
 197 309 197 309 198 309 c 0,75,76
 214 303 214 303 227 294 c 1,77,-1
 191 230 l 1,78,79
 174 247 174 247 147 248 c 2,80,-1
 143 248 l 2,81,82
 125 248 125 248 112 241 c 0,83,84
 111 240 111 240 111 240 c 2,85,86
 106 237 106 237 101 233 c 0,87,88
 84 218 84 218 83 195 c 2,89,90
 83 195 83 195 83 194 c 0,91,92
 82 179 82 179 89 166 c 0,93,94
 96 154 96 154 107 146 c 0,95,96
 109 145 109 145 110 145 c 0,97,98
 124 136 124 136 142 136 c 0,99,100
 145 136 145 136 146 136 c 0,101,102
 175 136 175 136 196 158 c 0,103,104
 203 169 203 169 213 188 c 2,105,-1
 215 193 l 1,106,-1
 217 196 l 1,107,-1
 240 244 l 2,108,109
 243 248 243 248 246 252 c 0,110,111
 250 259 250 259 256 267 c 1,112,-1
 256 267 l 1,113,114
 259 270 259 270 262 274 c 2,115,-1
 265 277 l 1,116,-1
 266 277 l 1,117,-1
 267 279 l 1,118,-1
 269 281 l 1,119,-1
 271 283 l 2,120,121
 275 287 275 287 278 289 c 0,122,123
 294 302 294 302 316 309 c 0,124,125
 337 317 337 317 361 319 c 0,126,127
 365 319 365 319 368 319 c 0,128,129
 402 319 402 319 431 305 c 0,130,131
 450 296 450 296 465 282 c 0,132,133
 475 272 475 272 483 260 c 0,134,135
 501 233 501 233 503 202 c 1,136,-1
 503 202 l 1,137,138
 504 198 504 198 504 196 c 0,0,1
EndSplineSet
EndChar

StartChar: coursera-square
Encoding: 59775 59775 26
Width: 448
GlyphClass: 1
Flags: W
LayerCount: 2
Fore
SplineSet
48 416 m 2,0,-1
 400 416 l 2,1,2
 420 416 420 416 434 402 c 128,-1,3
 448 388 448 388 448 368 c 2,4,-1
 448 16 l 2,5,6
 448 -4 448 -4 434 -18 c 128,-1,7
 420 -32 420 -32 400 -32 c 2,8,-1
 48 -32 l 2,9,10
 28 -32 28 -32 14 -18 c 128,-1,11
 0 -4 0 -4 0 16 c 2,12,-1
 0 368 l 2,13,14
 0 388 0 388 14 402 c 128,-1,15
 28 416 28 416 48 416 c 2,0,-1
151 274 m 2,16,17
 129 274 129 274 111 265 c 0,18,19
 90 255 90 255 77.5 236 c 128,-1,20
 65 217 65 217 64 195 c 0,21,22
 64 193 64 193 64 191 c 0,23,24
 64 159 64 159 87 136 c 0,25,26
 110 112 110 112 148 110 c 0,27,28
 150 110 150 110 152 110 c 0,29,30
 173 110 173 110 191 118 c 0,31,32
 194 119 194 119 199 122 c 0,33,34
 201 123 201 123 204 125 c 2,35,-1
 205 126 l 1,36,-1
 207 127 l 2,37,38
 210 129 210 129 213 132 c 2,39,-1
 214 133 l 2,40,41
 216 135 216 135 217 136 c 2,42,-1
 221 141 l 1,43,-1
 223 143 l 1,44,-1
 223 144 l 1,45,-1
 224 145 l 1,46,-1
 250 193 l 1,47,-1
 252 195 l 1,48,-1
 253 197 l 2,49,50
 257 206 257 206 260 210 c 1,51,-1
 261 210 l 1,52,53
 271 226 271 226 292 228 c 0,54,55
 303 229 303 229 312.5 225 c 128,-1,56
 322 221 322 221 328.5 213 c 128,-1,57
 335 205 335 205 336 195 c 0,58,59
 337 180 337 180 326 168.5 c 128,-1,60
 315 157 315 157 298 155 c 0,61,62
 291 154 291 154 285 156 c 0,63,64
 270 159 270 159 253 177 c 1,65,-1
 231 137 l 1,66,67
 238 130 238 130 242 127 c 0,68,69
 249 122 249 122 258 118 c 0,70,71
 276 110 276 110 296 110 c 0,72,73
 297 110 297 110 298 110 c 0,74,75
 336 112 336 112 361 137 c 0,76,77
 384 161 384 161 384 191 c 0,78,79
 384 193 384 193 384 194.5 c 128,-1,80
 384 196 384 196 384 198 c 1,81,-1
 384 198 l 1,82,83
 382 219 382 219 370 236 c 0,84,85
 365 243 365 243 359 250 c 0,86,87
 349 259 349 259 337 265 c 0,88,89
 318 274 318 274 296 274 c 0,90,91
 294 274 294 274 292 274 c 0,92,93
 276 273 276 273 262 268 c 128,-1,94
 248 263 248 263 238 255 c 0,95,96
 237 253 237 253 234 251 c 2,97,-1
 233 250 l 1,98,-1
 231 248 l 1,99,-1
 230 247 l 1,100,-1
 228 245 l 2,101,102
 226 242 226 242 224 240 c 1,103,-1
 224 240 l 1,104,105
 220 235 220 235 217 231 c 0,106,107
 216 228 216 228 214 225 c 2,108,-1
 199 194 l 1,109,-1
 198 193 l 1,110,-1
 196 189 l 2,111,112
 190 177 190 177 185 170 c 0,113,114
 172 156 172 156 153 156 c 0,115,116
 152 156 152 156 150 156 c 0,117,118
 139 156 139 156 130 161 c 0,119,120
 129 162 129 162 128 163 c 0,121,122
 121 167 121 167 117 175 c 0,123,124
 112 184 112 184 112 193 c 2,125,-1
 112 194 l 2,126,127
 113 209 113 209 124 219 c 0,128,129
 127 221 127 221 130 223 c 0,130,131
 131 223 131 223 131 223 c 1,132,133
 140 228 140 228 151 228 c 2,134,-1
 153 228 l 2,135,136
 171 227 171 227 182 217 c 1,137,-1
 205 258 l 1,138,139
 197 264 197 264 186 267 c 0,140,141
 186 268 186 268 186 268 c 2,142,143
 184 269 184 269 183 269 c 0,144,145
 172 272 172 272 160 273 c 0,146,147
 159 273 159 273 158 273.5 c 128,-1,148
 157 274 157 274 156 274 c 0,149,150
 154 274 154 274 152 274 c 2,151,-1
 151 274 l 2,16,17
EndSplineSet
EndChar

StartChar: crossref
Encoding: 59672 59672 27
Width: 320
GlyphClass: 1
Flags: W
LayerCount: 2
Fore
SplineSet
310 408 m 1,0,-1
 310 279 l 1,1,-1
 217 248 l 1,2,-1
 25 314 l 1,3,-1
 310 408 l 1,0,-1
10 309 m 1,4,-1
 202 243 l 1,5,-1
 10 177 l 1,6,-1
 10 309 l 1,4,-1
217 238 m 1,7,-1
 295 212 l 1,8,-1
 103 146 l 1,9,-1
 25 172 l 1,10,-1
 217 238 l 1,7,-1
310 207 m 1,11,-1
 310 75 l 1,12,-1
 118 141 l 1,13,-1
 310 207 l 1,11,-1
103 136 m 1,14,-1
 295 70 l 1,15,-1
 10 -24 l 1,16,-1
 10 105 l 1,17,-1
 103 136 l 1,14,-1
EndSplineSet
EndChar

StartChar: crossref-square
Encoding: 59673 59673 28
Width: 448
GlyphClass: 1
Flags: W
LayerCount: 2
Fore
SplineSet
48 416 m 2,0,-1
 400 416 l 2,1,2
 420 416 420 416 434 402 c 128,-1,3
 448 388 448 388 448 368 c 2,4,-1
 448 16 l 2,5,6
 448 -4 448 -4 434 -18 c 128,-1,7
 420 -32 420 -32 400 -32 c 2,8,-1
 48 -32 l 2,9,10
 28 -32 28 -32 14 -18 c 128,-1,11
 0 -4 0 -4 0 16 c 2,12,-1
 0 368 l 2,13,14
 0 388 0 388 14 402 c 128,-1,15
 28 416 28 416 48 416 c 2,0,-1
335 352 m 1,16,-1
 124 282 l 1,17,-1
 266 233 l 1,18,-1
 335 256 l 1,19,-1
 335 352 l 1,16,-1
113 279 m 1,20,-1
 113 181 l 1,21,-1
 255 230 l 1,22,-1
 113 279 l 1,20,-1
266 226 m 1,23,-1
 124 177 l 1,24,-1
 182 158 l 1,25,-1
 324 207 l 1,26,-1
 266 226 l 1,23,-1
335 203 m 1,27,-1
 193 154 l 1,28,-1
 335 105 l 1,29,-1
 335 203 l 1,27,-1
182 151 m 1,30,-1
 113 128 l 1,31,-1
 113 32 l 1,32,-1
 324 102 l 1,33,-1
 182 151 l 1,30,-1
EndSplineSet
EndChar

StartChar: cv
Encoding: 59813 59813 29
Width: 512
GlyphClass: 1
Flags: W
LayerCount: 2
Fore
SplineSet
249 120 m 1,0,1
 230 89 230 89 209 75 c 0,2,3
 176 51 176 51 135 51 c 0,4,5
 80 51 80 51 44 89 c 128,-1,6
 8 127 8 127 8 192 c 0,7,8
 8 252 8 252 44.5 292.5 c 128,-1,9
 81 333 81 333 136 333 c 0,10,11
 181 333 181 333 214 306 c 0,12,13
 233 291 233 291 248 264 c 1,14,-1
 196 238 l 1,15,16
 188 255 188 255 176 265 c 0,17,18
 159 278 159 278 139 278 c 0,19,20
 109 278 109 278 91.5 253.5 c 128,-1,21
 74 229 74 229 74 194 c 0,22,23
 74 152 74 152 92.5 129.5 c 128,-1,24
 111 107 111 107 139 107 c 0,25,26
 152 107 152 107 161.5 110.5 c 128,-1,27
 171 114 171 114 178 121.5 c 128,-1,28
 185 129 185 129 188.5 133.5 c 128,-1,29
 192 138 192 138 197 146 c 1,30,-1
 249 120 l 1,0,1
433 324 m 1,31,-1
 504 324 l 1,32,-1
 412 59 l 1,33,-1
 344 59 l 1,34,-1
 253 324 l 1,35,-1
 324 324 l 1,36,-1
 379 136 l 1,37,-1
 433 324 l 1,31,-1
EndSplineSet
EndChar

StartChar: cv-square
Encoding: 59658 59658 30
Width: 448
GlyphClass: 1
Flags: W
LayerCount: 2
Fore
SplineSet
48 416 m 2,0,-1
 400 416 l 2,1,2
 420 416 420 416 434 402 c 128,-1,3
 448 388 448 388 448 368 c 2,4,-1
 448 16 l 2,5,6
 448 -4 448 -4 434 -18 c 128,-1,7
 420 -32 420 -32 400 -32 c 2,8,-1
 48 -32 l 2,9,10
 28 -32 28 -32 14 -18 c 128,-1,11
 0 -4 0 -4 0 16 c 2,12,-1
 0 368 l 2,13,14
 0 388 0 388 14 402 c 128,-1,15
 28 416 28 416 48 416 c 2,0,-1
147 283 m 0,16,17
 111 283 111 283 87.5 257 c 128,-1,18
 64 231 64 231 64 192 c 0,19,20
 64 150 64 150 87.5 125.5 c 128,-1,21
 111 101 111 101 146 101 c 0,22,23
 172 101 172 101 194 116 c 0,24,25
 207 126 207 126 220 145 c 1,26,-1
 186 163 l 1,27,28
 171 137 171 137 149 137 c 0,29,30
 137 137 137 137 127.5 143 c 128,-1,31
 118 149 118 149 112.5 162 c 128,-1,32
 107 175 107 175 107 193 c 0,33,34
 107 204 107 204 109.5 214 c 128,-1,35
 112 224 112 224 117 231.5 c 128,-1,36
 122 239 122 239 130.5 243.5 c 128,-1,37
 139 248 139 248 149 248 c 0,38,39
 162 248 162 248 172 239 c 0,40,41
 180 232 180 232 185 221 c 1,42,-1
 219 238 l 1,43,44
 209 256 209 256 197 266 c 0,45,46
 175 283 175 283 147 283 c 0,16,17
222 277 m 1,47,-1
 281 106 l 1,48,-1
 325 106 l 1,49,-1
 384 277 l 1,50,-1
 338 277 l 1,51,-1
 303 156 l 1,52,-1
 268 277 l 1,53,-1
 222 277 l 1,47,-1
EndSplineSet
EndChar

StartChar: datacite
Encoding: 59676 59676 31
Width: 512
GlyphClass: 1
Flags: W
LayerCount: 2
Fore
SplineSet
223 390 m 0,0,1
 258 391 258 391 302 359 c 1,2,3
 287 366 287 366 273.5 368.5 c 128,-1,4
 260 371 260 371 249.5 369 c 128,-1,5
 239 367 239 367 230.5 362 c 128,-1,6
 222 357 222 357 216 348 c 128,-1,7
 210 339 210 339 205.5 328.5 c 128,-1,8
 201 318 201 318 199 305 c 1,9,10
 199 305 199 305 199.5 305 c 128,-1,11
 200 305 200 305 201 305 c 0,12,13
 288 308 288 308 362 294 c 128,-1,14
 436 280 436 280 475 252 c 128,-1,15
 514 224 514 224 501 190 c 0,16,17
 486 153 486 153 420.5 125.5 c 128,-1,18
 355 98 355 98 264 87 c 1,19,20
 281 68 281 68 299 57.5 c 128,-1,21
 317 47 317 47 335 45.5 c 128,-1,22
 353 44 353 44 369.5 56 c 128,-1,23
 386 68 386 68 397 93 c 0,24,25
 401 94 401 94 401 94 c 1,26,27
 392 39 392 39 368 14 c 128,-1,28
 344 -11 344 -11 314.5 -6 c 128,-1,29
 285 -1 285 -1 254.5 22 c 128,-1,30
 224 45 224 45 200 81 c 1,31,32
 100 75 100 75 19 92 c 0,33,34
 15 92 15 92 8 94 c 1,35,36
 96 93 96 93 181 115 c 1,37,38
 173 133 173 133 168 150 c 0,39,40
 146 203 146 203 145 258 c 128,-1,41
 144 313 144 313 165 351 c 128,-1,42
 186 389 186 389 223 390 c 0,0,1
199 303 m 1,43,44
 187 230 187 230 224 149 c 0,45,46
 228 140 228 140 233 131 c 1,47,48
 312 160 312 160 335 199 c 0,49,50
 358 239 358 239 316 266.5 c 128,-1,51
 274 294 274 294 199 303 c 1,43,44
EndSplineSet
EndChar

StartChar: datacite-square
Encoding: 59677 59677 32
Width: 448
GlyphClass: 1
Flags: W
LayerCount: 2
Fore
SplineSet
48 416 m 2,0,-1
 400 416 l 2,1,2
 420 416 420 416 434 402 c 128,-1,3
 448 388 448 388 448 368 c 2,4,-1
 448 16 l 2,5,6
 448 -4 448 -4 434 -18 c 128,-1,7
 420 -32 420 -32 400 -32 c 2,8,-1
 48 -32 l 2,9,10
 28 -32 28 -32 14 -18 c 128,-1,11
 0 -4 0 -4 0 16 c 2,12,-1
 0 368 l 2,13,14
 0 388 0 388 14 402 c 128,-1,15
 28 416 28 416 48 416 c 2,0,-1
201 352 m 0,16,17
 199 352 199 352 198 352 c 0,18,19
 167 351 167 351 150.5 320.5 c 128,-1,20
 134 290 134 290 135 245.5 c 128,-1,21
 136 201 136 201 153 158 c 0,22,23
 157 144 157 144 164 130 c 1,24,25
 95 112 95 112 24 113 c 1,26,27
 29 111 29 111 32 111 c 0,28,29
 98 98 98 98 179 102 c 1,30,31
 198 73 198 73 222.5 54.5 c 128,-1,32
 247 36 247 36 271 32 c 128,-1,33
 295 28 295 28 314.5 48.5 c 128,-1,34
 334 69 334 69 341 113 c 1,35,36
 341 113 341 113 340 112 c 0,37,38
 339 112 339 112 338 112 c 0,39,40
 326 85 326 85 307 77 c 128,-1,41
 288 69 288 69 268.5 77.5 c 128,-1,42
 249 86 249 86 230 107 c 1,43,44
 278 113 278 113 318 124.5 c 128,-1,45
 358 136 358 136 386 153.5 c 128,-1,46
 414 171 414 171 422 191 c 0,47,48
 432 218 432 218 400.5 240.5 c 128,-1,49
 369 263 369 263 309.5 274 c 128,-1,50
 250 285 250 285 179 283 c 0,51,52
 178 283 178 283 178 283 c 1,53,54
 184 317 184 317 203.5 329.5 c 128,-1,55
 223 342 223 342 261 327 c 1,56,57
 228 351 228 351 201 352 c 0,16,17
178 282 m 1,58,59
 206 278 206 278 229.5 271 c 128,-1,60
 253 264 253 264 270 253.5 c 128,-1,61
 287 243 287 243 292 229 c 128,-1,62
 297 215 297 215 288 198 c 0,63,64
 269 166 269 166 205 143 c 1,65,66
 201 150 201 150 198 157 c 0,67,68
 168 223 168 223 178 282 c 1,58,59
EndSplineSet
EndChar

StartChar: dataverse
Encoding: 59895 59895 33
Width: 320
GlyphClass: 1
Flags: W
LayerCount: 2
Fore
SplineSet
235 297 m 1,0,1
 262 297 262 297 281.5 277.5 c 128,-1,2
 301 258 301 258 301 230.5 c 128,-1,3
 301 203 301 203 281.5 183.5 c 128,-1,4
 262 164 262 164 235 164 c 0,5,6
 223 164 223 164 213 167 c 1,7,-1
 190 129 l 1,8,9
 228 97 228 97 228 48 c 0,10,11
 228 5 228 5 197 -25.5 c 128,-1,12
 166 -56 166 -56 123 -56 c 128,-1,13
 80 -56 80 -56 49.5 -25.5 c 128,-1,14
 19 5 19 5 19 48 c 128,-1,15
 19 91 19 91 49.5 122 c 128,-1,16
 80 153 80 153 123 153 c 0,17,18
 150 153 150 153 174 140 c 1,19,-1
 195 176 l 1,20,21
 168 196 168 196 168 230 c 0,22,23
 168 252 168 252 181 269.5 c 128,-1,24
 194 287 194 287 215 294 c 1,25,-1
 205 346 l 1,26,27
 205 346 205 346 204.5 346 c 128,-1,28
 204 346 204 346 203 346 c 0,29,30
 184 346 184 346 170 360 c 128,-1,31
 156 374 156 374 156 393 c 128,-1,32
 156 412 156 412 170 426 c 128,-1,33
 184 440 184 440 203.5 440 c 128,-1,34
 223 440 223 440 236.5 426 c 128,-1,35
 250 412 250 412 250 393 c 0,36,37
 250 364 250 364 224 351 c 1,38,-1
 235 297 l 1,0,1
208 48 m 128,-1,40
 208 83 208 83 183 108 c 128,-1,41
 158 133 158 133 123 133 c 128,-1,42
 88 133 88 133 63 108 c 128,-1,43
 38 83 38 83 38 48 c 128,-1,44
 38 13 38 13 63 -11.5 c 128,-1,45
 88 -36 88 -36 123 -36 c 128,-1,46
 158 -36 158 -36 183 -11.5 c 128,-1,39
 208 13 208 13 208 48 c 128,-1,40
203 363 m 0,47,48
 209 363 209 363 215 365 c 128,-1,49
 221 367 221 367 225 371.5 c 128,-1,50
 229 376 229 376 231.5 381.5 c 128,-1,51
 234 387 234 387 234 393 c 0,52,53
 234 401 234 401 230 408.5 c 128,-1,54
 226 416 226 416 219 420 c 128,-1,55
 212 424 212 424 203 424 c 0,56,57
 191 424 191 424 182 415 c 128,-1,58
 173 406 173 406 173 393 c 128,-1,59
 173 380 173 380 182 371.5 c 128,-1,60
 191 363 191 363 203 363 c 0,47,48
235 183 m 0,61,62
 254 183 254 183 268 197 c 128,-1,63
 282 211 282 211 282 230.5 c 128,-1,64
 282 250 282 250 268 263.5 c 128,-1,65
 254 277 254 277 234.5 277 c 128,-1,66
 215 277 215 277 201.5 263.5 c 128,-1,67
 188 250 188 250 188 230 c 0,68,69
 188 217 188 217 194 206.5 c 128,-1,70
 200 196 200 196 211 189.5 c 128,-1,71
 222 183 222 183 235 183 c 0,61,62
EndSplineSet
EndChar

StartChar: dataverse-square
Encoding: 59876 59876 34
Width: 448
GlyphClass: 1
Flags: W
LayerCount: 2
Fore
SplineSet
48 416 m 2,0,-1
 400 416 l 2,1,2
 420 416 420 416 434 402 c 128,-1,3
 448 388 448 388 448 368 c 2,4,-1
 448 16 l 2,5,6
 448 -4 448 -4 434 -18 c 128,-1,7
 420 -32 420 -32 400 -32 c 2,8,-1
 48 -32 l 2,9,10
 28 -32 28 -32 14 -18 c 128,-1,11
 0 -4 0 -4 0 16 c 2,12,-1
 0 368 l 2,13,14
 0 388 0 388 14 402 c 128,-1,15
 28 416 28 416 48 416 c 2,0,-1
252 352 m 0,16,17
 239 352 239 352 230.5 343 c 128,-1,18
 222 334 222 334 222 322 c 0,19,20
 222 314 222 314 226 307 c 128,-1,21
 230 300 230 300 237 295.5 c 128,-1,22
 244 291 244 291 252 291 c 1,23,24
 252 291 252 291 253 292 c 1,25,-1
 260 258 l 1,26,27
 251 255 251 255 244 249 c 128,-1,28
 237 243 237 243 233 234.5 c 128,-1,29
 229 226 229 226 229 217 c 0,30,31
 229 195 229 195 247 182 c 1,32,-1
 233 158 l 1,33,34
 218 167 218 167 200 167 c 0,35,36
 172 167 172 167 152.5 147 c 128,-1,37
 133 127 133 127 133 99 c 128,-1,38
 133 71 133 71 152.5 51.5 c 128,-1,39
 172 32 172 32 200 32 c 128,-1,40
 228 32 228 32 248 51.5 c 128,-1,41
 268 71 268 71 268 99 c 0,42,43
 268 131 268 131 243 151 c 1,44,-1
 258 176 l 1,45,46
 265 174 265 174 272 174 c 0,47,48
 290 174 290 174 302.5 186.5 c 128,-1,49
 315 199 315 199 315 216.5 c 128,-1,50
 315 234 315 234 302.5 247 c 128,-1,51
 290 260 290 260 272 260 c 1,52,-1
 272 260 l 1,53,-1
 265 295 l 1,54,55
 282 303 282 303 282 322 c 0,56,57
 282 330 282 330 278 337 c 128,-1,58
 274 344 274 344 267 348 c 128,-1,59
 260 352 260 352 252 352 c 0,16,17
252 341 m 128,-1,61
 260 341 260 341 266 335.5 c 128,-1,62
 272 330 272 330 272 322 c 128,-1,63
 272 314 272 314 266 308 c 128,-1,64
 260 302 260 302 252 302 c 128,-1,65
 244 302 244 302 238 308 c 128,-1,66
 232 314 232 314 232 322 c 128,-1,67
 232 330 232 330 238 335.5 c 128,-1,60
 244 341 244 341 252 341 c 128,-1,61
272.5 247 m 128,-1,69
 285 247 285 247 293.5 238 c 128,-1,70
 302 229 302 229 302 216.5 c 128,-1,71
 302 204 302 204 293.5 195 c 128,-1,72
 285 186 285 186 272 186 c 0,73,74
 264 186 264 186 257 190 c 128,-1,75
 250 194 250 194 246 201 c 128,-1,76
 242 208 242 208 242 217 c 0,77,78
 242 229 242 229 251 238 c 128,-1,68
 260 247 260 247 272.5 247 c 128,-1,69
200.5 154 m 128,-1,80
 223 154 223 154 239 138 c 128,-1,81
 255 122 255 122 255 99 c 0,82,83
 255 88 255 88 250.5 78 c 128,-1,84
 246 68 246 68 239 60.5 c 128,-1,85
 232 53 232 53 221.5 49 c 128,-1,86
 211 45 211 45 200 45 c 0,87,88
 178 45 178 45 162 61 c 128,-1,89
 146 77 146 77 146 99.5 c 128,-1,90
 146 122 146 122 162 138 c 128,-1,79
 178 154 178 154 200.5 154 c 128,-1,80
EndSplineSet
EndChar

StartChar: dblp
Encoding: 59727 59727 35
Width: 384
GlyphClass: 1
Flags: W
LayerCount: 2
Fore
SplineSet
32 408 m 2,0,1
 32 408 32 408 39 405 c 2,2,-1
 164 329 l 2,3,4
 170 325 170 325 173.5 320.5 c 128,-1,5
 177 316 177 316 178 313 c 2,6,-1
 179 311 l 2,7,8
 182 300 182 300 184 291.5 c 128,-1,9
 186 283 186 283 187.5 279 c 128,-1,10
 189 275 189 275 189.5 272.5 c 128,-1,11
 190 270 190 270 190.5 269 c 128,-1,12
 191 268 191 268 191 267 c 128,-1,13
 191 266 191 266 191 265 c 2,14,-1
 203 221 l 1,15,-1
 223 145 l 2,16,17
 224 145 224 145 224 144 c 0,18,19
 226 134 226 134 216 130 c 2,20,-1
 193 119 l 2,21,22
 152 100 152 100 82 67 c 0,23,24
 77 65 77 65 74 66.5 c 128,-1,25
 71 68 71 68 70 70 c 2,26,-1
 69 73 l 1,27,-1
 24 238 l 2,28,29
 23 243 23 243 25 246.5 c 128,-1,30
 27 250 27 250 29 252 c 2,31,-1
 32 253 l 1,32,-1
 65 269 l 1,33,-1
 30 402 l 2,34,35
 28 408 28 408 32 408 c 2,0,1
307 318 m 0,36,37
 310 318 310 318 312 316 c 128,-1,38
 314 314 314 314 315 312 c 2,39,-1
 315 311 l 1,40,-1
 360 146 l 2,41,42
 362 136 362 136 352 131 c 2,43,-1
 319 115 l 1,44,45
 336 51 336 51 354 -18 c 0,46,47
 355 -27 355 -27 345 -21 c 2,48,-1
 220 55 l 2,49,50
 214 59 214 59 210.5 63.5 c 128,-1,51
 207 68 207 68 206 71 c 2,52,-1
 205 73 l 1,53,-1
 205 74 l 1,54,-1
 196 108 l 1,55,-1
 229 124 l 2,56,57
 230 124 230 124 231.5 125.5 c 128,-1,58
 233 127 233 127 235 130.5 c 128,-1,59
 237 134 237 134 237 138 c 0,60,61
 237 139 237 139 237 139 c 1,62,-1
 217 212 l 1,63,-1
 202 270 l 1,64,-1
 302 317 l 2,65,66
 305 318 305 318 307 318 c 0,36,37
EndSplineSet
EndChar

StartChar: dblp-square
Encoding: 59711 59711 36
Width: 448
GlyphClass: 1
Flags: W
LayerCount: 2
Fore
SplineSet
48 416 m 2,0,-1
 400 416 l 2,1,2
 420 416 420 416 434 402 c 128,-1,3
 448 388 448 388 448 368 c 2,4,-1
 448 16 l 2,5,6
 448 -4 448 -4 434 -18 c 128,-1,7
 420 -32 420 -32 400 -32 c 2,8,-1
 48 -32 l 2,9,10
 28 -32 28 -32 14 -18 c 128,-1,11
 0 -4 0 -4 0 16 c 2,12,-1
 0 368 l 2,13,14
 0 388 0 388 14 402 c 128,-1,15
 28 416 28 416 48 416 c 2,0,-1
106 352 m 0,16,17
 103 352 103 352 104 348 c 2,18,-1
 130 249 l 1,19,-1
 105 237 l 2,20,21
 104 237 104 237 103 236 c 128,-1,22
 102 235 102 235 100.5 232 c 128,-1,23
 99 229 99 229 100 226 c 2,24,-1
 133 104 l 1,25,26
 133 104 133 104 137 99 c 0,27,28
 139 98 139 98 142 100 c 2,29,-1
 225 138 l 1,30,-1
 242 146 l 2,31,32
 243 146 243 146 244 147 c 128,-1,33
 245 148 245 148 246.5 150.5 c 128,-1,34
 248 153 248 153 247 156 c 0,35,36
 247 157 247 157 247 157 c 1,37,-1
 232 213 l 1,38,-1
 223 246 l 1,39,40
 223 246 223 246 214 280 c 0,41,42
 212 288 212 288 203 293 c 2,43,-1
 111 350 l 2,44,45
 108 352 108 352 106 352 c 0,16,17
309 285 m 0,46,47
 308 285 308 285 306 284 c 2,48,-1
 231 250 l 1,49,-1
 243 207 l 1,50,-1
 257 153 l 1,51,52
 257 153 257 153 257 152 c 0,53,54
 258 149 258 149 256.5 146.5 c 128,-1,55
 255 144 255 144 253 143 c 2,56,-1
 252 141 l 1,57,-1
 227 130 l 1,58,-1
 233 105 l 1,59,-1
 234 104 l 1,60,61
 236 96 236 96 245 91 c 2,62,-1
 337 34 l 1,63,64
 337 34 337 34 344 32 c 1,65,-1
 344 36 l 1,66,67
 340 53 340 53 338 61 c 128,-1,68
 336 69 336 69 335.5 70.5 c 128,-1,69
 335 72 335 72 334 74.5 c 128,-1,70
 333 77 333 77 332 80.5 c 128,-1,71
 331 84 331 84 327.5 98 c 128,-1,72
 324 112 324 112 318 135 c 1,73,-1
 343 147 l 2,74,75
 346 147 346 147 348 153 c 0,76,77
 349 155 349 155 348 158 c 2,78,-1
 315 280 l 2,79,80
 314 285 314 285 309 285 c 0,46,47
EndSplineSet
EndChar

StartChar: depsy
Encoding: 59770 59770 37
Width: 512
GlyphClass: 1
Flags: W
LayerCount: 2
Fore
SplineSet
394 398 m 1,0,1
 445 364 445 364 474.5 309.5 c 128,-1,2
 504 255 504 255 504 192 c 0,3,4
 504 89 504 89 431.5 16.5 c 128,-1,5
 359 -56 359 -56 256 -56 c 128,-1,6
 153 -56 153 -56 80.5 16.5 c 128,-1,7
 8 89 8 89 8 192 c 128,-1,8
 8 295 8 295 80.5 367.5 c 128,-1,9
 153 440 153 440 256 440 c 0,10,11
 307 440 307 440 354 420 c 1,12,-1
 318 420 l 1,13,-1
 318 270 l 1,14,15
 298 290 298 290 274 300.5 c 128,-1,16
 250 311 250 311 222 311 c 0,17,18
 163 311 163 311 121.5 266 c 128,-1,19
 80 221 80 221 80 151 c 0,20,21
 80 83 80 83 123 37.5 c 128,-1,22
 166 -8 166 -8 225 -8 c 0,23,24
 251 -8 251 -8 273.5 1.5 c 128,-1,25
 296 11 296 11 318 32 c 1,26,-1
 318 0 l 1,27,-1
 394 0 l 1,28,-1
 394 398 l 1,0,1
238 241 m 0,29,30
 274 241 274 241 297.5 216.5 c 128,-1,31
 321 192 321 192 321 152 c 256,32,33
 321 112 321 112 297.5 87 c 128,-1,34
 274 62 274 62 238 62 c 0,35,36
 204 62 204 62 180 87.5 c 128,-1,37
 156 113 156 113 156 152 c 256,38,39
 156 191 156 191 179.5 216 c 128,-1,40
 203 241 203 241 238 241 c 0,29,30
EndSplineSet
EndChar

StartChar: depsy-square
Encoding: 59723 59723 38
Width: 448
GlyphClass: 1
Flags: W
LayerCount: 2
Fore
SplineSet
48 416 m 2,0,-1
 400 416 l 2,1,2
 420 416 420 416 434 402 c 128,-1,3
 448 388 448 388 448 368 c 2,4,-1
 448 16 l 2,5,6
 448 -4 448 -4 434 -18 c 128,-1,7
 420 -32 420 -32 400 -32 c 2,8,-1
 48 -32 l 2,9,10
 28 -32 28 -32 14 -18 c 128,-1,11
 0 -4 0 -4 0 16 c 2,12,-1
 0 368 l 2,13,14
 0 388 0 388 14 402 c 128,-1,15
 28 416 28 416 48 416 c 2,0,-1
224 352 m 0,16,17
 158 352 158 352 111 305 c 128,-1,18
 64 258 64 258 64 192 c 128,-1,19
 64 126 64 126 111 79 c 128,-1,20
 158 32 158 32 224 32 c 128,-1,21
 290 32 290 32 337 79 c 128,-1,22
 384 126 384 126 384 192 c 0,23,24
 384 233 384 233 365 268 c 128,-1,25
 346 303 346 303 313 325 c 1,26,-1
 313 68 l 1,27,-1
 264 68 l 1,28,-1
 264 89 l 1,29,30
 250 75 250 75 235.5 69 c 128,-1,31
 221 63 221 63 204 63 c 0,32,33
 166 63 166 63 138.5 92.5 c 128,-1,34
 111 122 111 122 111 166 c 0,35,36
 111 211 111 211 137.5 240 c 128,-1,37
 164 269 164 269 202 269 c 0,38,39
 220 269 220 269 235.5 262 c 128,-1,40
 251 255 251 255 264 242 c 1,41,-1
 264 339 l 1,42,-1
 287 339 l 1,43,44
 257 352 257 352 224 352 c 0,16,17
212 223 m 0,45,46
 190 223 190 223 175 207 c 128,-1,47
 160 191 160 191 160 166 c 128,-1,48
 160 141 160 141 175 124.5 c 128,-1,49
 190 108 190 108 213 108 c 256,50,51
 236 108 236 108 251 124 c 128,-1,52
 266 140 266 140 266 166 c 256,53,54
 266 192 266 192 251 207.5 c 128,-1,55
 236 223 236 223 212 223 c 0,45,46
EndSplineSet
EndChar

StartChar: doi
Encoding: 59774 59774 39
Width: 512
GlyphClass: 1
Flags: W
LayerCount: 2
Fore
SplineSet
116 225 m 0,0,1
 130 225 130 225 142 214 c 0,2,3
 150 205 150 205 150 189 c 0,4,5
 150 175 150 175 139 164 c 0,6,7
 129 154 129 154 114 154 c 0,8,9
 101 154 101 154 91 166 c 0,10,11
 83 176 83 176 83 188 c 0,12,13
 83 202 83 202 91 211 c 0,14,15
 103 225 103 225 116 225 c 0,0,1
290 223 m 0,16,17
 304 223 304 223 313.5 213 c 128,-1,18
 323 203 323 203 323 189 c 128,-1,19
 323 175 323 175 313.5 165 c 128,-1,20
 304 155 304 155 290 155 c 0,21,22
 275 155 275 155 266 167 c 0,23,24
 258 177 258 177 258 189.5 c 128,-1,25
 258 202 258 202 266 211 c 0,26,27
 275 223 275 223 290 223 c 0,16,17
256 440 m 128,-1,29
 359 440 359 440 431.5 367.5 c 128,-1,30
 504 295 504 295 504 192 c 128,-1,31
 504 89 504 89 431.5 16.5 c 128,-1,32
 359 -56 359 -56 256 -56 c 128,-1,33
 153 -56 153 -56 80.5 16.5 c 128,-1,34
 8 89 8 89 8 192 c 128,-1,35
 8 295 8 295 80.5 367.5 c 128,-1,28
 153 440 153 440 256 440 c 128,-1,29
197 116 m 1,36,-1
 197 346 l 1,37,-1
 151 346 l 1,38,-1
 151 247 l 1,39,40
 144 255 144 255 132 260 c 0,41,42
 122 266 122 266 102 266 c 0,43,44
 79 266 79 266 56 245 c 0,45,46
 31 224 31 224 31 189 c 0,47,48
 31 151 31 151 55 130 c 0,49,50
 74 113 74 113 101 113 c 0,51,52
 117 113 117 113 131 120 c 0,53,54
 147 129 147 129 151 135 c 1,55,-1
 151 116 l 1,56,-1
 197 116 l 1,36,-1
354 137 m 0,57,58
 373 159 373 159 373 189 c 256,59,60
 373 219 373 219 354 241 c 0,61,62
 331 268 331 268 292 268 c 0,63,64
 249 268 249 268 226 241 c 0,65,66
 207 219 207 219 207 191 c 0,67,68
 207 159 207 159 226 137 c 0,69,70
 249 111 249 111 290 111 c 128,-1,71
 331 111 331 111 354 137 c 0,57,58
393 337 m 128,-1,73
 385 329 385 329 385 317.5 c 128,-1,74
 385 306 385 306 393 298 c 128,-1,75
 401 290 401 290 412.5 290 c 128,-1,76
 424 290 424 290 432 298 c 128,-1,77
 440 306 440 306 440 317.5 c 128,-1,78
 440 329 440 329 432 337 c 128,-1,79
 424 345 424 345 412.5 345 c 128,-1,72
 401 345 401 345 393 337 c 128,-1,73
437 116 m 1,80,-1
 437 262 l 1,81,-1
 388 262 l 1,82,-1
 388 116 l 1,83,-1
 437 116 l 1,80,-1
EndSplineSet
EndChar

StartChar: doi-square
Encoding: 59791 59791 40
Width: 448
GlyphClass: 1
Flags: W
LayerCount: 2
Fore
SplineSet
48 416 m 2,0,-1
 400 416 l 2,1,2
 420 416 420 416 434 402 c 128,-1,3
 448 388 448 388 448 368 c 2,4,-1
 448 16 l 2,5,6
 448 -4 448 -4 434 -18 c 128,-1,7
 420 -32 420 -32 400 -32 c 2,8,-1
 48 -32 l 2,9,10
 28 -32 28 -32 14 -18 c 128,-1,11
 0 -4 0 -4 0 16 c 2,12,-1
 0 368 l 2,13,14
 0 388 0 388 14 402 c 128,-1,15
 28 416 28 416 48 416 c 2,0,-1
224 352 m 128,-1,17
 158 352 158 352 111 305 c 128,-1,18
 64 258 64 258 64 192 c 128,-1,19
 64 126 64 126 111 79 c 128,-1,20
 158 32 158 32 224 32 c 128,-1,21
 290 32 290 32 337 79 c 128,-1,22
 384 126 384 126 384 192 c 128,-1,23
 384 258 384 258 337 305 c 128,-1,16
 290 352 290 352 224 352 c 128,-1,17
156 291 m 1,24,-1
 186 291 l 1,25,-1
 186 143 l 1,26,-1
 156 143 l 1,27,-1
 156 155 l 1,28,29
 154 152 154 152 143 146 c 0,30,31
 134 141 134 141 124 141 c 0,32,33
 107 141 107 141 94 152 c 0,34,35
 79 165 79 165 79 190 c 0,36,37
 79 213 79 213 95 226 c 0,38,39
 110 239 110 239 124 239 c 0,40,41
 137 239 137 239 144 236 c 256,42,43
 151 233 151 233 156 228 c 1,44,-1
 156 291 l 1,24,-1
325 290 m 128,-1,46
 332 290 332 290 337.5 285 c 128,-1,47
 343 280 343 280 343 272.5 c 128,-1,48
 343 265 343 265 338 260 c 128,-1,49
 333 255 333 255 325.5 255 c 128,-1,50
 318 255 318 255 312.5 260 c 128,-1,51
 307 265 307 265 307 272.5 c 128,-1,52
 307 280 307 280 312.5 285 c 128,-1,45
 318 290 318 290 325 290 c 128,-1,46
247 241 m 0,53,54
 272 241 272 241 287 224 c 0,55,56
 300 210 300 210 300 190 c 0,57,58
 300 171 300 171 287 157 c 0,59,60
 273 140 273 140 246 140 c 128,-1,61
 219 140 219 140 205 157 c 0,62,63
 192 171 192 171 192 191 c 0,64,65
 192 209 192 209 205 224 c 0,66,67
 220 241 220 241 247 241 c 0,53,54
309 237 m 1,68,-1
 341 237 l 1,69,-1
 341 143 l 1,70,-1
 309 143 l 1,71,-1
 309 237 l 1,68,-1
133 214 m 0,72,73
 125 214 125 214 117 204 c 0,74,75
 112 199 112 199 112 190 c 256,76,77
 112 181 112 181 118 175 c 0,78,79
 124 167 124 167 132 167 c 0,80,81
 142 167 142 167 148 174 c 0,82,83
 156 181 156 181 156 190 c 0,84,85
 156 201 156 201 150 206 c 0,86,87
 143 214 143 214 133 214 c 0,72,73
246 212 m 0,88,89
 236 212 236 212 230 204 c 0,90,91
 225 198 225 198 225 190 c 128,-1,92
 225 182 225 182 230 176 c 0,93,94
 236 168 236 168 246 168 c 0,95,96
 255 168 255 168 261 174.5 c 128,-1,97
 267 181 267 181 267 190 c 128,-1,98
 267 199 267 199 261 205.5 c 128,-1,99
 255 212 255 212 246 212 c 0,88,89
EndSplineSet
EndChar

StartChar: dryad
Encoding: 59772 59772 41
Width: 512
GlyphClass: 1
Flags: W
LayerCount: 2
Fore
SplineSet
426 67 m 1,0,1
 349 74 349 74 348 84 c 0,2,3
 348 91 348 91 354 97.5 c 128,-1,4
 360 104 360 104 365 107 c 128,-1,5
 370 110 370 110 382 117 c 0,6,7
 427 143 427 143 444 186 c 0,8,9
 448 196 448 196 450 202 c 1,10,11
 419 164 419 164 352 112 c 0,12,13
 343 104 343 104 314 94 c 0,14,15
 311 92 311 92 305 92 c 128,-1,16
 299 92 299 92 298 94 c 0,17,18
 294 102 294 102 298 113 c 0,19,20
 300 118 300 118 310.5 141 c 128,-1,21
 321 164 321 164 324 177 c 0,22,23
 332 209 332 209 337 269 c 0,24,25
 338 279 338 279 340 372 c 0,26,27
 340 386 340 386 338 393 c 1,28,29
 335 390 335 390 333.5 385 c 128,-1,30
 332 380 332 380 332 377 c 2,31,-1
 332 374 l 2,32,33
 329 361 329 361 327.5 340.5 c 128,-1,34
 326 320 326 320 325 308.5 c 128,-1,35
 324 297 324 297 321 297 c 0,36,37
 317 298 317 298 310.5 316.5 c 128,-1,38
 304 335 304 335 299.5 361.5 c 128,-1,39
 295 388 295 388 298 406 c 1,40,41
 280 395 280 395 293 346 c 0,42,43
 301 318 301 318 309 298 c 0,44,45
 311 292 311 292 312 285 c 128,-1,46
 313 278 313 278 313 273 c 128,-1,47
 313 268 313 268 312.5 259.5 c 128,-1,48
 312 251 312 251 312 247 c 0,49,50
 312 236 312 236 306 214 c 0,51,52
 301 193 301 193 285 206 c 0,53,54
 266 222 266 222 252 242 c 0,55,56
 206 311 206 311 200 370 c 1,57,58
 200 370 200 370 196 388 c 1,59,60
 193 380 193 380 191.5 372.5 c 128,-1,61
 190 365 190 365 190.5 361.5 c 128,-1,62
 191 358 191 358 192 350 c 128,-1,63
 193 342 193 342 193 340 c 0,64,65
 196 315 196 315 207.5 288.5 c 128,-1,66
 219 262 219 262 229 246 c 128,-1,67
 239 230 239 230 259 202 c 0,68,69
 281 170 281 170 269 135 c 0,70,71
 253 91 253 91 209 107 c 0,72,73
 168 122 168 122 154 182 c 0,74,75
 148 204 148 204 141 292 c 0,76,77
 138 332 138 332 126 334 c 1,78,79
 127 329 127 329 130 313.5 c 128,-1,80
 133 298 133 298 134 291 c 0,81,82
 138 262 138 262 133 227 c 0,83,84
 133 222 133 222 130 218 c 128,-1,85
 127 214 127 214 125 216 c 0,86,87
 102 229 102 229 94 290 c 1,88,89
 86 280 86 280 94.5 251.5 c 128,-1,90
 103 223 103 223 123 197 c 0,91,92
 128 192 128 192 144 160 c 0,93,94
 153 143 153 143 140.5 130.5 c 128,-1,95
 128 118 128 118 108 123 c 0,96,97
 105 124 105 124 97 127 c 128,-1,98
 89 130 89 130 84 131 c 1,99,100
 86 128 86 128 88.5 126 c 128,-1,101
 91 124 91 124 93 122.5 c 128,-1,102
 95 121 95 121 98 119.5 c 128,-1,103
 101 118 101 118 102.5 117.5 c 128,-1,104
 104 117 104 117 107.5 116.5 c 128,-1,105
 111 116 111 116 112.5 115.5 c 128,-1,106
 114 115 114 115 117.5 114.5 c 128,-1,107
 121 114 121 114 122 114 c 0,108,109
 127 114 127 114 157 114 c 0,110,111
 166 114 166 114 174.5 108 c 128,-1,112
 183 102 183 102 185.5 98.5 c 128,-1,113
 188 95 188 95 197 84 c 0,114,115
 231 38 231 38 211 -31 c 0,116,117
 210 -34 210 -34 209 -39 c 128,-1,118
 208 -44 208 -44 207 -46 c 0,119,120
 207 -47 207 -47 205 -51 c 1,121,122
 105 -28 105 -28 51.5 50 c 128,-1,123
 -2 128 -2 128 10 218 c 0,124,125
 17 275 17 275 44 320.5 c 128,-1,126
 71 366 71 366 108.5 392.5 c 128,-1,127
 146 419 146 419 189.5 431 c 128,-1,128
 233 443 233 443 276 439 c 0,129,130
 334 433 334 433 380.5 406.5 c 128,-1,131
 427 380 427 380 454 343 c 128,-1,132
 481 306 481 306 494 262.5 c 128,-1,133
 507 219 507 219 503 175 c 0,134,135
 498 118 498 118 473.5 72 c 128,-1,136
 449 26 449 26 413.5 -1 c 128,-1,137
 378 -28 378 -28 338 -42 c 128,-1,138
 298 -56 298 -56 259 -56 c 1,139,140
 265 12 265 12 289 44 c 0,141,142
 306 68 306 68 342 64 c 0,143,144
 384 59 384 59 393 59 c 0,145,146
 414 60 414 60 426 67 c 1,0,1
EndSplineSet
EndChar

StartChar: dryad-square
Encoding: 59788 59788 42
Width: 448
GlyphClass: 1
Flags: W
LayerCount: 2
Fore
SplineSet
48 416 m 2,0,-1
 400 416 l 2,1,2
 420 416 420 416 434 402 c 128,-1,3
 448 388 448 388 448 368 c 2,4,-1
 448 16 l 2,5,6
 448 -4 448 -4 434 -18 c 128,-1,7
 420 -32 420 -32 400 -32 c 2,8,-1
 48 -32 l 2,9,10
 28 -32 28 -32 14 -18 c 128,-1,11
 0 -4 0 -4 0 16 c 2,12,-1
 0 368 l 2,13,14
 0 388 0 388 14 402 c 128,-1,15
 28 416 28 416 48 416 c 2,0,-1
223 352 m 0,16,17
 187 352 187 352 154 337 c 128,-1,18
 121 322 121 322 96 288.5 c 128,-1,19
 71 255 71 255 65 208 c 0,20,21
 58 151 58 151 92 100.5 c 128,-1,22
 126 50 126 50 191 35 c 0,23,24
 192 38 192 38 192 38 c 2,25,26
 193 40 193 40 193.5 41.5 c 128,-1,27
 194 43 194 43 194 45 c 128,-1,28
 194 47 194 47 195 48 c 0,29,30
 208 92 208 92 186 122 c 0,31,32
 171 142 171 142 160 142 c 0,33,34
 141 142 141 142 138 142 c 0,35,36
 119 144 119 144 113 153 c 1,37,38
 116 152 116 152 121 150 c 128,-1,39
 126 148 126 148 128 148 c 0,40,41
 141 144 141 144 149.5 152.5 c 128,-1,42
 158 161 158 161 152 171 c 0,43,44
 141 192 141 192 138 195 c 0,45,46
 130 206 130 206 124 219 c 128,-1,47
 118 232 118 232 117.5 241 c 128,-1,48
 117 250 117 250 120 255 c 1,49,50
 124 216 124 216 139 207 c 0,51,52
 141 206 141 206 142.5 208.5 c 128,-1,53
 144 211 144 211 145 215 c 0,54,55
 148 237 148 237 145 256 c 0,56,57
 145 260 145 260 143 270.5 c 128,-1,58
 141 281 141 281 140 284 c 1,59,60
 148 282 148 282 150 256 c 0,61,62
 154 200 154 200 158 186 c 0,63,64
 168 147 168 147 194 137 c 0,65,66
 222 127 222 127 232 155 c 0,67,68
 240 178 240 178 226 198 c 0,69,70
 216 212 216 212 211 219.5 c 128,-1,71
 206 227 206 227 199 239.5 c 128,-1,72
 192 252 192 252 188.5 263.5 c 128,-1,73
 185 275 185 275 183 287 c 0,74,75
 181 309 181 309 185 318 c 1,76,77
 188 307 188 307 188 307 c 1,78,79
 191 269 191 269 221 224 c 0,80,81
 230 211 230 211 242 201 c 0,82,83
 253 192 253 192 256 206 c 0,84,85
 260 221 260 221 260 227 c 0,86,87
 261 254 261 254 258 260 c 0,88,89
 253 273 253 273 248 291 c 0,90,91
 239 323 239 323 251 330 c 1,92,93
 249 318 249 318 252 301 c 128,-1,94
 255 284 255 284 259.5 272.5 c 128,-1,95
 264 261 264 261 266 260 c 0,96,97
 268 260 268 260 268.5 267 c 128,-1,98
 269 274 269 274 270 287.5 c 128,-1,99
 271 301 271 301 273 309 c 0,100,101
 273 317 273 317 277 322 c 1,102,103
 278 317 278 317 278 308 c 0,104,105
 277 248 277 248 276 242 c 0,106,107
 273 203 273 203 268 182 c 0,108,109
 267 177 267 177 264.5 171.5 c 128,-1,110
 262 166 262 166 260 161.5 c 128,-1,111
 258 157 258 157 255.5 151 c 128,-1,112
 253 145 253 145 251 141 c 0,113,114
 248 134 248 134 251 129 c 0,115,116
 252 128 252 128 255.5 128 c 128,-1,117
 259 128 259 128 262 129 c 0,118,119
 280 135 280 135 286 140 c 0,120,121
 329 174 329 174 349 198 c 1,122,123
 348 194 348 194 345 188 c 0,124,125
 334 161 334 161 305 144 c 0,126,127
 284 131 284 131 283 122 c 0,128,129
 284 116 284 116 334 111 c 1,130,131
 326 107 326 107 313 106 c 0,132,133
 307 106 307 106 280 109 c 0,134,135
 256 112 256 112 245 96 c 0,136,137
 230 76 230 76 226 32 c 1,138,139
 261 32 261 32 294 47 c 128,-1,140
 327 62 327 62 353 97 c 128,-1,141
 379 132 379 132 383 181 c 0,142,143
 387 219 387 219 372.5 255 c 128,-1,144
 358 291 358 291 322.5 318.5 c 128,-1,145
 287 346 287 346 237 351 c 0,146,147
 230 352 230 352 223 352 c 0,16,17
EndSplineSet
EndChar

StartChar: figshare
Encoding: 59777 59777 43
Width: 512
GlyphClass: 1
Flags: W
LayerCount: 2
Fore
SplineSet
122 355 m 0,0,1
 114 355 114 355 107.5 361.5 c 128,-1,2
 101 368 101 368 101 376.5 c 128,-1,3
 101 385 101 385 107.5 391 c 128,-1,4
 114 397 114 397 122 397 c 0,5,6
 131 397 131 397 137 391 c 128,-1,7
 143 385 143 385 143 376 c 128,-1,8
 143 367 143 367 137 361 c 128,-1,9
 131 355 131 355 122 355 c 0,0,1
472 143 m 128,-1,11
 481 143 481 143 487 137 c 128,-1,12
 493 131 493 131 493 122 c 256,13,14
 493 113 493 113 486.5 107 c 128,-1,15
 480 101 480 101 471.5 101 c 128,-1,16
 463 101 463 101 457 107 c 128,-1,17
 451 113 451 113 451 122 c 0,18,19
 451 130 451 130 457 136.5 c 128,-1,10
 463 143 463 143 472 143 c 128,-1,11
389.5 355 m 128,-1,21
 381 355 381 355 374.5 361 c 128,-1,22
 368 367 368 367 368 376 c 0,23,24
 368 381 368 381 371 386 c 128,-1,25
 374 391 374 391 379 394 c 128,-1,26
 384 397 384 397 389 397 c 0,27,28
 395 397 395 397 400 394.5 c 128,-1,29
 405 392 405 392 407.5 387 c 128,-1,30
 410 382 410 382 410 376 c 0,31,32
 410 367 410 367 404 361 c 128,-1,20
 398 355 398 355 389.5 355 c 128,-1,21
256 -14 m 256,33,34
 265 -14 265 -14 271 -20 c 128,-1,35
 277 -26 277 -26 277 -35 c 128,-1,36
 277 -44 277 -44 270.5 -50 c 128,-1,37
 264 -56 264 -56 255.5 -56 c 128,-1,38
 247 -56 247 -56 241 -49.5 c 128,-1,39
 235 -43 235 -43 235 -35 c 128,-1,40
 235 -27 235 -27 241 -20.5 c 128,-1,41
 247 -14 247 -14 256 -14 c 256,33,34
326 -3 m 0,42,43
 335 -3 335 -3 341 -9 c 128,-1,44
 347 -15 347 -15 347 -23.5 c 128,-1,45
 347 -32 347 -32 341 -38.5 c 128,-1,46
 335 -45 335 -45 326 -45 c 0,47,48
 318 -45 318 -45 311.5 -38.5 c 128,-1,49
 305 -32 305 -32 305 -24 c 0,50,51
 305 -18 305 -18 308 -13.5 c 128,-1,52
 311 -9 311 -9 315.5 -6 c 128,-1,53
 320 -3 320 -3 326 -3 c 0,42,43
483 213 m 0,54,55
 489 213 489 213 494 210 c 128,-1,56
 499 207 499 207 501.5 202.5 c 128,-1,57
 504 198 504 198 504 192.5 c 128,-1,58
 504 187 504 187 501 182 c 128,-1,59
 498 177 498 177 493.5 174 c 128,-1,60
 489 171 489 171 483 171 c 0,61,62
 475 171 475 171 468.5 177.5 c 128,-1,63
 462 184 462 184 462 192.5 c 128,-1,64
 462 201 462 201 468.5 207 c 128,-1,65
 475 213 475 213 483 213 c 0,54,55
72 79 m 0,66,67
 78 79 78 79 82.5 76.5 c 128,-1,68
 87 74 87 74 90 69 c 128,-1,69
 93 64 93 64 93 59 c 0,70,71
 93 50 93 50 87 44 c 128,-1,72
 81 38 81 38 72 38 c 0,73,74
 64 38 64 38 57.5 44 c 128,-1,75
 51 50 51 50 51 59 c 128,-1,76
 51 68 51 68 57 74 c 128,-1,77
 63 80 63 80 72 79 c 0,66,67
71.5 304.5 m 128,-1,79
 63 305 63 305 57 311 c 128,-1,80
 51 317 51 317 51 326 c 128,-1,81
 51 335 51 335 57 340.5 c 128,-1,82
 63 346 63 346 72 346 c 128,-1,83
 81 346 81 346 87 340 c 128,-1,84
 93 334 93 334 93 325.5 c 128,-1,85
 93 317 93 317 86.5 310.5 c 128,-1,78
 80 304 80 304 71.5 304.5 c 128,-1,79
326 387 m 0,86,87
 321 387 321 387 316 390 c 128,-1,88
 311 393 311 393 308 397.5 c 128,-1,89
 305 402 305 402 305 407.5 c 128,-1,90
 305 413 305 413 308 418 c 128,-1,91
 311 423 311 423 315.5 426 c 128,-1,92
 320 429 320 429 326 429 c 0,93,94
 331 429 331 429 336 426.5 c 128,-1,95
 341 424 341 424 344 419 c 128,-1,96
 347 414 347 414 347 408 c 0,97,98
 347 404 347 404 345.5 400 c 128,-1,99
 344 396 344 396 341 393 c 128,-1,100
 338 390 338 390 334 388.5 c 128,-1,101
 330 387 330 387 326 387 c 0,86,87
61 121.5 m 128,-1,103
 61 113 61 113 54.5 107 c 128,-1,104
 48 101 48 101 39.5 101 c 128,-1,105
 31 101 31 101 25 107.5 c 128,-1,106
 19 114 19 114 19 122 c 0,107,108
 19 131 19 131 25 137 c 128,-1,109
 31 143 31 143 40 143 c 128,-1,110
 49 143 49 143 55 136.5 c 128,-1,102
 61 130 61 130 61 121.5 c 128,-1,103
439.5 305 m 128,-1,112
 431 305 431 305 425 311 c 128,-1,113
 419 317 419 317 419 325.5 c 128,-1,114
 419 334 419 334 425 340 c 128,-1,115
 431 346 431 346 440 346 c 128,-1,116
 449 346 449 346 455 340 c 128,-1,117
 461 334 461 334 461 325.5 c 128,-1,118
 461 317 461 317 454.5 311 c 128,-1,111
 448 305 448 305 439.5 305 c 128,-1,112
49 192 m 0,119,120
 49 188 49 188 47.5 184 c 128,-1,121
 46 180 46 180 43.5 177.5 c 128,-1,122
 41 175 41 175 37 173 c 128,-1,123
 33 171 33 171 29 171 c 0,124,125
 20 171 20 171 14 177 c 128,-1,126
 8 183 8 183 8 192 c 128,-1,127
 8 201 8 201 14 207 c 128,-1,128
 20 213 20 213 28.5 213 c 128,-1,129
 37 213 37 213 43 207 c 128,-1,130
 49 201 49 201 49 192 c 0,119,120
255.5 398 m 128,-1,132
 247 398 247 398 241 404.5 c 128,-1,133
 235 411 235 411 235 419.5 c 128,-1,134
 235 428 235 428 241.5 434 c 128,-1,135
 248 440 248 440 256.5 440 c 128,-1,136
 265 440 265 440 271 434 c 128,-1,137
 277 428 277 428 277 419 c 128,-1,138
 277 410 277 410 270.5 404 c 128,-1,131
 264 398 264 398 255.5 398 c 128,-1,132
440 79 m 0,139,140
 445 79 445 79 450 76.5 c 128,-1,141
 455 74 455 74 458 69.5 c 128,-1,142
 461 65 461 65 461 59 c 0,143,144
 461 50 461 50 454.5 44 c 128,-1,145
 448 38 448 38 440 38 c 128,-1,146
 432 38 432 38 425.5 44 c 128,-1,147
 419 50 419 50 419 58.5 c 128,-1,148
 419 67 419 67 425 73 c 128,-1,149
 431 79 431 79 440 79 c 0,139,140
451 262.5 m 128,-1,151
 451 271 451 271 457.5 277 c 128,-1,152
 464 283 464 283 472.5 283 c 128,-1,153
 481 283 481 283 487 277 c 128,-1,154
 493 271 493 271 493 262.5 c 128,-1,155
 493 254 493 254 486.5 247.5 c 128,-1,156
 480 241 480 241 471.5 241.5 c 128,-1,157
 463 242 463 242 457 248 c 128,-1,150
 451 254 451 254 451 262.5 c 128,-1,151
40 241 m 128,-1,159
 31 241 31 241 25 247.5 c 128,-1,160
 19 254 19 254 19 262 c 0,161,162
 19 268 19 268 22 273 c 128,-1,163
 25 278 25 278 29.5 280.5 c 128,-1,164
 34 283 34 283 40 283 c 0,165,166
 48 283 48 283 54 277 c 128,-1,167
 60 271 60 271 60 262.5 c 128,-1,168
 60 254 60 254 54.5 247.5 c 128,-1,158
 49 241 49 241 40 241 c 128,-1,159
186 387 m 0,169,170
 180 387 180 387 175.5 390 c 128,-1,171
 171 393 171 393 168 397.5 c 128,-1,172
 165 402 165 402 165 408 c 0,173,174
 165 417 165 417 171 423 c 128,-1,175
 177 429 177 429 185.5 429 c 128,-1,176
 194 429 194 429 200 423 c 128,-1,177
 206 417 206 417 206 408.5 c 128,-1,178
 206 400 206 400 200 393.5 c 128,-1,179
 194 387 194 387 186 387 c 0,169,170
122.5 29 m 128,-1,181
 131 29 131 29 137 23 c 128,-1,182
 143 17 143 17 143 9 c 0,183,184
 143 3 143 3 140.5 -2 c 128,-1,185
 138 -7 138 -7 133 -9.5 c 128,-1,186
 128 -12 128 -12 122.5 -12 c 128,-1,187
 117 -12 117 -12 112 -9.5 c 128,-1,188
 107 -7 107 -7 104.5 -2 c 128,-1,189
 102 3 102 3 101 8 c 0,190,191
 101 17 101 17 107.5 23 c 128,-1,180
 114 29 114 29 122.5 29 c 128,-1,181
389.5 29 m 128,-1,193
 398 29 398 29 404 23 c 128,-1,194
 410 17 410 17 410 8.5 c 128,-1,195
 410 0 410 0 404 -6 c 128,-1,196
 398 -12 398 -12 389.5 -12 c 128,-1,197
 381 -12 381 -12 375 -6 c 128,-1,198
 369 0 369 0 369 8.5 c 128,-1,199
 369 17 369 17 375 23 c 128,-1,192
 381 29 381 29 389.5 29 c 128,-1,193
186 -3 m 128,-1,201
 195 -3 195 -3 201 -9 c 128,-1,202
 207 -15 207 -15 206.5 -24 c 128,-1,203
 206 -33 206 -33 200 -39 c 128,-1,204
 194 -45 194 -45 185.5 -44.5 c 128,-1,205
 177 -44 177 -44 171 -38 c 128,-1,206
 165 -32 165 -32 165 -23.5 c 128,-1,207
 165 -15 165 -15 171 -9 c 128,-1,200
 177 -3 177 -3 186 -3 c 128,-1,201
325 362.5 m 128,-1,209
 325 370 325 370 330.5 375.5 c 128,-1,210
 336 381 336 381 343 381 c 128,-1,211
 350 381 350 381 355.5 375.5 c 128,-1,212
 361 370 361 370 361 363 c 256,213,214
 361 356 361 356 355.5 350.5 c 128,-1,215
 350 345 350 345 343 345 c 256,216,217
 336 345 336 345 330.5 350 c 128,-1,208
 325 355 325 355 325 362.5 c 128,-1,209
85 123 m 128,-1,219
 93 123 93 123 98 118 c 128,-1,220
 103 113 103 113 103 105.5 c 128,-1,221
 103 98 103 98 97.5 92.5 c 128,-1,222
 92 87 92 87 85 87.5 c 128,-1,223
 78 88 78 88 73 93 c 128,-1,224
 68 98 68 98 68 105.5 c 128,-1,225
 68 113 68 113 72.5 118 c 128,-1,218
 77 123 77 123 85 123 c 128,-1,219
120.5 345 m 128,-1,227
 125 345 125 345 129 343 c 128,-1,228
 133 341 133 341 135.5 336.5 c 128,-1,229
 138 332 138 332 138 328 c 0,230,231
 138 320 138 320 133 315 c 128,-1,232
 128 310 128 310 120.5 310 c 128,-1,233
 113 310 113 310 107.5 315.5 c 128,-1,234
 102 321 102 321 102 328 c 0,235,236
 103 333 103 333 105 337 c 128,-1,237
 107 341 107 341 111.5 343 c 128,-1,226
 116 345 116 345 120.5 345 c 128,-1,227
445.5 240 m 128,-1,239
 453 240 453 240 458 234.5 c 128,-1,240
 463 229 463 229 463 222 c 128,-1,241
 463 215 463 215 457.5 209.5 c 128,-1,242
 452 204 452 204 445 204 c 128,-1,243
 438 204 438 204 433 209.5 c 128,-1,244
 428 215 428 215 428 222 c 128,-1,245
 428 229 428 229 433 234.5 c 128,-1,238
 438 240 438 240 445.5 240 c 128,-1,239
120.5 39 m 128,-1,247
 113 39 113 39 108 44.5 c 128,-1,248
 103 50 103 50 103 57 c 128,-1,249
 103 64 103 64 108 69 c 128,-1,250
 113 74 113 74 120.5 74 c 128,-1,251
 128 74 128 74 133 69 c 128,-1,252
 138 64 138 64 138 57 c 128,-1,253
 138 50 138 50 133 44.5 c 128,-1,246
 128 39 128 39 120.5 39 c 128,-1,247
445 145 m 0,254,255
 441 145 441 145 436.5 147 c 128,-1,256
 432 149 432 149 430 153 c 128,-1,257
 428 157 428 157 427 162 c 0,258,259
 427 169 427 169 432.5 174.5 c 128,-1,260
 438 180 438 180 446 180 c 0,261,262
 449 180 449 180 452.5 178.5 c 128,-1,263
 456 177 456 177 458 174.5 c 128,-1,264
 460 172 460 172 461.5 169 c 128,-1,265
 463 166 463 166 463 162 c 0,266,267
 463 155 463 155 458 150 c 128,-1,268
 453 145 453 145 445 145 c 0,254,255
286 21 m 0,269,270
 293 21 293 21 298.5 15.5 c 128,-1,271
 304 10 304 10 304 2.5 c 128,-1,272
 304 -5 304 -5 298.5 -10 c 128,-1,273
 293 -15 293 -15 285.5 -15 c 128,-1,274
 278 -15 278 -15 273 -9.5 c 128,-1,275
 268 -4 268 -4 268 3 c 0,276,277
 268 6 268 6 269 8.5 c 128,-1,278
 270 11 270 11 271.5 13.5 c 128,-1,279
 273 16 273 16 275.5 17.5 c 128,-1,280
 278 19 278 19 280.5 20 c 128,-1,281
 283 21 283 21 286 21 c 0,269,270
268 381.5 m 128,-1,283
 268 389 268 389 273.5 394 c 128,-1,284
 279 399 279 399 286 399 c 128,-1,285
 293 399 293 399 298.5 393.5 c 128,-1,286
 304 388 304 388 304 381 c 128,-1,287
 304 374 304 374 298.5 369 c 128,-1,288
 293 364 293 364 286 364 c 128,-1,289
 279 364 279 364 273.5 369 c 128,-1,282
 268 374 268 374 268 381.5 c 128,-1,283
67.5 279 m 128,-1,291
 67 286 67 286 72.5 291.5 c 128,-1,292
 78 297 78 297 85 297 c 128,-1,293
 92 297 92 297 97.5 292 c 128,-1,294
 103 287 103 287 103 279.5 c 128,-1,295
 103 272 103 272 98 267 c 128,-1,296
 93 262 93 262 85.5 261.5 c 128,-1,297
 78 261 78 261 73 266.5 c 128,-1,290
 68 272 68 272 67.5 279 c 128,-1,291
444 106 m 0,298,299
 445 101 445 101 442.5 97 c 128,-1,300
 440 93 440 93 436 90.5 c 128,-1,301
 432 88 432 88 427 88 c 0,302,303
 420 88 420 88 414.5 93 c 128,-1,304
 409 98 409 98 409 105 c 128,-1,305
 409 112 409 112 414.5 117.5 c 128,-1,306
 420 123 420 123 427 123 c 256,307,308
 434 123 434 123 439 118 c 128,-1,309
 444 113 444 113 444 106 c 0,298,299
84 222 m 0,310,311
 84 215 84 215 79 209.5 c 128,-1,312
 74 204 74 204 66.5 204.5 c 128,-1,313
 59 205 59 205 54 210 c 128,-1,314
 49 215 49 215 49 222 c 0,315,316
 49 230 49 230 54 235 c 128,-1,317
 59 240 59 240 66 240 c 0,318,319
 70 240 70 240 73 238.5 c 128,-1,320
 76 237 76 237 78.5 234.5 c 128,-1,321
 81 232 81 232 82.5 229 c 128,-1,322
 84 226 84 226 84 222 c 0,310,311
342.5 39 m 128,-1,324
 350 39 350 39 355.5 34 c 128,-1,325
 361 29 361 29 361 21.5 c 128,-1,326
 361 14 361 14 356 9 c 128,-1,327
 351 4 351 4 343.5 4 c 128,-1,328
 336 4 336 4 330.5 9 c 128,-1,329
 325 14 325 14 325 21 c 128,-1,330
 325 28 325 28 330 33.5 c 128,-1,323
 335 39 335 39 342.5 39 c 128,-1,324
226 364 m 0,331,332
 221 364 221 364 217 366.5 c 128,-1,333
 213 369 213 369 210.5 373 c 128,-1,334
 208 377 208 377 209 382 c 0,335,336
 209 389 209 389 214 394 c 128,-1,337
 219 399 219 399 226 399 c 128,-1,338
 233 399 233 399 238 394 c 128,-1,339
 243 389 243 389 243 381.5 c 128,-1,340
 243 374 243 374 238 369 c 128,-1,341
 233 364 233 364 226 364 c 0,331,332
426.5 261.5 m 128,-1,343
 419 262 419 262 414 267 c 128,-1,344
 409 272 409 272 409 279 c 128,-1,345
 409 286 409 286 414.5 291.5 c 128,-1,346
 420 297 420 297 427 297 c 0,347,348
 432 297 432 297 436 294.5 c 128,-1,349
 440 292 440 292 442 288 c 128,-1,350
 444 284 444 284 444 279 c 0,351,352
 444 272 444 272 439 266.5 c 128,-1,342
 434 261 434 261 426.5 261.5 c 128,-1,343
391 39 m 128,-1,354
 384 39 384 39 379 44 c 128,-1,355
 374 49 374 49 374 56.5 c 128,-1,356
 374 64 374 64 379 69 c 128,-1,357
 384 74 384 74 391.5 74 c 128,-1,358
 399 74 399 74 404 69 c 128,-1,359
 409 64 409 64 409 56.5 c 128,-1,360
 409 49 409 49 403.5 44 c 128,-1,353
 398 39 398 39 391 39 c 128,-1,354
169 345 m 128,-1,362
 162 345 162 345 156.5 350.5 c 128,-1,363
 151 356 151 356 151 363 c 0,364,365
 151 368 151 368 153.5 372 c 128,-1,366
 156 376 156 376 160 378 c 128,-1,367
 164 380 164 380 168.5 380.5 c 128,-1,368
 173 381 173 381 177 378.5 c 128,-1,369
 181 376 181 376 183.5 372 c 128,-1,370
 186 368 186 368 186 363 c 0,371,372
 186 356 186 356 181 350.5 c 128,-1,361
 176 345 176 345 169 345 c 128,-1,362
66.5 145 m 128,-1,374
 59 145 59 145 54 150 c 128,-1,375
 49 155 49 155 49 163 c 0,376,377
 49 170 49 170 54 175 c 128,-1,378
 59 180 59 180 67 180 c 0,379,380
 74 180 74 180 79 174.5 c 128,-1,381
 84 169 84 169 84 162 c 128,-1,382
 84 155 84 155 79 150 c 128,-1,373
 74 145 74 145 66.5 145 c 128,-1,374
392 345 m 0,383,384
 397 345 397 345 401 342.5 c 128,-1,385
 405 340 405 340 407 336 c 128,-1,386
 409 332 409 332 409 328 c 0,387,388
 409 320 409 320 404 315 c 128,-1,389
 399 310 399 310 391.5 310 c 128,-1,390
 384 310 384 310 379 315 c 128,-1,391
 374 320 374 320 374 327.5 c 128,-1,392
 374 335 374 335 379.5 340 c 128,-1,393
 385 345 385 345 392 345 c 0,383,384
186 21.5 m 128,-1,395
 186 14 186 14 181 9 c 128,-1,396
 176 4 176 4 168.5 4 c 128,-1,397
 161 4 161 4 156 9 c 128,-1,398
 151 14 151 14 151 22 c 0,399,400
 152 29 152 29 157 34 c 128,-1,401
 162 39 162 39 169 39 c 128,-1,402
 176 39 176 39 181 34 c 128,-1,394
 186 29 186 29 186 21.5 c 128,-1,395
243 2.5 m 128,-1,404
 243 -5 243 -5 238 -10 c 128,-1,405
 233 -15 233 -15 226 -14 c 0,406,407
 218 -14 218 -14 213.5 -9 c 128,-1,408
 209 -4 209 -4 209 3 c 0,409,410
 208 10 208 10 213.5 15 c 128,-1,411
 219 20 219 20 226 20 c 128,-1,412
 233 20 233 20 238 15 c 128,-1,403
 243 10 243 10 243 2.5 c 128,-1,404
320 40 m 0,413,414
 320 34 320 34 315.5 29.5 c 128,-1,415
 311 25 311 25 305 25 c 0,416,417
 302 25 302 25 299.5 26.5 c 128,-1,418
 297 28 297 28 295 30 c 128,-1,419
 293 32 293 32 291.5 34.5 c 128,-1,420
 290 37 290 37 290 40 c 0,421,422
 290 46 290 46 294.5 50.5 c 128,-1,423
 299 55 299 55 305 55 c 0,424,425
 312 55 312 55 316 51 c 128,-1,426
 320 47 320 47 320 40 c 0,413,414
127 113 m 256,427,428
 133 113 133 113 137.5 108.5 c 128,-1,429
 142 104 142 104 142 98 c 128,-1,430
 142 92 142 92 137 87.5 c 128,-1,431
 132 83 132 83 126 83 c 128,-1,432
 120 83 120 83 116 88 c 128,-1,433
 112 93 112 93 112 99 c 256,434,435
 112 105 112 105 116.5 109 c 128,-1,436
 121 113 121 113 127 113 c 256,427,428
431 192 m 0,437,438
 430 188 430 188 428 184.5 c 128,-1,439
 426 181 426 181 422.5 179 c 128,-1,440
 419 177 419 177 415 177 c 0,441,442
 409 178 409 178 405 182.5 c 128,-1,443
 401 187 401 187 401 193 c 0,444,445
 402 207 402 207 417 207 c 0,446,447
 422 207 422 207 426.5 202.5 c 128,-1,448
 431 198 431 198 431 192 c 0,437,438
305.5 359 m 128,-1,450
 312 359 312 359 316 354.5 c 128,-1,451
 320 350 320 350 320 344 c 0,452,453
 320 340 320 340 318 336.5 c 128,-1,454
 316 333 316 333 312.5 331 c 128,-1,455
 309 329 309 329 305 329 c 0,456,457
 300 329 300 329 295 333.5 c 128,-1,458
 290 338 290 338 290 344 c 128,-1,459
 290 350 290 350 294.5 354.5 c 128,-1,449
 299 359 299 359 305.5 359 c 128,-1,450
112 286 m 256,460,461
 112 292 112 292 116 296.5 c 128,-1,462
 120 301 120 301 127 301 c 0,463,464
 133 301 133 301 137.5 296.5 c 128,-1,465
 142 292 142 292 142 286 c 128,-1,466
 142 280 142 280 137 275.5 c 128,-1,467
 132 271 132 271 126.5 271 c 128,-1,468
 121 271 121 271 116.5 275.5 c 128,-1,469
 112 280 112 280 112 286 c 256,460,461
393 242 m 0,470,471
 393 245 393 245 395 248.5 c 128,-1,472
 397 252 397 252 400.5 254 c 128,-1,473
 404 256 404 256 408 256 c 0,474,475
 414 256 414 256 418 252 c 128,-1,476
 422 248 422 248 422.5 242 c 128,-1,477
 423 236 423 236 418.5 231.5 c 128,-1,478
 414 227 414 227 408 227 c 128,-1,479
 402 227 402 227 397.5 231.5 c 128,-1,480
 393 236 393 236 393 242 c 0,470,471
350 78 m 0,481,482
 354 78 354 78 357.5 76 c 128,-1,483
 361 74 361 74 363 70.5 c 128,-1,484
 365 67 365 67 364 63 c 0,485,486
 364 56 364 56 360 52 c 128,-1,487
 356 48 356 48 350 48 c 0,488,489
 344 49 344 49 339.5 53 c 128,-1,490
 335 57 335 57 335 63 c 128,-1,491
 335 69 335 69 339.5 73.5 c 128,-1,492
 344 78 344 78 350 78 c 0,481,482
89 242 m 128,-1,494
 89 248 89 248 93.5 252 c 128,-1,495
 98 256 98 256 104 256 c 256,496,497
 110 256 110 256 114.5 252 c 128,-1,498
 119 248 119 248 119 241 c 0,499,500
 118 235 118 235 114 231 c 128,-1,501
 110 227 110 227 104 227 c 128,-1,502
 98 227 98 227 93.5 231.5 c 128,-1,493
 89 236 89 236 89 242 c 128,-1,494
177 63 m 256,503,504
 177 59 177 59 175 55.5 c 128,-1,505
 173 52 173 52 169.5 50 c 128,-1,506
 166 48 166 48 162 48 c 0,507,508
 156 49 156 49 151.5 53 c 128,-1,509
 147 57 147 57 147 63 c 128,-1,510
 147 69 147 69 151.5 73.5 c 128,-1,511
 156 78 156 78 162 78 c 0,512,513
 166 78 166 78 169.5 76 c 128,-1,514
 173 74 173 74 175 70.5 c 128,-1,515
 177 67 177 67 177 63 c 256,503,504
385 271 m 128,-1,517
 379 271 379 271 375 275.5 c 128,-1,518
 371 280 371 280 371 286 c 128,-1,519
 371 292 371 292 375 296 c 128,-1,520
 379 300 379 300 385 300.5 c 128,-1,521
 391 301 391 301 395.5 296.5 c 128,-1,522
 400 292 400 292 400 286 c 128,-1,523
 400 280 400 280 395.5 275.5 c 128,-1,516
 391 271 391 271 385 271 c 128,-1,517
400 98.5 m 128,-1,525
 400 93 400 93 395.5 88.5 c 128,-1,526
 391 84 391 84 385 84 c 128,-1,527
 379 84 379 84 375 88 c 128,-1,528
 371 92 371 92 371 98.5 c 128,-1,529
 371 105 371 105 375 109 c 128,-1,530
 379 113 379 113 385 113 c 128,-1,531
 391 113 391 113 395.5 108.5 c 128,-1,524
 400 104 400 104 400 98.5 c 128,-1,525
96 177.5 m 128,-1,533
 90 177 90 177 85.5 182 c 128,-1,534
 81 187 81 187 81 192 c 0,535,536
 82 195 82 195 83 198 c 128,-1,537
 84 201 84 201 86 202.5 c 128,-1,538
 88 204 88 204 90.5 205.5 c 128,-1,539
 93 207 93 207 96 207 c 0,540,541
 102 207 102 207 106.5 202.5 c 128,-1,542
 111 198 111 198 111 192 c 128,-1,543
 111 186 111 186 106.5 182 c 128,-1,532
 102 178 102 178 96 177.5 c 128,-1,533
350 336 m 128,-1,545
 356 336 356 336 360 331.5 c 128,-1,546
 364 327 364 327 364 321 c 0,547,548
 364 317 364 317 362.5 314 c 128,-1,549
 361 311 361 311 357.5 309 c 128,-1,550
 354 307 354 307 350 307 c 0,551,552
 344 307 344 307 339.5 311 c 128,-1,553
 335 315 335 315 335 321 c 256,554,555
 335 327 335 327 339.5 331.5 c 128,-1,544
 344 336 344 336 350 336 c 128,-1,545
162 307 m 0,556,557
 158 307 158 307 154.5 309 c 128,-1,558
 151 311 151 311 149 314 c 128,-1,559
 147 317 147 317 147 321 c 0,560,561
 147 327 147 327 151.5 331.5 c 128,-1,562
 156 336 156 336 162 336 c 128,-1,563
 168 336 168 336 172.5 331.5 c 128,-1,564
 177 327 177 327 176.5 321 c 128,-1,565
 176 315 176 315 172 311 c 128,-1,566
 168 307 168 307 162 307 c 0,556,557
256 18 m 128,-1,568
 250 18 250 18 245.5 22.5 c 128,-1,569
 241 27 241 27 241 33 c 128,-1,570
 241 39 241 39 245.5 43 c 128,-1,571
 250 47 250 47 256 47 c 128,-1,572
 262 47 262 47 266 43 c 128,-1,573
 270 39 270 39 270 32.5 c 128,-1,574
 270 26 270 26 266 22 c 128,-1,567
 262 18 262 18 256 18 c 128,-1,568
256 366 m 256,575,576
 262 366 262 366 266.5 362 c 128,-1,577
 271 358 271 358 271 351 c 0,578,579
 270 345 270 345 266 341 c 128,-1,580
 262 337 262 337 256 337 c 128,-1,581
 250 337 250 337 245.5 341.5 c 128,-1,582
 241 346 241 346 241 352 c 128,-1,583
 241 358 241 358 245.5 362 c 128,-1,584
 250 366 250 366 256 366 c 256,575,576
422.5 143 m 128,-1,586
 422 137 422 137 418 132.5 c 128,-1,587
 414 128 414 128 408 128 c 128,-1,588
 402 128 402 128 397.5 132.5 c 128,-1,589
 393 137 393 137 393 143 c 256,590,591
 393 149 393 149 397.5 153 c 128,-1,592
 402 157 402 157 408 157 c 128,-1,593
 414 157 414 157 418.5 153 c 128,-1,585
 423 149 423 149 422.5 143 c 128,-1,586
206 359 m 0,594,595
 212 359 212 359 216.5 355 c 128,-1,596
 221 351 221 351 221 344.5 c 128,-1,597
 221 338 221 338 217 333.5 c 128,-1,598
 213 329 213 329 207 329 c 256,599,600
 201 329 201 329 196.5 333.5 c 128,-1,601
 192 338 192 338 192 344 c 0,602,603
 192 347 192 347 193 349.5 c 128,-1,604
 194 352 194 352 196 354 c 128,-1,605
 198 356 198 356 200.5 357 c 128,-1,606
 203 358 203 358 206 359 c 0,594,595
104 128 m 0,607,608
 98 128 98 128 93.5 132.5 c 128,-1,609
 89 137 89 137 89 143 c 256,610,611
 89 149 89 149 93.5 153 c 128,-1,612
 98 157 98 157 104 157 c 128,-1,613
 110 157 110 157 114.5 153 c 128,-1,614
 119 149 119 149 118 143 c 0,615,616
 118 139 118 139 116.5 135.5 c 128,-1,617
 115 132 115 132 111.5 130 c 128,-1,618
 108 128 108 128 104 128 c 0,607,608
221 40 m 128,-1,620
 221 34 221 34 216.5 30 c 128,-1,621
 212 26 212 26 206.5 26 c 128,-1,622
 201 26 201 26 196.5 30.5 c 128,-1,623
 192 35 192 35 192 41 c 128,-1,624
 192 47 192 47 196.5 51 c 128,-1,625
 201 55 201 55 207 55 c 128,-1,626
 213 55 213 55 217 50.5 c 128,-1,619
 221 46 221 46 221 40 c 128,-1,620
162 86 m 128,-1,628
 157 86 157 86 153 89.5 c 128,-1,629
 149 93 149 93 149 98 c 128,-1,630
 149 103 149 103 153 107 c 128,-1,631
 157 111 157 111 162 110 c 0,632,633
 174 110 174 110 174 98 c 0,634,635
 174 93 174 93 170.5 89.5 c 128,-1,627
 167 86 167 86 162 86 c 128,-1,628
375 213 m 0,636,637
 375 225 375 225 387 225 c 0,638,639
 392 225 392 225 396 221.5 c 128,-1,640
 400 218 400 218 400 213 c 128,-1,641
 400 208 400 208 396 204.5 c 128,-1,642
 392 201 392 201 387 201 c 128,-1,643
 382 201 382 201 378.5 204.5 c 128,-1,644
 375 208 375 208 375 213 c 0,636,637
316 61 m 128,-1,646
 311 61 311 61 307.5 65 c 128,-1,647
 304 69 304 69 304 74 c 256,648,649
 304 79 304 79 307.5 82.5 c 128,-1,650
 311 86 311 86 317 86 c 0,651,652
 329 86 329 86 329 74 c 0,653,654
 329 68 329 68 325 64.5 c 128,-1,645
 321 61 321 61 316 61 c 128,-1,646
125 253 m 0,655,656
 125 256 125 256 126.5 259 c 128,-1,657
 128 262 128 262 131 263.5 c 128,-1,658
 134 265 134 265 137 265 c 0,659,660
 149 265 149 265 149 253 c 0,661,662
 150 247 150 247 146.5 243.5 c 128,-1,663
 143 240 143 240 137 240 c 0,664,665
 132 240 132 240 128.5 244 c 128,-1,666
 125 248 125 248 125 253 c 0,655,656
277 336 m 128,-1,668
 282 336 282 336 285.5 332.5 c 128,-1,669
 289 329 289 329 289 324 c 0,670,671
 289 311 289 311 276 311 c 0,672,673
 273 311 273 311 270.5 313 c 128,-1,674
 268 315 268 315 266 317.5 c 128,-1,675
 264 320 264 320 264 324 c 256,676,677
 264 328 264 328 268 332 c 128,-1,667
 272 336 272 336 277 336 c 128,-1,668
124 201 m 256,678,679
 119 201 119 201 115.5 204.5 c 128,-1,680
 112 208 112 208 112 213.5 c 128,-1,681
 112 219 112 219 116 222 c 128,-1,682
 120 225 120 225 125 225 c 128,-1,683
 130 225 130 225 133.5 221.5 c 128,-1,684
 137 218 137 218 137 213 c 128,-1,685
 137 208 137 208 133 204.5 c 128,-1,686
 129 201 129 201 124 201 c 256,678,679
375 240 m 0,687,688
 370 240 370 240 366 243.5 c 128,-1,689
 362 247 362 247 362 252 c 128,-1,690
 362 257 362 257 366 261 c 128,-1,691
 370 265 370 265 375 265 c 0,692,693
 387 264 387 264 387 252 c 0,694,695
 387 250 387 250 386 247.5 c 128,-1,696
 385 245 385 245 383.5 243.5 c 128,-1,697
 382 242 382 242 379.5 241 c 128,-1,698
 377 240 377 240 375 240 c 0,687,688
350 86 m 0,699,700
 347 86 347 86 344 87.5 c 128,-1,701
 341 89 341 89 339.5 92 c 128,-1,702
 338 95 338 95 338 98 c 0,703,704
 338 103 338 103 341.5 106.5 c 128,-1,705
 345 110 345 110 350.5 110 c 128,-1,706
 356 110 356 110 359 106.5 c 128,-1,707
 362 103 362 103 362 98 c 128,-1,708
 362 93 362 93 358.5 89.5 c 128,-1,709
 355 86 355 86 350 86 c 0,699,700
195 61 m 0,710,711
 191 61 191 61 187 65 c 128,-1,712
 183 69 183 69 183 74 c 128,-1,713
 183 79 183 79 186.5 82.5 c 128,-1,714
 190 86 190 86 195 86 c 0,715,716
 207 86 207 86 208 74 c 0,717,718
 208 69 208 69 204.5 65 c 128,-1,719
 201 61 201 61 195 61 c 0,710,711
223 323.5 m 128,-1,721
 223 329 223 329 226.5 332.5 c 128,-1,722
 230 336 230 336 235 336 c 128,-1,723
 240 336 240 336 243.5 332 c 128,-1,724
 247 328 247 328 247 323 c 128,-1,725
 247 318 247 318 243.5 314.5 c 128,-1,726
 240 311 240 311 235 311 c 128,-1,727
 230 311 230 311 226.5 314.5 c 128,-1,720
 223 318 223 318 223 323.5 c 128,-1,721
235 49 m 0,728,729
 230 49 230 49 226.5 52.5 c 128,-1,730
 223 56 223 56 223 61 c 128,-1,731
 223 66 223 66 226.5 69.5 c 128,-1,732
 230 73 230 73 235 73 c 0,733,734
 238 73 238 73 241 71.5 c 128,-1,735
 244 70 244 70 245.5 67 c 128,-1,736
 247 64 247 64 247 60.5 c 128,-1,737
 247 57 247 57 245.5 54.5 c 128,-1,738
 244 52 244 52 241 50.5 c 128,-1,739
 238 49 238 49 235 49 c 0,728,729
161.5 298 m 128,-1,741
 165 298 165 298 168 296.5 c 128,-1,742
 171 295 171 295 172.5 292.5 c 128,-1,743
 174 290 174 290 174 286 c 0,744,745
 174 281 174 281 170.5 277.5 c 128,-1,746
 167 274 167 274 162 274 c 0,747,748
 159 274 159 274 157 275 c 128,-1,749
 155 276 155 276 153 277.5 c 128,-1,750
 151 279 151 279 150.5 281.5 c 128,-1,751
 150 284 150 284 150 286 c 0,752,753
 150 289 150 289 151.5 292 c 128,-1,754
 153 295 153 295 155.5 296.5 c 128,-1,740
 158 298 158 298 161.5 298 c 128,-1,741
316.5 323 m 128,-1,756
 322 323 322 323 325 319.5 c 128,-1,757
 328 316 328 316 328 311 c 128,-1,758
 328 306 328 306 324.5 302 c 128,-1,759
 321 298 321 298 316 298.5 c 128,-1,760
 311 299 311 299 307.5 302.5 c 128,-1,761
 304 306 304 306 304 311 c 128,-1,762
 304 316 304 316 307.5 319.5 c 128,-1,755
 311 323 311 323 316.5 323 c 128,-1,756
289 61 m 128,-1,764
 289 56 289 56 285.5 52.5 c 128,-1,765
 282 49 282 49 277 49 c 128,-1,766
 272 49 272 49 268 52.5 c 128,-1,767
 264 56 264 56 264.5 61 c 128,-1,768
 265 66 265 66 268.5 69.5 c 128,-1,769
 272 73 272 73 277 73 c 128,-1,770
 282 73 282 73 285.5 69.5 c 128,-1,763
 289 66 289 66 289 61 c 128,-1,764
387 159 m 128,-1,772
 382 159 382 159 378.5 162.5 c 128,-1,773
 375 166 375 166 375 171 c 128,-1,774
 375 176 375 176 378.5 179.5 c 128,-1,775
 382 183 382 183 387.5 183 c 128,-1,776
 393 183 393 183 396.5 179.5 c 128,-1,777
 400 176 400 176 400 171 c 128,-1,778
 400 166 400 166 396 162.5 c 128,-1,771
 392 159 392 159 387 159 c 128,-1,772
137 171 m 128,-1,780
 137 166 137 166 133 162.5 c 128,-1,781
 129 159 129 159 124 159 c 128,-1,782
 119 159 119 159 115.5 163 c 128,-1,783
 112 167 112 167 112 172 c 128,-1,784
 112 177 112 177 115.5 180 c 128,-1,785
 119 183 119 183 124.5 183 c 128,-1,786
 130 183 130 183 133.5 179.5 c 128,-1,779
 137 176 137 176 137 171 c 128,-1,780
387 132 m 0,787,788
 387 127 387 127 383.5 123.5 c 128,-1,789
 380 120 380 120 375 120 c 0,790,791
 372 120 372 120 369 121.5 c 128,-1,792
 366 123 366 123 364.5 125.5 c 128,-1,793
 363 128 363 128 362.5 131.5 c 128,-1,794
 362 135 362 135 364 137.5 c 128,-1,795
 366 140 366 140 368.5 142 c 128,-1,796
 371 144 371 144 374 144 c 0,797,798
 386 144 386 144 387 132 c 0,787,788
183.5 310 m 128,-1,800
 183 315 183 315 186.5 319 c 128,-1,801
 190 323 190 323 195 323 c 128,-1,802
 200 323 200 323 203.5 319.5 c 128,-1,803
 207 316 207 316 207.5 311 c 128,-1,804
 208 306 208 306 204.5 302.5 c 128,-1,805
 201 299 201 299 196 298.5 c 128,-1,806
 191 298 191 298 187.5 301.5 c 128,-1,799
 184 305 184 305 183.5 310 c 128,-1,800
138 144 m 0,807,808
 149 144 149 144 149 132 c 0,809,810
 149 129 149 129 148 127 c 128,-1,811
 147 125 147 125 145.5 123 c 128,-1,812
 144 121 144 121 141.5 120.5 c 128,-1,813
 139 120 139 120 137 120 c 0,814,815
 132 120 132 120 128.5 123.5 c 128,-1,816
 125 127 125 127 125 132 c 0,817,818
 125 135 125 135 127 138 c 128,-1,819
 129 141 129 141 131.5 142.5 c 128,-1,820
 134 144 134 144 138 144 c 0,807,808
350 298 m 0,821,822
 362 298 362 298 362 286 c 0,823,824
 362 281 362 281 358.5 277.5 c 128,-1,825
 355 274 355 274 350 274 c 0,826,827
 338 274 338 274 338 286 c 0,828,829
 338 291 338 291 341.5 294.5 c 128,-1,830
 345 298 345 298 350 298 c 0,821,822
257 292 m 0,831,832
 252 292 252 292 249 295 c 128,-1,833
 246 298 246 298 246 302 c 128,-1,834
 246 306 246 306 249 309 c 128,-1,835
 252 312 252 312 256 312.5 c 128,-1,836
 260 313 260 313 263 310 c 128,-1,837
 266 307 266 307 266.5 303 c 128,-1,838
 267 299 267 299 264 295.5 c 128,-1,839
 261 292 261 292 257 292 c 0,831,832
335 257 m 128,-1,841
 335 261 335 261 338 264 c 128,-1,842
 341 267 341 267 345 267 c 128,-1,843
 349 267 349 267 352 264 c 128,-1,844
 355 261 355 261 355 257 c 128,-1,845
 355 253 355 253 352 250 c 128,-1,846
 349 247 349 247 345 247 c 128,-1,847
 341 247 341 247 338 250 c 128,-1,840
 335 253 335 253 335 257 c 128,-1,841
320 113 m 0,848,849
 325 114 325 114 328 110.5 c 128,-1,850
 331 107 331 107 331 103 c 0,851,852
 331 93 331 93 321 93 c 0,853,854
 317 93 317 93 313.5 96 c 128,-1,855
 310 99 310 99 310 103 c 128,-1,856
 310 107 310 107 313 110 c 128,-1,857
 316 113 316 113 320 113 c 0,848,849
141 226 m 128,-1,859
 141 230 141 230 144 233 c 128,-1,860
 147 236 147 236 151 236 c 128,-1,861
 155 236 155 236 158.5 233 c 128,-1,862
 162 230 162 230 162 226 c 0,863,864
 162 224 162 224 160.5 221.5 c 128,-1,865
 159 219 159 219 156.5 217.5 c 128,-1,866
 154 216 154 216 152 216 c 0,867,868
 147 216 147 216 144 219 c 128,-1,858
 141 222 141 222 141 226 c 128,-1,859
191 93 m 128,-1,870
 181 93 181 93 181 103.5 c 128,-1,871
 181 114 181 114 191 113.5 c 128,-1,872
 201 113 201 113 201 103 c 128,-1,869
 201 93 201 93 191 93 c 128,-1,870
345 118 m 0,873,874
 335 118 335 118 335 128 c 0,875,876
 335 137 335 137 345 138 c 0,877,878
 355 138 355 138 355 128 c 0,879,880
 355 123 355 123 352 120.5 c 128,-1,881
 349 118 349 118 345 118 c 0,873,874
371 226 m 128,-1,883
 371 216 371 216 360.5 216 c 128,-1,884
 350 216 350 216 350.5 226 c 128,-1,885
 351 236 351 236 361 236 c 128,-1,882
 371 236 371 236 371 226 c 128,-1,883
222 77 m 0,886,887
 212 78 212 78 212 88 c 0,888,889
 212 92 212 92 215 95 c 128,-1,890
 218 98 218 98 222 98 c 128,-1,891
 226 98 226 98 229 94.5 c 128,-1,892
 232 91 232 91 232 87 c 128,-1,893
 232 83 232 83 229 80 c 128,-1,894
 226 77 226 77 222 77 c 0,886,887
146 182 m 128,-1,896
 142 182 142 182 139 185 c 128,-1,897
 136 188 136 188 136 192 c 0,898,899
 136 203 136 203 146 202 c 0,900,901
 156 202 156 202 156 192 c 0,902,903
 156 188 156 188 153 185 c 128,-1,895
 150 182 150 182 146 182 c 128,-1,896
212 296 m 0,904,905
 212 307 212 307 222 307 c 128,-1,906
 232 307 232 307 232 297 c 128,-1,907
 232 287 232 287 222 287 c 256,908,909
 212 287 212 287 212 296 c 0,904,905
280 296 m 0,910,911
 280 306 280 306 290 307 c 0,912,913
 300 307 300 307 300 297 c 256,914,915
 300 287 300 287 290.5 287 c 128,-1,916
 281 287 281 287 280 296 c 0,910,911
191 271 m 0,917,918
 187 271 187 271 184 274 c 128,-1,919
 181 277 181 277 181 281 c 0,920,921
 181 291 181 291 192 291 c 0,922,923
 201 291 201 291 201 281 c 128,-1,924
 201 271 201 271 191 271 c 0,917,918
321 291 m 256,925,926
 331 291 331 291 331 281 c 0,927,928
 331 277 331 277 327.5 274 c 128,-1,929
 324 271 324 271 320 271 c 0,930,931
 311 271 311 271 311 281 c 256,932,933
 311 291 311 291 321 291 c 256,925,926
167 267 m 0,934,935
 177 267 177 267 177 257 c 0,936,937
 177 255 177 255 176 253 c 128,-1,938
 175 251 175 251 174 249.5 c 128,-1,939
 173 248 173 248 171 247.5 c 128,-1,940
 169 247 169 247 167 247 c 0,941,942
 163 247 163 247 160 250 c 128,-1,943
 157 253 157 253 157 257 c 128,-1,944
 157 261 157 261 160 264 c 128,-1,945
 163 267 163 267 167 267 c 0,934,935
177 128 m 0,946,947
 177 118 177 118 167 118 c 256,948,949
 157 118 157 118 157 127 c 0,950,951
 157 132 157 132 160 135 c 128,-1,952
 163 138 163 138 167 138 c 0,953,954
 177 137 177 137 177 128 c 0,946,947
256 72 m 0,955,956
 252 72 252 72 249 75 c 128,-1,957
 246 78 246 78 246 82 c 0,958,959
 246 92 246 92 256 92 c 128,-1,960
 266 92 266 92 266 83 c 0,961,962
 266 80 266 80 264.5 77.5 c 128,-1,963
 263 75 263 75 261 73.5 c 128,-1,964
 259 72 259 72 256 72 c 0,955,956
370.5 158.5 m 128,-1,966
 371 149 371 149 361 148 c 0,967,968
 351 148 351 148 351 158 c 0,969,970
 351 162 351 162 353.5 165 c 128,-1,971
 356 168 356 168 361 168 c 0,972,965
 370 168 370 168 370.5 158.5 c 128,-1,966
300 88 m 0,973,974
 300 78 300 78 290 78 c 0,975,976
 287 77 287 77 285 78.5 c 128,-1,977
 283 80 283 80 281.5 82.5 c 128,-1,978
 280 85 280 85 280 88 c 0,979,980
 280 97 280 97 290 98 c 0,981,982
 294 98 294 98 297 95 c 128,-1,983
 300 92 300 92 300 88 c 0,973,974
376 193 m 0,984,985
 376 188 376 188 373 185 c 128,-1,986
 370 182 370 182 366 182 c 128,-1,987
 362 182 362 182 359 185 c 128,-1,988
 356 188 356 188 356 192 c 0,989,990
 356 202 356 202 366 202 c 128,-1,991
 376 202 376 202 376 193 c 0,984,985
151 148 m 0,992,993
 141 149 141 149 141 159 c 0,994,995
 142 168 142 168 152 168 c 0,996,997
 155 168 155 168 158 165 c 128,-1,998
 161 162 161 162 161 158 c 256,999,1000
 161 154 161 154 158 151 c 128,-1,1001
 155 148 155 148 151 148 c 0,992,993
167 215 m 0,1002,1003
 175 215 175 215 175 206 c 0,1004,1005
 175 203 175 203 172.5 200.5 c 128,-1,1006
 170 198 170 198 166 198 c 0,1007,1008
 158 198 158 198 158 206 c 0,1009,1010
 158 210 158 210 160.5 212.5 c 128,-1,1011
 163 215 163 215 167 215 c 0,1002,1003
166.5 186 m 128,-1,1013
 175 186 175 186 175 178 c 128,-1,1014
 175 170 175 170 167 170 c 0,1015,1016
 163 170 163 170 160.5 172.5 c 128,-1,1017
 158 175 158 175 158 178 c 0,1018,1012
 158 186 158 186 166.5 186 c 128,-1,1013
320.5 248 m 128,-1,1020
 317 248 317 248 314 250.5 c 128,-1,1021
 311 253 311 253 312 256 c 0,1022,1023
 312 264 312 264 320 264.5 c 128,-1,1024
 328 265 328 265 328 257 c 0,1025,1026
 329 253 329 253 326.5 250.5 c 128,-1,1019
 324 248 324 248 320.5 248 c 128,-1,1020
215 103 m 0,1027,1028
 213 103 213 103 211 104 c 128,-1,1029
 209 105 209 105 207.5 107 c 128,-1,1030
 206 109 206 109 206 111 c 0,1031,1032
 206 115 206 115 208.5 117.5 c 128,-1,1033
 211 120 211 120 214.5 120 c 128,-1,1034
 218 120 218 120 221 117.5 c 128,-1,1035
 224 115 224 115 223 111 c 0,1036,1037
 223 104 223 104 215 103 c 0,1027,1028
242 94 m 0,1038,1039
 239 94 239 94 236 96.5 c 128,-1,1040
 233 99 233 99 233 103 c 0,1041,1042
 233 111 233 111 241 111 c 0,1043,1044
 245 112 245 112 247.5 109 c 128,-1,1045
 250 106 250 106 250 103 c 0,1046,1047
 251 95 251 95 242 94 c 0,1038,1039
233 282 m 0,1048,1049
 233 290 233 290 241 290 c 0,1050,1051
 245 290 245 290 247.5 287.5 c 128,-1,1052
 250 285 250 285 250 281 c 0,1053,1054
 250 273 250 273 242 273 c 0,1055,1056
 233 273 233 273 233 282 c 0,1048,1049
183.5 151 m 128,-1,1058
 183 143 183 143 175 143 c 128,-1,1059
 167 143 167 143 167 151.5 c 128,-1,1060
 167 160 167 160 175.5 159.5 c 128,-1,1057
 184 159 184 159 183.5 151 c 128,-1,1058
320 120 m 256,1061,1062
 311 120 311 120 311 128 c 256,1063,1064
 311 136 311 136 320 136 c 0,1065,1066
 328 137 328 137 328 128 c 0,1067,1068
 329 120 329 120 320 120 c 256,1061,1062
328 233 m 0,1069,1070
 328 242 328 242 337 241 c 0,1071,1072
 345 241 345 241 345 233 c 0,1073,1074
 345 224 345 224 336 225 c 0,1075,1076
 328 226 328 226 328 233 c 0,1069,1070
337 142.5 m 128,-1,1078
 329 142 329 142 328 151 c 0,1079,1080
 328 159 328 159 336 160 c 0,1081,1082
 345 160 345 160 345 151.5 c 128,-1,1077
 345 143 345 143 337 142.5 c 128,-1,1078
214.5 281 m 128,-1,1084
 223 281 223 281 223 273 c 0,1085,1086
 224 265 224 265 215 265 c 0,1087,1088
 207 265 207 265 206.5 273 c 128,-1,1083
 206 281 206 281 214.5 281 c 128,-1,1084
270.5 289.5 m 128,-1,1090
 279 289 279 289 278.5 281 c 128,-1,1091
 278 273 278 273 270 273.5 c 128,-1,1092
 262 274 262 274 262 282 c 128,-1,1089
 262 290 262 290 270.5 289.5 c 128,-1,1090
297 281 m 128,-1,1094
 305 281 305 281 305 273 c 128,-1,1095
 305 265 305 265 297 265 c 128,-1,1096
 289 265 289 265 289 273 c 128,-1,1093
 289 281 289 281 297 281 c 128,-1,1094
278 102.5 m 128,-1,1098
 278 94 278 94 270 94.5 c 128,-1,1099
 262 95 262 95 262 103 c 128,-1,1100
 262 111 262 111 270 111 c 128,-1,1097
 278 111 278 111 278 102.5 c 128,-1,1098
184 128.5 m 128,-1,1102
 184 137 184 137 192 136.5 c 128,-1,1103
 200 136 200 136 200 128 c 128,-1,1104
 200 120 200 120 192 120 c 128,-1,1101
 184 120 184 120 184 128.5 c 128,-1,1102
345.5 214.5 m 128,-1,1106
 354 214 354 214 353.5 206 c 128,-1,1107
 353 198 353 198 345 198 c 128,-1,1108
 337 198 337 198 337 206.5 c 128,-1,1105
 337 215 337 215 345.5 214.5 c 128,-1,1106
175.5 241.5 m 128,-1,1110
 184 241 184 241 183.5 233 c 128,-1,1111
 183 225 183 225 175 225 c 128,-1,1112
 167 225 167 225 167 233.5 c 128,-1,1109
 167 242 167 242 175.5 241.5 c 128,-1,1110
305 111.5 m 128,-1,1114
 305 103 305 103 297 103 c 128,-1,1115
 289 103 289 103 289 111.5 c 128,-1,1116
 289 120 289 120 297 120 c 128,-1,1113
 305 120 305 120 305 111.5 c 128,-1,1114
337 178 m 128,-1,1118
 337 186 337 186 345.5 186 c 128,-1,1119
 354 186 354 186 353.5 178 c 128,-1,1120
 353 170 353 170 345 170 c 128,-1,1117
 337 170 337 170 337 178 c 128,-1,1118
192 264.5 m 128,-1,1122
 200 264 200 264 200 256 c 128,-1,1123
 200 248 200 248 192 248 c 128,-1,1124
 184 248 184 248 184 256.5 c 128,-1,1121
 184 265 184 265 192 264.5 c 128,-1,1122
EndSplineSet
EndChar

StartChar: figshare-square
Encoding: 59879 59879 44
Width: 448
GlyphClass: 1
Flags: W
LayerCount: 2
Fore
SplineSet
48 416 m 2,0,-1
 400 416 l 2,1,2
 420 416 420 416 434 402 c 128,-1,3
 448 388 448 388 448 368 c 2,4,-1
 448 16 l 2,5,6
 448 -4 448 -4 434 -18 c 128,-1,7
 420 -32 420 -32 400 -32 c 2,8,-1
 48 -32 l 2,9,10
 28 -32 28 -32 14 -18 c 128,-1,11
 0 -4 0 -4 0 16 c 2,12,-1
 0 368 l 2,13,14
 0 388 0 388 14 402 c 128,-1,15
 28 416 28 416 48 416 c 2,0,-1
224.5 352 m 128,-1,17
 219 352 219 352 215 348 c 128,-1,18
 211 344 211 344 211 339 c 0,19,20
 211 336 211 336 212 333.5 c 128,-1,21
 213 331 213 331 214.5 329 c 128,-1,22
 216 327 216 327 218.5 326 c 128,-1,23
 221 325 221 325 224 325 c 0,24,25
 229 325 229 325 233 329 c 128,-1,26
 237 333 237 333 237 338.5 c 128,-1,27
 237 344 237 344 233.5 348 c 128,-1,16
 230 352 230 352 224.5 352 c 128,-1,17
269 345 m 0,28,29
 263 345 263 345 259.5 341 c 128,-1,30
 256 337 256 337 256 331 c 0,31,32
 256 328 256 328 257.5 325 c 128,-1,33
 259 322 259 322 262.5 320 c 128,-1,34
 266 318 266 318 269 318 c 0,35,36
 275 318 275 318 279 322 c 128,-1,37
 283 326 283 326 283 332 c 0,38,39
 283 335 283 335 281 338 c 128,-1,40
 279 341 279 341 276 343 c 128,-1,41
 273 345 273 345 269 345 c 0,28,29
178.5 345 m 128,-1,43
 173 345 173 345 169 341 c 128,-1,44
 165 337 165 337 165 331.5 c 128,-1,45
 165 326 165 326 169 322 c 128,-1,46
 173 318 173 318 178.5 318 c 128,-1,47
 184 318 184 318 188 322 c 128,-1,48
 192 326 192 326 192 331.5 c 128,-1,49
 192 337 192 337 188 341 c 128,-1,42
 184 345 184 345 178.5 345 c 128,-1,43
243.5 326 m 128,-1,51
 239 326 239 326 235.5 322.5 c 128,-1,52
 232 319 232 319 232 314.5 c 128,-1,53
 232 310 232 310 235.5 306.5 c 128,-1,54
 239 303 239 303 243 303 c 0,55,56
 246 303 246 303 249 304.5 c 128,-1,57
 252 306 252 306 253.5 308.5 c 128,-1,58
 255 311 255 311 255 314 c 0,59,60
 255 319 255 319 251.5 322.5 c 128,-1,50
 248 326 248 326 243.5 326 c 128,-1,51
204.5 326 m 128,-1,62
 200 326 200 326 196.5 322.5 c 128,-1,63
 193 319 193 319 193 315 c 256,64,65
 193 311 193 311 194.5 308.5 c 128,-1,66
 196 306 196 306 198.5 304.5 c 128,-1,67
 201 303 201 303 204 303 c 0,68,69
 209 303 209 303 212.5 306 c 128,-1,70
 216 309 216 309 216 314 c 128,-1,71
 216 319 216 319 212.5 322.5 c 128,-1,61
 209 326 209 326 204.5 326 c 128,-1,62
138 324 m 0,72,73
 132 324 132 324 128 320 c 128,-1,74
 124 316 124 316 124 310.5 c 128,-1,75
 124 305 124 305 128 301 c 128,-1,76
 132 297 132 297 137.5 297 c 128,-1,77
 143 297 143 297 147 301 c 128,-1,78
 151 305 151 305 151 310.5 c 128,-1,79
 151 316 151 316 147 320 c 128,-1,80
 143 324 143 324 138 324 c 0,72,73
310 324 m 0,81,82
 307 324 307 324 304.5 323 c 128,-1,83
 302 322 302 322 300.5 320 c 128,-1,84
 299 318 299 318 297.5 315.5 c 128,-1,85
 296 313 296 313 296 311 c 0,86,87
 296 305 296 305 300.5 301 c 128,-1,88
 305 297 305 297 310.5 297 c 128,-1,89
 316 297 316 297 320 301 c 128,-1,90
 324 305 324 305 324 310.5 c 128,-1,91
 324 316 324 316 320 320 c 128,-1,92
 316 324 316 324 310 324 c 0,81,82
280 314 m 128,-1,94
 275 314 275 314 271.5 310.5 c 128,-1,95
 268 307 268 307 269 302 c 0,96,97
 269 299 269 299 270.5 296.5 c 128,-1,98
 272 294 272 294 274.5 292.5 c 128,-1,99
 277 291 277 291 280 291 c 0,100,101
 285 291 285 291 288.5 294.5 c 128,-1,102
 292 298 292 298 291.5 302.5 c 128,-1,103
 291 307 291 307 288 310.5 c 128,-1,93
 285 314 285 314 280 314 c 128,-1,94
168 314 m 0,104,105
 157 313 157 313 157 302 c 0,106,107
 157 298 157 298 160 294.5 c 128,-1,108
 163 291 163 291 167.5 291 c 128,-1,109
 172 291 172 291 175.5 294.5 c 128,-1,110
 179 298 179 298 179 302.5 c 128,-1,111
 179 307 179 307 175.5 310.5 c 128,-1,112
 172 314 172 314 168 314 c 0,104,105
224 305 m 0,113,114
 215 304 215 304 214 295 c 0,115,116
 214 291 214 291 217 288.5 c 128,-1,117
 220 286 220 286 224 286 c 0,118,119
 233 286 233 286 233 295 c 0,120,121
 233 305 233 305 224 305 c 0,113,114
256 299 m 0,122,123
 252 300 252 300 249 297 c 128,-1,124
 246 294 246 294 246 290 c 128,-1,125
 246 286 246 286 249 283 c 128,-1,126
 252 280 252 280 256 280 c 0,127,128
 265 280 265 280 265 290 c 0,129,130
 265 299 265 299 256 299 c 0,122,123
192 299.5 m 128,-1,132
 183 299 183 299 183 289.5 c 128,-1,133
 183 280 183 280 192 281 c 0,134,135
 202 281 202 281 201 290 c 0,136,131
 201 300 201 300 192 299.5 c 128,-1,132
105.5 292 m 128,-1,138
 100 292 100 292 96 288 c 128,-1,139
 92 284 92 284 92 278 c 0,140,141
 92 275 92 275 93.5 271.5 c 128,-1,142
 95 268 95 268 98.5 266.5 c 128,-1,143
 102 265 102 265 105 265 c 0,144,145
 111 265 111 265 115 269 c 128,-1,146
 119 273 119 273 119 278.5 c 128,-1,147
 119 284 119 284 115 288 c 128,-1,137
 111 292 111 292 105.5 292 c 128,-1,138
342.5 292 m 128,-1,149
 337 292 337 292 333 288 c 128,-1,150
 329 284 329 284 329 278 c 0,151,152
 329 275 329 275 331 271.5 c 128,-1,153
 333 268 333 268 336 266.5 c 128,-1,154
 339 265 339 265 342.5 265 c 128,-1,155
 346 265 346 265 349 266.5 c 128,-1,156
 352 268 352 268 354 271 c 128,-1,157
 356 274 356 274 356 278 c 0,158,159
 356 284 356 284 352 288 c 128,-1,148
 348 292 348 292 342.5 292 c 128,-1,149
136.5 291 m 128,-1,161
 132 291 132 291 128.5 287.5 c 128,-1,162
 125 284 125 284 125 279.5 c 128,-1,163
 125 275 125 275 128.5 271.5 c 128,-1,164
 132 268 132 268 136.5 268 c 128,-1,165
 141 268 141 268 144.5 271.5 c 128,-1,166
 148 275 148 275 148 279.5 c 128,-1,167
 148 284 148 284 144.5 287.5 c 128,-1,160
 141 291 141 291 136.5 291 c 128,-1,161
312 291 m 0,168,169
 300 291 300 291 300 279.5 c 128,-1,170
 300 268 300 268 311.5 268 c 128,-1,171
 323 268 323 268 323 279 c 0,172,173
 323 291 323 291 312 291 c 0,168,169
238 285 m 0,174,175
 229 285 229 285 229 277 c 256,176,177
 229 269 229 269 237 269 c 256,178,179
 245 269 245 269 245 277 c 256,180,181
 245 285 245 285 238 285 c 0,174,175
164 285 m 0,182,183
 160 285 160 285 157 282 c 128,-1,184
 154 279 154 279 154 275 c 0,185,186
 154 266 154 266 163.5 266 c 128,-1,187
 173 266 173 266 173 275.5 c 128,-1,188
 173 285 173 285 164 285 c 0,182,183
284.5 285 m 128,-1,190
 275 285 275 285 275 276 c 0,191,192
 275 272 275 272 278 269 c 128,-1,193
 281 266 281 266 285 266 c 0,194,195
 294 266 294 266 294 275.5 c 128,-1,189
 294 285 294 285 284.5 285 c 128,-1,190
211 285 m 0,196,197
 203 285 203 285 203 277 c 256,198,199
 203 269 203 269 210.5 269 c 128,-1,200
 218 269 218 269 218 277 c 128,-1,201
 218 285 218 285 211 285 c 0,196,197
263 276 m 128,-1,203
 255 276 255 276 255 268.5 c 128,-1,204
 255 261 255 261 263 261 c 128,-1,205
 271 261 271 261 271 268.5 c 128,-1,202
 271 276 271 276 263 276 c 128,-1,203
185 276.5 m 128,-1,207
 177 276 177 276 177 268 c 128,-1,208
 177 260 177 260 185 260.5 c 128,-1,209
 193 261 193 261 193 269 c 128,-1,206
 193 277 193 277 185 276.5 c 128,-1,207
223.5 269.5 m 128,-1,211
 217 269 217 269 217 263 c 0,212,213
 217 256 217 256 224 256 c 0,214,215
 231 257 231 257 230.5 263.5 c 128,-1,210
 230 270 230 270 223.5 269.5 c 128,-1,211
201.5 266 m 128,-1,217
 195 266 195 266 196 259 c 0,218,219
 196 253 196 253 202 253 c 0,220,221
 209 253 209 253 208.5 259.5 c 128,-1,216
 208 266 208 266 201.5 266 c 128,-1,217
245.5 266 m 128,-1,223
 239 266 239 266 240 259 c 0,224,225
 240 253 240 253 246 253 c 128,-1,226
 252 253 252 253 252 260 c 0,227,222
 252 266 252 266 245.5 266 c 128,-1,223
140 262 m 0,228,229
 131 262 131 262 131 252 c 0,230,231
 131 243 131 243 140 243 c 0,232,233
 144 243 144 243 147 246 c 128,-1,234
 150 249 150 249 150 252.5 c 128,-1,235
 150 256 150 256 147 259 c 128,-1,236
 144 262 144 262 140 262 c 0,228,229
307.5 262 m 128,-1,238
 298 262 298 262 298 252.5 c 128,-1,239
 298 243 298 243 307 243 c 0,240,241
 311 243 311 243 314 246 c 128,-1,242
 317 249 317 249 317 253 c 0,243,237
 317 262 317 262 307.5 262 c 128,-1,238
163 261 m 128,-1,245
 155 261 155 261 155 253 c 128,-1,246
 155 245 155 245 163 245 c 128,-1,247
 171 245 171 245 171 253 c 128,-1,244
 171 261 171 261 163 261 c 128,-1,245
284.5 260.5 m 128,-1,249
 277 260 277 260 277 253 c 0,250,251
 277 245 277 245 285 245 c 0,252,253
 292 245 292 245 292 253 c 128,-1,248
 292 261 292 261 284.5 260.5 c 128,-1,249
113.5 260 m 128,-1,255
 109 260 109 260 105.5 256.5 c 128,-1,256
 102 253 102 253 102 248 c 128,-1,257
 102 243 102 243 105.5 240 c 128,-1,258
 109 237 109 237 114 237 c 128,-1,259
 119 237 119 237 122 240.5 c 128,-1,260
 125 244 125 244 125 248.5 c 128,-1,261
 125 253 125 253 121.5 256.5 c 128,-1,254
 118 260 118 260 113.5 260 c 128,-1,255
334.5 260 m 128,-1,263
 330 260 330 260 326.5 256.5 c 128,-1,264
 323 253 323 253 323 248.5 c 128,-1,265
 323 244 323 244 326 240.5 c 128,-1,266
 329 237 329 237 334 237 c 128,-1,267
 339 237 339 237 342.5 240 c 128,-1,268
 346 243 346 243 346 248 c 128,-1,269
 346 253 346 253 342.5 256.5 c 128,-1,262
 339 260 339 260 334.5 260 c 128,-1,263
266 256 m 0,270,271
 259 256 259 256 259 250 c 0,272,273
 259 243 259 243 265 243 c 0,274,275
 272 243 272 243 272 249 c 0,276,277
 272 256 272 256 266 256 c 0,270,271
182 256 m 0,278,279
 176 256 176 256 176 249.5 c 128,-1,280
 176 243 176 243 182 243 c 0,281,282
 189 243 189 243 189 249.5 c 128,-1,283
 189 256 189 256 182 256 c 0,278,279
215 255 m 0,284,285
 209 255 209 255 209 250 c 0,286,287
 209 244 209 244 215 244 c 0,288,289
 220 245 220 245 220 250 c 256,290,291
 220 255 220 255 215 255 c 0,284,285
233.5 255 m 128,-1,293
 228 255 228 255 228 250 c 128,-1,294
 228 245 228 245 233 244.5 c 128,-1,295
 238 244 238 244 238.5 249.5 c 128,-1,292
 239 255 239 255 233.5 255 c 128,-1,293
363.5 251 m 128,-1,297
 358 251 358 251 354 247 c 128,-1,298
 350 243 350 243 350 237.5 c 128,-1,299
 350 232 350 232 354 228 c 128,-1,300
 358 224 358 224 363.5 224 c 128,-1,301
 369 224 369 224 373 228 c 128,-1,302
 377 232 377 232 377 237.5 c 128,-1,303
 377 243 377 243 373 247 c 128,-1,296
 369 251 369 251 363.5 251 c 128,-1,297
84 251 m 0,304,305
 81 251 81 251 78 249 c 128,-1,306
 75 247 75 247 73 244 c 128,-1,307
 71 241 71 241 71 237.5 c 128,-1,308
 71 234 71 234 73 230.5 c 128,-1,309
 75 227 75 227 78 225.5 c 128,-1,310
 81 224 81 224 85 224 c 0,311,312
 90 224 90 224 94 228 c 128,-1,313
 98 232 98 232 98 237.5 c 128,-1,314
 98 243 98 243 94 247 c 128,-1,315
 90 251 90 251 84 251 c 0,304,305
197.5 249.5 m 128,-1,317
 192 249 192 249 192 244 c 128,-1,318
 192 239 192 239 197 239 c 0,319,320
 203 239 203 239 203 244 c 0,321,316
 203 250 203 250 197.5 249.5 c 128,-1,317
250.5 249 m 128,-1,323
 245 249 245 249 245 244 c 128,-1,324
 245 239 245 239 250.5 239 c 128,-1,325
 256 239 256 239 256 244 c 128,-1,322
 256 249 256 249 250.5 249 c 128,-1,323
281.5 240 m 128,-1,327
 275 240 275 240 275 233.5 c 128,-1,328
 275 227 275 227 281.5 227 c 128,-1,329
 288 227 288 227 288 233.5 c 128,-1,326
 288 240 288 240 281.5 240 c 128,-1,327
167 240 m 0,330,331
 160 240 160 240 160 234 c 0,332,333
 160 227 160 227 166 227 c 0,334,335
 173 227 173 227 173 234 c 0,336,337
 173 240 173 240 167 240 c 0,330,331
147.5 239 m 128,-1,339
 140 239 140 239 139 231 c 0,340,341
 139 228 139 228 141.5 225.5 c 128,-1,342
 144 223 144 223 147 223 c 0,343,344
 155 223 155 223 155 231 c 256,345,338
 155 239 155 239 147.5 239 c 128,-1,339
301 239 m 0,346,347
 292 239 292 239 293 231 c 0,348,349
 293 223 293 223 300.5 223 c 128,-1,350
 308 223 308 223 308 231 c 128,-1,351
 308 239 308 239 301 239 c 0,346,347
265 239 m 128,-1,353
 260 239 260 239 260 233 c 0,354,355
 260 228 260 228 265.5 228 c 128,-1,356
 271 228 271 228 271 234 c 0,357,352
 270 239 270 239 265 239 c 128,-1,353
182.5 239 m 128,-1,359
 177 239 177 239 177 233.5 c 128,-1,360
 177 228 177 228 182.5 228 c 128,-1,361
 188 228 188 228 188 233.5 c 128,-1,358
 188 239 188 239 182.5 239 c 128,-1,359
126 233 m 256,362,363
 117 233 117 233 116 224 c 0,364,365
 116 220 116 220 119 217 c 128,-1,366
 122 214 122 214 126 214 c 0,367,368
 135 214 135 214 135 224 c 0,369,370
 135 233 135 233 126 233 c 256,362,363
322 233 m 128,-1,372
 313 233 313 233 312 224 c 0,373,374
 312 220 312 220 315 217 c 128,-1,375
 318 214 318 214 322 214 c 0,376,377
 332 215 332 215 331 224 c 0,378,371
 331 233 331 233 322 233 c 128,-1,372
276 224 m 256,379,380
 271 224 271 224 271 219 c 128,-1,381
 271 214 271 214 276 213 c 0,382,383
 281 213 281 213 281 218 c 0,384,385
 281 224 281 224 276 224 c 256,379,380
172 224 m 128,-1,387
 167 224 167 224 166.5 219 c 128,-1,388
 166 214 166 214 171.5 213.5 c 128,-1,389
 177 213 177 213 177 218.5 c 128,-1,386
 177 224 177 224 172 224 c 128,-1,387
346 223 m 0,390,391
 343 223 343 223 340.5 221.5 c 128,-1,392
 338 220 338 220 336.5 217 c 128,-1,393
 335 214 335 214 335 211 c 0,394,395
 335 207 335 207 338.5 203.5 c 128,-1,396
 342 200 342 200 346.5 200 c 128,-1,397
 351 200 351 200 354.5 203.5 c 128,-1,398
 358 207 358 207 358 211.5 c 128,-1,399
 358 216 358 216 354.5 219.5 c 128,-1,400
 351 223 351 223 346 223 c 0,390,391
101.5 223 m 128,-1,402
 97 223 97 223 94 219.5 c 128,-1,403
 91 216 91 216 91 212 c 0,404,405
 90 210 90 210 91 208 c 128,-1,406
 92 206 92 206 93 204.5 c 128,-1,407
 94 203 94 203 95 202 c 128,-1,408
 96 201 96 201 98 200.5 c 128,-1,409
 100 200 100 200 102 200 c 0,410,411
 106 200 106 200 109.5 203.5 c 128,-1,412
 113 207 113 207 113 211.5 c 128,-1,413
 113 216 113 216 109.5 219.5 c 128,-1,401
 106 223 106 223 101.5 223 c 128,-1,402
156.5 221 m 128,-1,415
 150 221 150 221 150 214 c 256,416,417
 150 207 150 207 157 207 c 0,418,419
 163 208 163 208 163 214.5 c 128,-1,414
 163 221 163 221 156.5 221 c 128,-1,415
291.5 220.5 m 128,-1,421
 285 221 285 221 285 214.5 c 128,-1,422
 285 208 285 208 291.5 207.5 c 128,-1,423
 298 207 298 207 298 213.5 c 128,-1,420
 298 220 298 220 291.5 220.5 c 128,-1,421
139.5 213.5 m 128,-1,425
 132 214 132 214 131 206 c 0,426,427
 131 198 131 198 139 198 c 0,428,429
 147 197 147 197 147 205 c 128,-1,424
 147 213 147 213 139.5 213.5 c 128,-1,425
309 213 m 128,-1,431
 301 213 301 213 301 205 c 0,432,433
 301 198 301 198 309 198 c 0,434,435
 312 198 312 198 314.5 200.5 c 128,-1,436
 317 203 317 203 317 206 c 0,437,430
 317 213 317 213 309 213 c 128,-1,431
166 207 m 0,438,439
 161 207 161 207 161 201 c 0,440,441
 161 196 161 196 166 196 c 0,442,443
 172 196 172 196 172 201 c 0,444,445
 172 207 172 207 166 207 c 0,438,439
281.5 206.5 m 128,-1,447
 276 207 276 207 276 201.5 c 128,-1,448
 276 196 276 196 281.5 196 c 128,-1,449
 287 196 287 196 287 201 c 128,-1,446
 287 206 287 206 281.5 206.5 c 128,-1,447
370.5 205.5 m 128,-1,451
 365 206 365 206 361 202 c 128,-1,452
 357 198 357 198 357 192.5 c 128,-1,453
 357 187 357 187 361 182.5 c 128,-1,454
 365 178 365 178 370.5 178.5 c 128,-1,455
 376 179 376 179 380 183 c 128,-1,456
 384 187 384 187 384 192.5 c 128,-1,457
 384 198 384 198 380 201.5 c 128,-1,450
 376 205 376 205 370.5 205.5 c 128,-1,451
77.5 205 m 128,-1,459
 72 205 72 205 68 201.5 c 128,-1,460
 64 198 64 198 64 192 c 128,-1,461
 64 186 64 186 68 182.5 c 128,-1,462
 72 179 72 179 77.5 179 c 128,-1,463
 83 179 83 179 87 183 c 128,-1,464
 91 187 91 187 91 192.5 c 128,-1,465
 91 198 91 198 87 201.5 c 128,-1,458
 83 205 83 205 77.5 205 c 128,-1,459
328 202 m 0,466,467
 318 202 318 202 318 193 c 0,468,469
 317 183 317 183 327 182 c 0,470,471
 329 182 329 182 331.5 183.5 c 128,-1,472
 334 185 334 185 335.5 187 c 128,-1,473
 337 189 337 189 337 192 c 0,474,475
 337 201 337 201 328 202 c 0,466,467
121 201.5 m 128,-1,477
 112 202 112 202 111 192 c 0,478,479
 111 188 111 188 114 185.5 c 128,-1,480
 117 183 117 183 121 183 c 0,481,482
 130 183 130 183 130 192 c 128,-1,476
 130 201 130 201 121 201.5 c 128,-1,477
153 199 m 0,483,484
 147 199 147 199 146.5 192.5 c 128,-1,485
 146 186 146 186 152.5 185.5 c 128,-1,486
 159 185 159 185 159 192 c 0,487,488
 160 198 160 198 153 199 c 0,483,484
295 198.5 m 128,-1,490
 289 198 289 198 288 192 c 0,491,492
 288 186 288 186 295 186 c 128,-1,493
 302 186 302 186 301 192 c 0,494,489
 301 199 301 199 295 198.5 c 128,-1,490
166.5 188 m 128,-1,496
 161 188 161 188 161 183 c 0,497,498
 161 177 161 177 167 178 c 0,499,500
 172 178 172 178 172 183 c 128,-1,495
 172 188 172 188 166.5 188 c 128,-1,496
281.5 188 m 128,-1,502
 276 188 276 188 276 183 c 128,-1,503
 276 178 276 178 281.5 178 c 128,-1,504
 287 178 287 178 287 183 c 128,-1,501
 287 188 287 188 281.5 188 c 128,-1,502
309 186 m 128,-1,506
 301 186 301 186 301 178.5 c 128,-1,507
 301 171 301 171 309 171 c 128,-1,508
 317 171 317 171 317 178.5 c 128,-1,505
 317 186 317 186 309 186 c 128,-1,506
139 186.5 m 128,-1,510
 131 187 131 187 131 179 c 128,-1,511
 131 171 131 171 139 171 c 128,-1,512
 147 171 147 171 147 178.5 c 128,-1,509
 147 186 147 186 139 186.5 c 128,-1,510
346 184 m 128,-1,514
 341 184 341 184 338 180.5 c 128,-1,515
 335 177 335 177 335 172.5 c 128,-1,516
 335 168 335 168 338 164.5 c 128,-1,517
 341 161 341 161 346 161 c 128,-1,518
 351 161 351 161 354.5 164.5 c 128,-1,519
 358 168 358 168 358 172.5 c 128,-1,520
 358 177 358 177 354.5 180.5 c 128,-1,513
 351 184 351 184 346 184 c 128,-1,514
102 184 m 128,-1,522
 91 184 91 184 91 173 c 0,523,524
 90 162 90 162 101.5 161.5 c 128,-1,525
 113 161 113 161 113 172.5 c 128,-1,521
 113 184 113 184 102 184 c 128,-1,522
292 177 m 0,526,527
 285 177 285 177 285 170.5 c 128,-1,528
 285 164 285 164 292 164 c 0,529,530
 298 164 298 164 298 170.5 c 128,-1,531
 298 177 298 177 292 177 c 0,526,527
156.5 176.5 m 128,-1,533
 150 177 150 177 150 171 c 0,534,535
 150 164 150 164 156.5 164 c 128,-1,536
 163 164 163 164 163 170 c 256,537,532
 163 176 163 176 156.5 176.5 c 128,-1,533
276 171 m 0,538,539
 270 171 270 171 271 165 c 0,540,541
 271 160 271 160 276 160 c 128,-1,542
 281 160 281 160 281 165.5 c 128,-1,543
 281 171 281 171 276 171 c 0,538,539
172 171 m 128,-1,545
 167 171 167 171 167 165.5 c 128,-1,546
 167 160 167 160 172 160 c 128,-1,547
 177 160 177 160 177 165.5 c 128,-1,544
 177 171 177 171 172 171 c 128,-1,545
126 170 m 0,548,549
 116 170 116 170 117 160 c 0,550,551
 117 151 117 151 126 151 c 128,-1,552
 135 151 135 151 135 160 c 128,-1,553
 135 169 135 169 126 170 c 0,548,549
322 170 m 0,554,555
 318 170 318 170 315 167 c 128,-1,556
 312 164 312 164 313 160 c 0,557,558
 313 151 313 151 322 151 c 128,-1,559
 331 151 331 151 331.5 160 c 128,-1,560
 332 169 332 169 322 170 c 0,554,555
147.5 161 m 128,-1,562
 140 161 140 161 139.5 153.5 c 128,-1,563
 139 146 139 146 147 145.5 c 128,-1,564
 155 145 155 145 155 153 c 128,-1,561
 155 161 155 161 147.5 161 c 128,-1,562
300 161 m 128,-1,566
 292 161 292 161 292.5 153 c 128,-1,567
 293 145 293 145 300.5 145.5 c 128,-1,568
 308 146 308 146 308 153.5 c 128,-1,565
 308 161 308 161 300 161 c 128,-1,566
84.5 160 m 128,-1,570
 81 160 81 160 78 158.5 c 128,-1,571
 75 157 75 157 73 154 c 128,-1,572
 71 151 71 151 71 147 c 0,573,574
 71 141 71 141 75 137 c 128,-1,575
 79 133 79 133 84 133 c 0,576,577
 88 133 88 133 91 135 c 128,-1,578
 94 137 94 137 96 140 c 128,-1,579
 98 143 98 143 98 146.5 c 128,-1,580
 98 150 98 150 96.5 153.5 c 128,-1,581
 95 157 95 157 91.5 158.5 c 128,-1,569
 88 160 88 160 84.5 160 c 128,-1,570
363 160 m 0,582,583
 358 160 358 160 354 156 c 128,-1,584
 350 152 350 152 350 146.5 c 128,-1,585
 350 141 350 141 354 137 c 128,-1,586
 358 133 358 133 363 133 c 0,587,588
 367 133 367 133 370 135 c 128,-1,589
 373 137 373 137 375 140 c 128,-1,590
 377 143 377 143 377 147 c 0,591,592
 377 150 377 150 376 152.5 c 128,-1,593
 375 155 375 155 373 156.5 c 128,-1,594
 371 158 371 158 368.5 159 c 128,-1,595
 366 160 366 160 363 160 c 0,582,583
281 157 m 0,596,597
 275 157 275 157 275 151 c 0,598,599
 275 144 275 144 281.5 144 c 128,-1,600
 288 144 288 144 288 150.5 c 128,-1,601
 288 157 288 157 281 157 c 0,596,597
167 157 m 0,602,603
 160 157 160 157 160 150 c 0,604,605
 160 144 160 144 166 144 c 0,606,607
 173 144 173 144 173 151 c 0,608,609
 173 157 173 157 167 157 c 0,602,603
265 156 m 0,610,611
 260 156 260 156 260 151 c 0,612,613
 260 145 260 145 266 146 c 0,614,615
 271 146 271 146 271 151 c 256,616,617
 271 156 271 156 265 156 c 0,610,611
183 156 m 128,-1,619
 178 156 178 156 177.5 151 c 128,-1,620
 177 146 177 146 182.5 145.5 c 128,-1,621
 188 145 188 145 188 150.5 c 128,-1,618
 188 156 188 156 183 156 c 128,-1,619
113.5 147 m 128,-1,623
 102 147 102 147 102 136 c 128,-1,624
 102 125 102 125 114 124 c 0,625,626
 118 124 118 124 121.5 127.5 c 128,-1,627
 125 131 125 131 125 136 c 0,628,622
 125 147 125 147 113.5 147 c 128,-1,623
334 147 m 0,629,630
 331 147 331 147 328.5 145.5 c 128,-1,631
 326 144 326 144 324.5 141.5 c 128,-1,632
 323 139 323 139 323 136 c 0,633,634
 323 131 323 131 326.5 128 c 128,-1,635
 330 125 330 125 334.5 125 c 128,-1,636
 339 125 339 125 342.5 128.5 c 128,-1,637
 346 132 346 132 345.5 136.5 c 128,-1,638
 345 141 345 141 342 144 c 128,-1,639
 339 147 339 147 334 147 c 0,629,630
197 146 m 0,640,641
 192 146 192 146 192 140 c 256,642,643
 192 134 192 134 198 135 c 0,644,645
 203 135 203 135 203 140 c 0,646,647
 203 146 203 146 197 146 c 0,640,641
250.5 145.5 m 128,-1,649
 245 146 245 146 245 140.5 c 128,-1,650
 245 135 245 135 250.5 135 c 128,-1,651
 256 135 256 135 256 140 c 128,-1,648
 256 145 256 145 250.5 145.5 c 128,-1,649
182.5 141 m 128,-1,653
 176 141 176 141 176 134.5 c 128,-1,654
 176 128 176 128 182.5 128 c 128,-1,655
 189 128 189 128 189 134.5 c 128,-1,652
 189 141 189 141 182.5 141 c 128,-1,653
266 141 m 0,656,657
 259 141 259 141 259 134.5 c 128,-1,658
 259 128 259 128 265.5 128 c 128,-1,659
 272 128 272 128 272 135 c 256,660,661
 272 142 272 142 266 141 c 0,656,657
141 141 m 0,662,663
 131 141 131 141 131 132 c 0,664,665
 131 122 131 122 140 122 c 0,666,667
 144 122 144 122 147 125 c 128,-1,668
 150 128 150 128 150 132 c 0,669,670
 150 141 150 141 141 141 c 0,662,663
307.5 141 m 128,-1,672
 298 141 298 141 298 132 c 0,673,674
 298 128 298 128 301 125 c 128,-1,675
 304 122 304 122 308 122 c 0,676,677
 317 122 317 122 317 131.5 c 128,-1,671
 317 141 317 141 307.5 141 c 128,-1,672
215 140 m 2,678,679
 215 140 215 140 214 140 c 0,680,681
 209 139 209 139 209 134 c 0,682,683
 210 129 210 129 215 129 c 256,684,685
 220 129 220 129 220 134.5 c 128,-1,686
 220 140 220 140 215 140 c 2,678,679
233 140 m 128,-1,688
 228 140 228 140 228 134.5 c 128,-1,689
 228 129 228 129 233 129 c 128,-1,690
 238 129 238 129 238 134.5 c 128,-1,687
 238 140 238 140 233 140 c 128,-1,688
164 139 m 0,691,692
 155 140 155 140 155 132 c 0,693,694
 155 129 155 129 156 127.5 c 128,-1,695
 157 126 157 126 159 124.5 c 128,-1,696
 161 123 161 123 163 123 c 0,697,698
 171 123 171 123 171 131 c 128,-1,699
 171 139 171 139 164 139 c 0,691,692
285 139 m 0,700,701
 277 140 277 140 277 131 c 0,702,703
 277 124 277 124 284.5 123.5 c 128,-1,704
 292 123 292 123 292.5 131 c 128,-1,705
 293 139 293 139 285 139 c 0,700,701
202.5 131 m 128,-1,707
 196 131 196 131 195.5 124.5 c 128,-1,708
 195 118 195 118 201.5 118 c 128,-1,709
 208 118 208 118 208.5 124.5 c 128,-1,706
 209 131 209 131 202.5 131 c 128,-1,707
246 131 m 256,710,711
 240 131 240 131 240 125 c 0,712,713
 240 118 240 118 246 118 c 256,714,715
 252 118 252 118 252 125 c 0,716,717
 252 131 252 131 246 131 c 256,710,711
224 127.5 m 128,-1,719
 218 127 218 127 217 121 c 0,720,721
 217 115 217 115 224 115 c 128,-1,722
 231 115 231 115 230 121 c 0,723,718
 230 128 230 128 224 127.5 c 128,-1,719
263 123 m 0,724,725
 255 124 255 124 255 116 c 256,726,727
 255 108 255 108 263 107.5 c 128,-1,728
 271 107 271 107 271 116 c 0,729,730
 271 123 271 123 263 123 c 0,724,725
185 123.5 m 128,-1,732
 177 123 177 123 177 115.5 c 128,-1,733
 177 108 177 108 185 108 c 256,734,735
 193 108 193 108 193 116 c 256,736,731
 193 124 193 124 185 123.5 c 128,-1,732
105 119 m 0,737,738
 100 119 100 119 96 115.5 c 128,-1,739
 92 112 92 112 92 106 c 0,740,741
 92 102 92 102 94 99 c 128,-1,742
 96 96 96 96 99 94 c 128,-1,743
 102 92 102 92 106 92 c 0,744,745
 111 93 111 93 115 97 c 128,-1,746
 119 101 119 101 119 106 c 0,747,748
 119 110 119 110 117 113 c 128,-1,749
 115 116 115 116 112 117.5 c 128,-1,750
 109 119 109 119 105 119 c 0,737,738
342.5 119 m 128,-1,752
 337 119 337 119 333 115 c 128,-1,753
 329 111 329 111 329 106 c 0,754,755
 329 102 329 102 331 99 c 128,-1,756
 333 96 333 96 336 94 c 128,-1,757
 339 92 339 92 342.5 92.5 c 128,-1,758
 346 93 346 93 349 94.5 c 128,-1,759
 352 96 352 96 354 99.5 c 128,-1,760
 356 103 356 103 356 106 c 0,761,762
 356 112 356 112 352 115.5 c 128,-1,751
 348 119 348 119 342.5 119 c 128,-1,752
164 118 m 0,763,764
 160 118 160 118 157 115.5 c 128,-1,765
 154 113 154 113 154 109 c 0,766,767
 154 100 154 100 163 99 c 0,768,769
 173 99 173 99 173 109 c 0,770,771
 173 118 173 118 164 118 c 0,763,764
285 118 m 0,772,773
 281 118 281 118 278 115.5 c 128,-1,774
 275 113 275 113 275 109 c 0,775,776
 275 99 275 99 284.5 99 c 128,-1,777
 294 99 294 99 294 108 c 0,778,779
 294 118 294 118 285 118 c 0,772,773
136.5 116 m 128,-1,781
 132 116 132 116 128.5 112.5 c 128,-1,782
 125 109 125 109 125 104.5 c 128,-1,783
 125 100 125 100 128.5 96.5 c 128,-1,784
 132 93 132 93 137 93 c 0,785,786
 140 93 140 93 142.5 94.5 c 128,-1,787
 145 96 145 96 146.5 99 c 128,-1,788
 148 102 148 102 148 105 c 0,789,790
 148 109 148 109 144.5 112.5 c 128,-1,780
 141 116 141 116 136.5 116 c 128,-1,781
311.5 116 m 128,-1,792
 307 116 307 116 303.5 112.5 c 128,-1,793
 300 109 300 109 300 105 c 0,794,795
 300 94 300 94 311 93 c 0,796,797
 316 93 316 93 319.5 96.5 c 128,-1,798
 323 100 323 100 323 104.5 c 128,-1,799
 323 109 323 109 319.5 112.5 c 128,-1,791
 316 116 316 116 311.5 116 c 128,-1,792
237.5 115 m 128,-1,801
 230 115 230 115 229.5 107.5 c 128,-1,802
 229 100 229 100 237 99.5 c 128,-1,803
 245 99 245 99 245 107 c 128,-1,800
 245 115 245 115 237.5 115 c 128,-1,801
210.5 115 m 128,-1,805
 203 115 203 115 203 107 c 128,-1,806
 203 99 203 99 210.5 99.5 c 128,-1,807
 218 100 218 100 218 107.5 c 128,-1,804
 218 115 218 115 210.5 115 c 128,-1,805
256 104 m 0,808,809
 252 104 252 104 249 101 c 128,-1,810
 246 98 246 98 246 94 c 128,-1,811
 246 90 246 90 249 87.5 c 128,-1,812
 252 85 252 85 256 84 c 0,813,814
 257 84 257 84 259 85 c 128,-1,815
 261 86 261 86 262.5 87.5 c 128,-1,816
 264 89 264 89 264.5 90.5 c 128,-1,817
 265 92 265 92 265 94 c 0,818,819
 265 104 265 104 256 104 c 0,808,809
192.5 103.5 m 128,-1,821
 183 104 183 104 183 94 c 0,822,823
 183 92 183 92 184 89.5 c 128,-1,824
 185 87 185 87 187.5 86 c 128,-1,825
 190 85 190 85 192 85 c 0,826,827
 201 85 201 85 201.5 94 c 128,-1,820
 202 103 202 103 192.5 103.5 c 128,-1,821
224 98.5 m 128,-1,829
 215 99 215 99 215 89 c 0,830,831
 214 85 214 85 217 82.5 c 128,-1,832
 220 80 220 80 224 80 c 0,833,834
 233 80 233 80 233 89 c 128,-1,828
 233 98 233 98 224 98.5 c 128,-1,829
280 93 m 128,-1,836
 275 93 275 93 272 89.5 c 128,-1,837
 269 86 269 86 269 82 c 0,838,839
 269 71 269 71 280 71 c 0,840,841
 285 71 285 71 288.5 74 c 128,-1,842
 292 77 292 77 291.5 82 c 128,-1,843
 291 87 291 87 288 90 c 128,-1,835
 285 93 285 93 280 93 c 128,-1,836
168 93 m 256,844,845
 157 93 157 93 157 82 c 0,846,847
 156 71 156 71 167.5 71 c 128,-1,848
 179 71 179 71 179 82 c 128,-1,849
 179 93 179 93 168 93 c 256,844,845
137.5 87 m 128,-1,851
 132 87 132 87 128 83 c 128,-1,852
 124 79 124 79 124 74 c 0,853,854
 124 71 124 71 125.5 68.5 c 128,-1,855
 127 66 127 66 128.5 64 c 128,-1,856
 130 62 130 62 132.5 61 c 128,-1,857
 135 60 135 60 138 60 c 0,858,859
 144 60 144 60 147.5 64 c 128,-1,860
 151 68 151 68 151 73.5 c 128,-1,861
 151 79 151 79 147 83 c 128,-1,850
 143 87 143 87 137.5 87 c 128,-1,851
310 87 m 0,862,863
 306 87 306 87 303 85 c 128,-1,864
 300 83 300 83 298.5 80 c 128,-1,865
 297 77 297 77 297 74 c 0,866,867
 297 68 297 68 301 64 c 128,-1,868
 305 60 305 60 310.5 60 c 128,-1,869
 316 60 316 60 319.5 64 c 128,-1,870
 323 68 323 68 323 73.5 c 128,-1,871
 323 79 323 79 319.5 83 c 128,-1,872
 316 87 316 87 310 87 c 0,862,863
243.5 81 m 128,-1,874
 239 81 239 81 235.5 78 c 128,-1,875
 232 75 232 75 232 70 c 128,-1,876
 232 65 232 65 235 62 c 128,-1,877
 238 59 238 59 243 59 c 128,-1,878
 248 59 248 59 251.5 62 c 128,-1,879
 255 65 255 65 255 70 c 128,-1,880
 255 75 255 75 251.5 78 c 128,-1,873
 248 81 248 81 243.5 81 c 128,-1,874
204.5 81 m 128,-1,882
 193 81 193 81 193 70 c 256,883,884
 193 59 193 59 204 59 c 0,885,886
 216 59 216 59 216 70 c 128,-1,881
 216 81 216 81 204.5 81 c 128,-1,882
269.5 66 m 128,-1,888
 264 66 264 66 260 62 c 128,-1,889
 256 58 256 58 256 52.5 c 128,-1,890
 256 47 256 47 260 43 c 128,-1,891
 264 39 264 39 269 39 c 0,892,893
 273 39 273 39 276 41 c 128,-1,894
 279 43 279 43 281 46 c 128,-1,895
 283 49 283 49 283 53 c 0,896,897
 283 59 283 59 279 62.5 c 128,-1,887
 275 66 275 66 269.5 66 c 128,-1,888
179 66 m 0,898,899
 175 66 175 66 172 64.5 c 128,-1,900
 169 63 169 63 167 60 c 128,-1,901
 165 57 165 57 165 53 c 0,902,903
 165 47 165 47 169 43.5 c 128,-1,904
 173 40 173 40 178.5 39.5 c 128,-1,905
 184 39 184 39 188 43 c 128,-1,906
 192 47 192 47 192 52.5 c 128,-1,907
 192 58 192 58 188 62 c 128,-1,908
 184 66 184 66 179 66 c 0,898,899
224 59 m 128,-1,910
 218 59 218 59 214 55 c 128,-1,911
 210 51 210 51 210 45.5 c 128,-1,912
 210 40 210 40 214 36 c 128,-1,913
 218 32 218 32 223.5 32 c 128,-1,914
 229 32 229 32 233 36 c 128,-1,915
 237 40 237 40 237 45.5 c 128,-1,916
 237 51 237 51 233.5 55 c 128,-1,909
 230 59 230 59 224 59 c 128,-1,910
EndSplineSet
EndChar

StartChar: google-scholar
Encoding: 59860 59860 45
Width: 384
GlyphClass: 1
Flags: W
LayerCount: 2
Fore
SplineSet
344 341 m 1,0,1
 350 340 350 340 350 331 c 2,2,-1
 350 202 l 2,3,4
 350 199 350 199 348.5 196.5 c 128,-1,5
 347 194 347 194 344.5 192.5 c 128,-1,6
 342 191 342 191 339 191 c 2,7,-1
 335 191 l 2,8,9
 333 191 333 191 330.5 192.5 c 128,-1,10
 328 194 328 194 326.5 196.5 c 128,-1,11
 325 199 325 199 325 202 c 2,12,-1
 325 331 l 2,13,14
 325 341 325 341 331 341 c 1,15,-1
 331 358 l 1,16,-1
 274 312 l 1,17,18
 275 311 275 311 275 310 c 0,19,20
 276 309 276 309 276 309 c 1,21,22
 284 295 284 295 284 275 c 0,23,24
 284 260 284 260 278.5 247.5 c 128,-1,25
 273 235 273 235 266 227.5 c 128,-1,26
 259 220 259 220 251.5 213.5 c 128,-1,27
 244 207 244 207 238.5 200 c 128,-1,28
 233 193 233 193 233 186 c 128,-1,29
 233 179 233 179 240 171.5 c 128,-1,30
 247 164 247 164 257 156 c 0,31,32
 266 149 266 149 276 140 c 0,33,34
 286 132 286 132 292.5 118 c 128,-1,35
 299 104 299 104 299 88 c 0,36,37
 299 66 299 66 288 48.5 c 128,-1,38
 277 31 277 31 259 20.5 c 128,-1,39
 241 10 241 10 221 5 c 128,-1,40
 201 0 201 0 181 0 c 0,41,42
 168 0 168 0 155 2 c 128,-1,43
 142 4 142 4 129 9 c 128,-1,44
 116 14 116 14 106 21.5 c 128,-1,45
 96 29 96 29 89.5 40.5 c 128,-1,46
 83 52 83 52 83 67 c 0,47,48
 83 84 83 84 92.5 98.5 c 128,-1,49
 102 113 102 113 118 123 c 0,50,51
 146 140 146 140 204 144 c 1,52,53
 191 161 191 161 191 176 c 0,54,55
 191 184 191 184 195 194 c 1,56,57
 188 193 188 193 181 193 c 0,58,59
 149 193 149 193 127.5 213.5 c 128,-1,60
 106 234 106 234 106 266 c 0,61,62
 106 269 106 269 106 272 c 1,63,-1
 20 272 l 1,64,-1
 150 384 l 1,65,-1
 364 384 l 1,66,-1
 344 369 l 1,67,-1
 344 341 l 1,0,1
236.5 119 m 128,-1,69
 235 120 235 120 228 125 c 128,-1,70
 221 130 221 130 220 131 c 0,71,72
 216 132 216 132 210 132 c 0,73,74
 195 132 195 132 181 129 c 128,-1,75
 167 126 167 126 153.5 120.5 c 128,-1,76
 140 115 140 115 131.5 103.5 c 128,-1,77
 123 92 123 92 123 76 c 0,78,79
 123 62 123 62 130.5 50.5 c 128,-1,80
 138 39 138 39 150 32.5 c 128,-1,81
 162 26 162 26 175 23 c 0,82,83
 189 19 189 19 202 19 c 0,84,85
 230 19 230 19 249.5 31.5 c 128,-1,86
 269 44 269 44 269 70 c 0,87,88
 269 75 269 75 267.5 80 c 128,-1,89
 266 85 266 85 264.5 89 c 128,-1,90
 263 93 263 93 259 98 c 0,91,92
 255 102 255 102 252 105 c 0,93,94
 250 108 250 108 244 113 c 128,-1,68
 238 118 238 118 236.5 119 c 128,-1,69
233 219.5 m 128,-1,96
 244 233 244 233 244 253 c 0,97,98
 244 270 244 270 238 289 c 128,-1,99
 232 308 232 308 218.5 323 c 128,-1,100
 205 338 205 338 187 338 c 0,101,102
 167 338 167 338 156.5 323.5 c 128,-1,103
 146 309 146 309 146 289 c 0,104,105
 146 271 146 271 151.5 253 c 128,-1,106
 157 235 157 235 170.5 220.5 c 128,-1,107
 184 206 184 206 202 206 c 0,108,95
 222 206 222 206 233 219.5 c 128,-1,96
EndSplineSet
EndChar

StartChar: google-scholar-square
Encoding: 59897 59897 46
Width: 448
GlyphClass: 1
Flags: W
LayerCount: 2
Fore
SplineSet
48 416 m 2,0,-1
 400 416 l 2,1,2
 420 416 420 416 434 402 c 128,-1,3
 448 388 448 388 448 368 c 2,4,-1
 448 16 l 2,5,6
 448 -4 448 -4 434 -18 c 128,-1,7
 420 -32 420 -32 400 -32 c 2,8,-1
 48 -32 l 2,9,10
 28 -32 28 -32 14 -18 c 128,-1,11
 0 -4 0 -4 0 16 c 2,12,-1
 0 368 l 2,13,14
 0 388 0 388 14 402 c 128,-1,15
 28 416 28 416 48 416 c 2,0,-1
189 352 m 1,16,-1
 81 258 l 1,17,-1
 152 258 l 1,18,19
 152 256 152 256 152 253 c 0,20,21
 152 227 152 227 170 210 c 128,-1,22
 188 193 188 193 215 193 c 0,23,24
 221 193 221 193 227 194 c 1,25,26
 223 186 223 186 223 179 c 0,27,28
 223 166 223 166 234 152 c 1,29,30
 185 149 185 149 162 135 c 0,31,32
 149 126 149 126 141 114 c 128,-1,33
 133 102 133 102 133 87 c 0,34,35
 133 75 133 75 138.5 65.5 c 128,-1,36
 144 56 144 56 152 50 c 128,-1,37
 160 44 160 44 171 39.5 c 128,-1,38
 182 35 182 35 193 33.5 c 128,-1,39
 204 32 204 32 214 32 c 0,40,41
 231 32 231 32 248 36.5 c 128,-1,42
 265 41 265 41 280 49.5 c 128,-1,43
 295 58 295 58 304 72.5 c 128,-1,44
 313 87 313 87 313 105 c 0,45,46
 313 119 313 119 307.5 130.5 c 128,-1,47
 302 142 302 142 294 149 c 256,48,49
 286 156 286 156 278 162 c 256,50,51
 270 168 270 168 264 174.5 c 128,-1,52
 258 181 258 181 258 187 c 128,-1,53
 258 193 258 193 262.5 199 c 128,-1,54
 267 205 267 205 273 210 c 128,-1,55
 279 215 279 215 285.5 221.5 c 128,-1,56
 292 228 292 228 296.5 238.5 c 128,-1,57
 301 249 301 249 301 262 c 0,58,59
 301 278 301 278 294 289 c 0,60,61
 294 290 294 290 293.5 290.5 c 128,-1,62
 293 291 293 291 293 292 c 2,63,-1
 340 331 l 1,64,-1
 340 316 l 1,65,66
 335 316 335 316 335 308 c 2,67,-1
 335 200 l 2,68,69
 335 191 335 191 344 191 c 2,70,-1
 347 191 l 2,71,72
 356 191 356 191 356 200 c 2,73,-1
 356 308 l 2,74,75
 356 316 356 316 350 316 c 1,76,-1
 350 339 l 1,77,-1
 367 352 l 1,78,-1
 189 352 l 1,16,-1
220 314 m 0,79,80
 235 314 235 314 246.5 301 c 128,-1,81
 258 288 258 288 262.5 272.5 c 128,-1,82
 267 257 267 257 267 243 c 0,83,84
 267 226 267 226 258 215 c 128,-1,85
 249 204 249 204 232 204 c 0,86,87
 218 204 218 204 206.5 216 c 128,-1,88
 195 228 195 228 190 243 c 128,-1,89
 185 258 185 258 185 272 c 0,90,91
 185 290 185 290 194 302 c 128,-1,92
 203 314 203 314 220 314 c 0,79,80
239 142 m 0,93,94
 244 142 244 142 247 141 c 0,95,96
 248 141 248 141 254 136.5 c 128,-1,97
 260 132 260 132 261 131 c 128,-1,98
 262 130 262 130 267.5 126 c 128,-1,99
 273 122 273 122 274 120 c 0,100,101
 277 117 277 117 280 114 c 0,102,103
 283 109 283 109 284 106 c 0,104,105
 286 102 286 102 287 99 c 0,106,107
 288 94 288 94 288 90 c 0,108,109
 288 69 288 69 271.5 58.5 c 128,-1,110
 255 48 255 48 233 48 c 0,111,112
 221 48 221 48 210 51 c 256,113,114
 199 54 199 54 189 59 c 128,-1,115
 179 64 179 64 173 73.5 c 128,-1,116
 167 83 167 83 167 96 c 256,117,118
 167 109 167 109 174 118.5 c 128,-1,119
 181 128 181 128 192 132.5 c 128,-1,120
 203 137 203 137 215 139.5 c 128,-1,121
 227 142 227 142 239 142 c 0,93,94
EndSplineSet
EndChar

StartChar: hal
Encoding: 59692 59692 47
Width: 512
GlyphClass: 1
Flags: W
LayerCount: 2
Fore
SplineSet
286 440 m 1,0,1
 313 437 313 437 339 428 c 0,2,3
 339 427 339 427 338.5 424 c 128,-1,4
 338 421 338 421 338 420 c 0,5,6
 338 358 338 358 382 314 c 0,7,8
 428 269 428 269 493 271 c 1,9,10
 501 246 501 246 504 218 c 1,11,12
 497 218 497 218 490 218 c 0,13,14
 405 218 405 218 345 277 c 128,-1,15
 285 336 285 336 285 420 c 0,16,17
 285 432 285 432 286 440 c 1,0,1
220 440 m 1,18,19
 252 338 252 338 330 261 c 0,20,21
 403 187 403 187 502 154 c 1,22,23
 498 129 498 129 488 103 c 1,24,25
 376 140 376 140 292 223 c 0,26,27
 204 311 204 311 168 427 c 1,28,29
 194 436 194 436 220 440 c 1,18,19
394 400 m 1,30,31
 437 371 437 371 466 327 c 1,32,33
 452 316 452 316 434 316 c 0,34,35
 413 316 413 316 397 331 c 0,36,37
 382 346 382 346 382 368 c 0,38,39
 382 386 382 386 394 400 c 1,30,31
100 388 m 1,40,-1
 450 36 l 1,41,42
 432 14 432 14 413 -2 c 1,43,-1
 62 351 l 1,44,45
 79 371 79 371 100 388 c 1,40,-1
22 280 m 1,46,47
 137 243 137 243 223 158 c 256,48,49
 309 73 309 73 345 -41 c 1,50,51
 321 -50 321 -50 294 -54 c 1,52,53
 261 45 261 45 186 120 c 0,54,55
 110 195 110 195 8 228 c 1,56,57
 12 255 12 255 22 280 c 1,46,47
30 163 m 0,58,59
 112 162 112 162 170 104 c 0,60,61
 230 45 230 45 230 -39 c 0,62,63
 230 -45 230 -45 229 -56 c 1,64,65
 202 -53 202 -53 177 -45 c 0,66,67
 177 -43 177 -43 177 -39 c 0,68,69
 177 23 177 23 133 66 c 0,70,71
 86 113 86 113 20 110 c 1,72,73
 11 135 11 135 8 162 c 1,74,75
 19 163 19 163 30 163 c 0,58,59
81 65 m 0,76,77
 103 65 103 65 118 50 c 256,78,79
 133 35 133 35 133 13 c 0,80,81
 133 -5 133 -5 122 -19 c 1,82,83
 77 10 77 10 48 53 c 1,84,85
 63 65 63 65 81 65 c 0,76,77
EndSplineSet
EndChar

StartChar: hal-square
Encoding: 59693 59693 48
Width: 448
GlyphClass: 1
Flags: W
LayerCount: 2
Fore
SplineSet
48 416 m 2,0,-1
 400 416 l 2,1,2
 420 416 420 416 434 402 c 128,-1,3
 448 388 448 388 448 368 c 2,4,-1
 448 16 l 2,5,6
 448 -4 448 -4 434 -18 c 128,-1,7
 420 -32 420 -32 400 -32 c 2,8,-1
 48 -32 l 2,9,10
 28 -32 28 -32 14 -18 c 128,-1,11
 0 -4 0 -4 0 16 c 2,12,-1
 0 368 l 2,13,14
 0 388 0 388 14 402 c 128,-1,15
 28 416 28 416 48 416 c 2,0,-1
244 352 m 1,16,17
 243 347 243 347 243 339 c 0,18,19
 243 285 243 285 281.5 247 c 128,-1,20
 320 209 320 209 375 209 c 0,21,22
 379 209 379 209 384 209 c 1,23,24
 382 227 382 227 377 243 c 1,25,26
 335 242 335 242 305 271 c 0,27,28
 277 299 277 299 277 339 c 0,29,30
 277 340 277 340 277 341.5 c 128,-1,31
 277 343 277 343 277 344 c 0,32,33
 261 350 261 350 244 352 c 1,16,17
201 352 m 1,34,35
 184 349 184 349 167 343 c 1,36,37
 191 269 191 269 247 212 c 0,38,39
 301 158 301 158 374 134 c 1,40,41
 380 151 380 151 383 167 c 1,42,43
 319 189 319 189 271 236 c 0,44,45
 221 286 221 286 201 352 c 1,34,35
313 326 m 1,46,47
 306 317 306 317 306 305 c 0,48,49
 305 292 305 292 315 282 c 128,-1,50
 325 272 325 272 339 272 c 0,51,52
 350 272 350 272 359 279 c 1,53,54
 341 308 341 308 313 326 c 1,46,47
124 318 m 1,55,56
 110 307 110 307 99 295 c 1,57,-1
 325 67 l 1,58,59
 338 77 338 77 349 91 c 1,60,-1
 124 318 l 1,55,56
73 249 m 1,61,62
 67 232 67 232 64 215 c 1,63,64
 130 194 130 194 178.5 145.5 c 128,-1,65
 227 97 227 97 249 33 c 1,66,67
 266 36 266 36 282 42 c 1,68,69
 258 115 258 115 203 170 c 0,70,71
 147 225 147 225 73 249 c 1,61,62
78 173 m 0,72,73
 71 173 71 173 64 173 c 1,74,75
 66 156 66 156 72 139 c 1,76,77
 115 141 115 141 145 111 c 0,78,79
 173 83 173 83 173 43 c 0,80,81
 173 41 173 41 173 39 c 0,82,83
 189 34 189 34 207 32 c 1,84,85
 207 39 207 39 207 43 c 0,86,87
 207 97 207 97 169 135 c 0,88,89
 131 172 131 172 78 173 c 0,72,73
111 110 m 0,90,91
 99 110 99 110 90 102 c 1,92,93
 109 74 109 74 137 56 c 1,94,95
 144 65 144 65 144 77 c 0,96,97
 144 91 144 91 135 100 c 0,98,99
 125 110 125 110 111 110 c 0,90,91
EndSplineSet
EndChar

StartChar: ideas-repec
Encoding: 59885 59885 49
Width: 384
GlyphClass: 1
Flags: W
LayerCount: 2
Fore
SplineSet
253 2 m 2,0,-1
 159 -24 l 2,1,2
 146 -27 146 -27 143 -14.5 c 128,-1,3
 140 -2 140 -2 152 1 c 2,4,-1
 246 26 l 2,5,6
 259 29 259 29 262 17 c 128,-1,7
 265 5 265 5 253 2 c 2,0,-1
209 291 m 0,8,9
 208 273 208 273 192 273 c 0,10,11
 184 274 184 274 179.5 278.5 c 128,-1,12
 175 283 175 283 175 291 c 0,13,14
 175 308 175 308 192 308 c 0,15,16
 208 308 208 308 209 291 c 0,8,9
330 330.5 m 128,-1,18
 358 284 358 284 352.5 230 c 128,-1,19
 347 176 347 176 310 136 c 0,20,21
 303 129 303 129 291 118 c 0,22,23
 272 100 272 100 272 77 c 0,24,25
 272 60 272 60 255 55 c 2,26,27
 255 55 255 55 134 23 c 0,28,29
 122 19 122 19 119 31 c 1,30,-1
 118 32 l 1,31,32
 115 44 115 44 127 48 c 0,33,34
 134 49 134 49 144.5 52 c 128,-1,35
 155 55 155 55 177.5 61.5 c 128,-1,36
 200 68 200 68 215 72 c 128,-1,37
 230 76 230 76 229 75 c 1,38,39
 243 79 243 79 247 92 c 0,40,41
 252 116 252 116 280 143 c 0,42,43
 320 181 320 181 326 230 c 0,44,45
 331 269 331 269 313 306 c 128,-1,46
 295 343 295 343 261 362 c 0,47,48
 184 406 184 406 113 355 c 0,49,50
 64 321 64 321 57.5 262.5 c 128,-1,51
 51 204 51 204 91 158 c 0,52,53
 93 155 93 155 136 106 c 1,54,55
 155 108 155 108 161.5 109.5 c 128,-1,56
 168 111 168 111 173.5 117 c 128,-1,57
 179 123 179 123 179 129.5 c 128,-1,58
 179 136 179 136 179 155 c 0,59,60
 179 228 179 228 179 237 c 0,61,62
 179 254 179 254 192 253 c 0,63,64
 205 253 205 253 205 236 c 0,65,66
 205 158 205 158 205 111 c 0,67,68
 206 96 206 96 191 92 c 0,69,70
 181 90 181 90 161.5 84.5 c 128,-1,71
 142 79 142 79 131.5 76.5 c 128,-1,72
 121 74 121 74 117.5 77 c 128,-1,73
 114 80 114 80 109 91 c 0,74,75
 101 109 101 109 83 126 c 0,76,77
 15 194 15 194 35 283 c 0,78,79
 57 375 57 375 149 402 c 0,80,81
 201 417 201 417 251.5 397 c 128,-1,17
 302 377 302 377 330 330.5 c 128,-1,18
EndSplineSet
EndChar

StartChar: ideas-repec-square
Encoding: 59896 59896 50
Width: 448
GlyphClass: 1
Flags: W
LayerCount: 2
Fore
SplineSet
48 416 m 2,0,-1
 400 416 l 2,1,2
 420 416 420 416 434 402 c 128,-1,3
 448 388 448 388 448 368 c 2,4,-1
 448 16 l 2,5,6
 448 -4 448 -4 434 -18 c 128,-1,7
 420 -32 420 -32 400 -32 c 2,8,-1
 48 -32 l 2,9,10
 28 -32 28 -32 14 -18 c 128,-1,11
 0 -4 0 -4 0 16 c 2,12,-1
 0 368 l 2,13,14
 0 388 0 388 14 402 c 128,-1,15
 28 416 28 416 48 416 c 2,0,-1
224 352 m 0,16,17
 208 352 208 352 192 347 c 0,18,19
 124 327 124 327 108 259 c 0,20,21
 93 193 93 193 144 143 c 0,22,23
 157 131 157 131 163 117 c 0,24,25
 165 111 165 111 166.5 109 c 128,-1,26
 168 107 168 107 171.5 105.5 c 128,-1,27
 175 104 175 104 179 107 c 0,28,29
 187 108 187 108 201.5 112 c 128,-1,30
 216 116 216 116 224 118 c 0,31,32
 234 121 234 121 234 132 c 0,33,34
 234 167 234 167 234 225 c 0,35,36
 234 237 234 237 224 237 c 0,37,38
 214 238 214 238 214 225 c 0,39,40
 214 219 214 219 214 165 c 0,41,42
 214 141 214 141 210 136 c 128,-1,43
 206 131 206 131 183 128 c 1,44,45
 151 165 151 165 149 167 c 0,46,47
 130 189 130 189 125.5 216.5 c 128,-1,48
 121 244 121 244 131.5 270 c 128,-1,49
 142 296 142 296 166 313 c 0,50,51
 218 350 218 350 275 318 c 0,52,53
 301 304 301 304 314 276.5 c 128,-1,54
 327 249 327 249 323 220 c 0,55,56
 319 184 319 184 289 156 c 0,57,58
 269 136 269 136 264 118 c 0,59,60
 262 108 262 108 252 105 c 0,61,62
 176 85 176 85 176 85 c 2,63,64
 167 83 167 83 169 74 c 1,65,-1
 170 73 l 1,66,67
 172 64 172 64 181 67 c 0,68,69
 269 90 269 90 270 91 c 0,70,71
 283 94 283 94 283 107 c 0,72,73
 284 124 284 124 298 137 c 0,74,75
 307 146 307 146 311 151 c 0,76,77
 339 180 339 180 343 220 c 128,-1,78
 347 260 347 260 326 294 c 0,79,80
 310 321 310 321 282.5 336.5 c 128,-1,81
 255 352 255 352 224 352 c 0,16,17
224 278 m 0,82,83
 211 278 211 278 211 265 c 0,84,85
 211 253 211 253 224 252 c 0,86,87
 236 252 236 252 237 266 c 0,88,89
 236 278 236 278 224 278 c 0,82,83
267 69 m 0,90,91
 266 69 266 69 264 69 c 2,92,-1
 194 50 l 2,93,94
 185 48 185 48 187.5 39 c 128,-1,95
 190 30 190 30 199 32 c 2,96,-1
 269 51 l 2,97,98
 278 53 278 53 276 62 c 0,99,100
 274 69 274 69 267 69 c 0,90,91
EndSplineSet
EndChar

StartChar: ieee
Encoding: 59689 59689 51
Width: 512
GlyphClass: 1
Flags: W
LayerCount: 2
Fore
SplineSet
494 207 m 1,0,1
 503 202 503 202 504 191 c 0,2,3
 504 185 504 185 500 181 c 128,-1,4
 496 177 496 177 489.5 173.5 c 128,-1,5
 483 170 483 170 480 167 c 0,6,7
 355 75 355 75 268 -50 c 1,8,-1
 263 -54 l 2,9,10
 257 -58 257 -58 247 -54 c 0,11,12
 244 -53 244 -53 240.5 -47.5 c 128,-1,13
 237 -42 237 -42 237 -41 c 0,14,15
 232 -34 232 -34 226.5 -26 c 128,-1,16
 221 -18 221 -18 216 -12 c 128,-1,17
 211 -6 211 -6 204.5 2.5 c 128,-1,18
 198 11 198 11 194 17 c 0,19,20
 190 20 190 20 186 24.5 c 128,-1,21
 182 29 182 29 178 34 c 128,-1,22
 174 39 174 39 170 43 c 0,23,24
 101 120 101 120 14 180 c 0,25,26
 6 188 6 188 9 196 c 0,27,28
 9 199 9 199 11 201.5 c 128,-1,29
 13 204 13 204 14.5 205 c 128,-1,30
 16 206 16 206 19.5 208.5 c 128,-1,31
 23 211 23 211 24 212 c 0,32,33
 124 281 124 281 211 391 c 2,34,-1
 245 435 l 2,35,36
 254 442 254 442 260 439 c 0,37,38
 261 439 261 439 268 435 c 2,39,-1
 287 408 l 2,40,41
 318 368 318 368 334 349 c 2,42,-1
 375 306 l 2,43,44
 430 251 430 251 493 207 c 1,45,-1
 494 207 l 1,0,1
439 185 m 0,46,47
 442 196 442 196 433 209 c 0,48,49
 392 268 392 268 334 322 c 2,50,-1
 332 324 l 2,51,52
 314 341 314 341 289 360 c 0,53,54
 259 386 259 386 239 370 c 0,55,56
 213 352 213 352 193 334 c 0,57,58
 192 334 192 334 189 331 c 0,59,60
 128 275 128 275 92 228 c 0,61,62
 75 206 75 206 72 195 c 0,63,64
 72 183 72 183 77 177 c 0,65,66
 109 128 109 128 164 77 c 0,67,68
 166 74 166 74 182.5 59 c 128,-1,69
 199 44 199 44 205.5 38.5 c 128,-1,70
 212 33 212 33 224.5 23.5 c 128,-1,71
 237 14 237 14 248 9 c 0,72,73
 260 3 260 3 278 16 c 0,74,75
 330 52 330 52 394 122 c 0,76,77
 397 127 397 127 406 137 c 128,-1,78
 415 147 415 147 419.5 153 c 128,-1,79
 424 159 424 159 429.5 168 c 128,-1,80
 435 177 435 177 439 185 c 0,46,47
423 206 m 0,81,82
 432 192 432 192 425 180 c 256,83,84
 418 168 418 168 391 136 c 1,85,-1
 391 135 l 1,86,87
 333 72 333 72 296 42 c 0,88,89
 292 40 292 40 286.5 35 c 128,-1,90
 281 30 281 30 276.5 27 c 128,-1,91
 272 24 272 24 266.5 21.5 c 128,-1,92
 261 19 261 19 255 19.5 c 128,-1,93
 249 20 249 20 243 23 c 0,94,95
 169 78 169 78 108 152 c 0,96,97
 106 156 106 156 97.5 166.5 c 128,-1,98
 89 177 89 177 86 184 c 0,99,100
 85 190 85 190 84.5 193 c 128,-1,101
 84 196 84 196 86.5 201 c 128,-1,102
 89 206 89 206 91 209 c 128,-1,103
 93 212 93 212 96.5 216.5 c 128,-1,104
 100 221 100 221 102 224 c 0,105,106
 169 307 169 307 245 360 c 0,107,108
 249 363 249 363 254 364 c 128,-1,109
 259 365 259 365 264 362.5 c 128,-1,110
 269 360 269 360 272 358.5 c 128,-1,111
 275 357 275 357 281.5 352 c 128,-1,112
 288 347 288 347 289 346 c 0,113,114
 374 277 374 277 423 206 c 0,81,82
251 312 m 1,115,-1
 228 246 l 1,116,117
 231 246 231 246 237 246 c 128,-1,118
 243 246 243 246 246 245 c 2,119,-1
 243 170 l 1,120,-1
 243 169 l 1,121,122
 258 168 258 168 267 170 c 1,123,-1
 267 171 l 1,124,-1
 264 243 l 1,125,-1
 265 246 l 1,126,-1
 285 246 l 1,127,128
 270 286 270 286 256 327 c 1,129,-1
 255 327 l 1,130,-1
 251 312 l 1,115,-1
239 71 m 1,131,132
 260 69 260 69 272 71 c 1,133,-1
 269 145 l 1,134,-1
 268 149 l 1,135,136
 251 148 251 148 242 149 c 1,137,138
 242 141 242 141 241 114 c 128,-1,139
 240 87 240 87 239 71 c 1,131,132
323 164 m 0,140,141
 350 174 350 174 352 189 c 0,142,143
 352 203 352 203 331 214 c 1,144,145
 336 217 336 217 341 217 c 1,146,147
 326 220 326 220 294 229 c 1,148,149
 295 226 295 226 301 207 c 1,150,151
 309 210 309 210 316 211 c 0,152,153
 336 203 336 203 337 193 c 0,154,155
 337 191 337 191 336.5 189 c 128,-1,156
 336 187 336 187 335 185.5 c 128,-1,157
 334 184 334 184 333 182.5 c 128,-1,158
 332 181 332 181 330 180 c 128,-1,159
 328 179 328 179 327 178 c 128,-1,160
 326 177 326 177 323.5 176 c 128,-1,161
 321 175 321 175 321 174 c 0,162,163
 267 154 267 154 210 170 c 0,164,165
 185 178 185 178 184 190 c 0,166,167
 187 198 187 198 195.5 203.5 c 128,-1,168
 204 209 204 209 208 210.5 c 128,-1,169
 212 212 212 212 225 215 c 1,170,171
 202 230 202 230 201 231 c 0,172,173
 194 230 194 230 178 223 c 0,174,175
 146 207 146 207 148 189 c 0,176,177
 151 178 151 178 169 169 c 0,178,179
 203 154 203 154 245 153 c 128,-1,180
 287 152 287 152 323 164 c 0,140,141
EndSplineSet
EndChar

StartChar: ieee-square
Encoding: 59833 59833 52
Width: 448
GlyphClass: 1
Flags: W
LayerCount: 2
Fore
SplineSet
48 416 m 2,0,-1
 400 416 l 2,1,2
 420 416 420 416 434 402 c 128,-1,3
 448 388 448 388 448 368 c 2,4,-1
 448 16 l 2,5,6
 448 -4 448 -4 434 -18 c 128,-1,7
 420 -32 420 -32 400 -32 c 2,8,-1
 48 -32 l 2,9,10
 28 -32 28 -32 14 -18 c 128,-1,11
 0 -4 0 -4 0 16 c 2,12,-1
 0 368 l 2,13,14
 0 388 0 388 14 402 c 128,-1,15
 28 416 28 416 48 416 c 2,0,-1
224 352 m 0,16,17
 221 352 221 352 217 349 c 2,18,-1
 195 320 l 2,19,20
 139 250 139 250 74 205 c 0,21,22
 65 198 65 198 64 195 c 0,23,24
 63 190 63 190 68 185 c 0,25,26
 124 145 124 145 169 96 c 0,27,28
 171 93 171 93 176 87.5 c 128,-1,29
 181 82 181 82 184 79 c 0,30,31
 184 78 184 78 195.5 63.5 c 128,-1,32
 207 49 207 49 211 42 c 0,33,34
 212 41 212 41 213 39 c 128,-1,35
 214 37 214 37 215.5 35.5 c 128,-1,36
 217 34 217 34 219 33 c 0,37,38
 225 31 225 31 229 33 c 2,39,-1
 232 36 l 1,40,41
 288 117 288 117 369 176 c 0,42,43
 370 178 370 178 374.5 180 c 128,-1,44
 379 182 379 182 381.5 185 c 128,-1,45
 384 188 384 188 384 191 c 0,46,47
 383 198 383 198 378 202 c 1,48,-1
 377 202 l 1,49,50
 336 230 336 230 301 266 c 2,51,-1
 275 294 l 2,52,53
 264 306 264 306 244 331 c 2,54,-1
 232 349 l 2,55,56
 227 351 227 351 227 351 c 2,57,58
 226 352 226 352 224 352 c 0,16,17
223 311 m 0,59,60
 234 311 234 311 245 301 c 0,61,62
 261 288 261 288 273 277 c 1,63,-1
 275 276 l 1,64,65
 312 241 312 241 338 203 c 0,66,67
 344 194 344 194 342 188 c 0,68,69
 338 178 338 178 313 147 c 0,70,71
 271 102 271 102 238 78 c 0,72,73
 227 70 227 70 219 74 c 0,74,75
 205 81 205 81 164 118 c 0,76,77
 129 151 129 151 108 182 c 0,78,79
 105 186 105 186 105 194 c 0,80,81
 107 201 107 201 118 215 c 0,82,83
 142 246 142 246 181 281 c 0,84,85
 183 283 183 283 183 284 c 0,86,87
 196 295 196 295 213 307 c 0,88,89
 217 311 217 311 223 311 c 0,59,60
224 303 m 0,90,91
 220 303 220 303 217 300 c 0,92,93
 168 266 168 266 125 213 c 0,94,95
 124 211 124 211 120.5 206.5 c 128,-1,96
 117 202 117 202 116 200.5 c 128,-1,97
 115 199 115 199 113.5 194 c 128,-1,98
 112 189 112 189 114 187 c 0,99,100
 116 182 116 182 121.5 175 c 128,-1,101
 127 168 127 168 128 167 c 0,102,103
 168 118 168 118 215 83 c 0,104,105
 219 79 219 79 225 80.5 c 128,-1,106
 231 82 231 82 234 83.5 c 128,-1,107
 237 85 237 85 242 89.5 c 128,-1,108
 247 94 247 94 250 95 c 0,109,110
 274 115 274 115 311 155 c 1,111,-1
 311 156 l 1,112,113
 329 177 329 177 333 185 c 0,114,115
 337 192 337 192 332 201 c 0,116,117
 300 247 300 247 245 291 c 0,118,119
 229 303 229 303 224 303 c 0,90,91
223 279 m 1,120,-1
 224 279 l 1,121,122
 233 253 233 253 243 227 c 1,123,-1
 230 227 l 1,124,-1
 229 225 l 1,125,-1
 231 178 l 1,126,127
 225 176 225 176 216 177 c 1,128,-1
 215 178 l 1,129,-1
 218 226 l 2,130,131
 216 227 216 227 212 227 c 128,-1,132
 208 227 208 227 206 227 c 1,133,-1
 220 269 l 1,134,-1
 223 279 l 1,120,-1
189 217 m 2,135,136
 189 217 189 217 204 207 c 1,137,138
 182 201 182 201 177 191 c 1,139,140
 178 183 178 183 194 178 c 0,141,142
 231 168 231 168 266 181 c 0,143,144
 277 187 277 187 276 192 c 0,145,146
 275 199 275 199 263 204 c 0,147,148
 258 203 258 203 253 202 c 1,149,150
 249 214 249 214 248 216 c 1,151,152
 269 210 269 210 279 208 c 1,153,154
 276 208 276 208 272 206 c 1,155,156
 286 199 286 199 286 190 c 0,157,158
 285 181 285 181 267 174 c 0,159,160
 214 157 214 157 168 177 c 0,161,162
 156 183 156 183 154 190 c 0,163,164
 153 202 153 202 173 212 c 0,165,166
 184 217 184 217 189 217 c 2,135,136
215 164 m 1,167,168
 221 164 221 164 232 164 c 1,169,-1
 232 162 l 1,170,-1
 234 114 l 1,171,172
 227 113 227 113 213 114 c 1,173,174
 214 124 214 124 214.5 141.5 c 128,-1,175
 215 159 215 159 215 164 c 1,167,168
EndSplineSet
EndChar

StartChar: impactstory
Encoding: 59855 59855 53
Width: 512
GlyphClass: 1
Flags: W
LayerCount: 2
Fore
SplineSet
485 163 m 0,0,1
 492 139 492 139 489 128 c 256,2,3
 486 117 486 117 469 98 c 0,4,5
 456 84 456 84 452 76 c 0,6,7
 448 69 448 69 443 51 c 0,8,9
 437 26 437 26 428.5 17.5 c 128,-1,10
 420 9 420 9 396 2 c 0,11,12
 378 -4 378 -4 370 -8 c 0,13,14
 363 -13 363 -13 350 -25 c 0,15,16
 332 -44 332 -44 320 -47 c 0,17,18
 315 -48 315 -48 310 -48 c 0,19,20
 301 -48 301 -48 283.5 -43.5 c 128,-1,21
 266 -39 266 -39 257 -39 c 2,22,-1
 256 -39 l 2,23,24
 247 -39 247 -39 230 -43 c 256,25,26
 213 -47 213 -47 205 -47 c 0,27,28
 199 -47 199 -47 194 -45 c 0,29,30
 183 -42 183 -42 165 -24 c 0,31,32
 152 -11 152 -11 144 -6 c 0,33,34
 137 -1 137 -1 119 4 c 0,35,36
 94 12 94 12 86 20 c 256,37,38
 78 28 78 28 72 53 c 0,39,40
 67 71 67 71 62 79 c 0,41,42
 58 87 58 87 45 100 c 0,43,44
 27 118 27 118 24 129.5 c 128,-1,45
 21 141 21 141 27 166 c 0,46,47
 32 184 32 184 32 193 c 0,48,49
 31 202 31 202 27 220 c 0,50,51
 20 245 20 245 23 256 c 256,52,53
 26 267 26 267 43 286 c 0,54,55
 56 300 56 300 60 307.5 c 128,-1,56
 64 315 64 315 69 333 c 0,57,58
 75 358 75 358 83.5 366.5 c 128,-1,59
 92 375 92 375 116 382 c 0,60,61
 134 388 134 388 142 392 c 0,62,63
 149 397 149 397 162 409 c 0,64,65
 180 428 180 428 192 431 c 0,66,67
 197 432 197 432 202 432 c 0,68,69
 211 432 211 432 229 427 c 0,70,71
 246 423 246 423 255 423 c 2,72,-1
 256 423 l 2,73,74
 264 423 264 423 282 427 c 128,-1,75
 300 431 300 431 307 431 c 0,76,77
 313 431 313 431 318 429 c 0,78,79
 329 426 329 426 347 408 c 0,80,81
 360 395 360 395 368 390 c 128,-1,82
 376 385 376 385 393 380 c 0,83,84
 418 372 418 372 426 364 c 128,-1,85
 434 356 434 356 440 331 c 0,86,87
 445 313 445 313 450 305 c 0,88,89
 454 298 454 298 467 284 c 0,90,91
 485 266 485 266 488 254.5 c 128,-1,92
 491 243 491 243 485 218 c 0,93,94
 480 200 480 200 480 191 c 0,95,96
 481 182 481 182 485 163 c 0,0,1
256 -16 m 128,-1,98
 340 -16 340 -16 399.5 45 c 128,-1,99
 459 106 459 106 459 192 c 128,-1,100
 459 278 459 278 399.5 339 c 128,-1,101
 340 400 340 400 256 400 c 128,-1,102
 172 400 172 400 112.5 339 c 128,-1,103
 53 278 53 278 53 192 c 128,-1,104
 53 106 53 106 112.5 45 c 128,-1,97
 172 -16 172 -16 256 -16 c 128,-1,98
256 379 m 0,105,106
 294 379 294 379 328.5 364 c 128,-1,107
 363 349 363 349 388 324 c 128,-1,108
 413 299 413 299 428 264.5 c 128,-1,109
 443 230 443 230 443 192 c 0,110,111
 443 115 443 115 388.5 60 c 128,-1,112
 334 5 334 5 256 5 c 0,113,114
 205 5 205 5 162 30 c 128,-1,115
 119 55 119 55 94 98 c 128,-1,116
 69 141 69 141 69 192 c 0,117,118
 69 269 69 269 124 324 c 128,-1,119
 179 379 179 379 256 379 c 0,105,106
230 313 m 2,120,-1
 230 279 l 2,121,122
 230 271 230 271 238 271 c 2,123,-1
 277 271 l 2,124,125
 285 271 285 271 285 279 c 2,126,-1
 285 313 l 2,127,128
 285 321 285 321 277 321 c 2,129,-1
 238 321 l 2,130,131
 230 321 230 321 230 313 c 2,120,-1
315 80 m 2,132,-1
 315 115 l 2,133,134
 315 123 315 123 307 123 c 2,135,-1
 285 123 l 1,136,-1
 285 236 l 2,137,138
 285 244 285 244 277 244 c 2,139,-1
 208 244 l 2,140,141
 200 244 200 244 200 236 c 2,142,-1
 200 202 l 2,143,144
 200 194 200 194 208 194 c 2,145,-1
 230 194 l 1,146,-1
 230 123 l 1,147,-1
 208 123 l 2,148,149
 200 123 200 123 200 115 c 2,150,-1
 200 80 l 2,151,152
 200 72 200 72 208 72 c 2,153,-1
 307 72 l 2,154,155
 315 72 315 72 315 80 c 2,132,-1
EndSplineSet
EndChar

StartChar: impactstory-square
Encoding: 59818 59818 54
Width: 448
GlyphClass: 1
Flags: W
LayerCount: 2
Fore
SplineSet
48 416 m 2,0,-1
 400 416 l 2,1,2
 420 416 420 416 434 402 c 128,-1,3
 448 388 448 388 448 368 c 2,4,-1
 448 16 l 2,5,6
 448 -4 448 -4 434 -18 c 128,-1,7
 420 -32 420 -32 400 -32 c 2,8,-1
 48 -32 l 2,9,10
 28 -32 28 -32 14 -18 c 128,-1,11
 0 -4 0 -4 0 16 c 2,12,-1
 0 368 l 2,13,14
 0 388 0 388 14 402 c 128,-1,15
 28 416 28 416 48 416 c 2,0,-1
188 352 m 0,16,17
 185 352 185 352 181 351 c 0,18,19
 174 349 174 349 161 337 c 0,20,21
 153 328 153 328 148 325 c 128,-1,22
 143 322 143 322 131 319 c 0,23,24
 114 314 114 314 109 308.5 c 128,-1,25
 104 303 104 303 99 286 c 0,26,27
 96 274 96 274 93 269 c 128,-1,28
 90 264 90 264 82 255 c 0,29,30
 70 242 70 242 68.5 234.5 c 128,-1,31
 67 227 67 227 71 211 c 0,32,33
 74 199 74 199 74 193 c 128,-1,34
 74 187 74 187 71 175 c 0,35,36
 67 158 67 158 69.5 150.5 c 128,-1,37
 72 143 72 143 83 131 c 0,38,39
 92 122 92 122 95 117 c 0,40,41
 98 111 98 111 101 99 c 0,42,43
 105 83 105 83 110.5 77.5 c 128,-1,44
 116 72 116 72 132 67 c 0,45,46
 144 63 144 63 149 60 c 128,-1,47
 154 57 154 57 163 48 c 0,48,49
 175 36 175 36 183 34 c 0,50,51
 186 33 186 33 190 33 c 0,52,53
 195 33 195 33 206.5 35.5 c 128,-1,54
 218 38 218 38 224 38 c 2,55,-1
 225 38 l 2,56,57
 230 38 230 38 242 35 c 128,-1,58
 254 32 254 32 260 32 c 0,59,60
 264 32 264 32 267 33 c 0,61,62
 274 35 274 35 287 47 c 0,63,64
 295 56 295 56 300 58 c 0,65,66
 305 62 305 62 317 65 c 0,67,68
 334 70 334 70 339 75.5 c 128,-1,69
 344 81 344 81 349 98 c 0,70,71
 352 110 352 110 354.5 115 c 128,-1,72
 357 120 357 120 366 129 c 0,73,74
 378 142 378 142 379.5 149.5 c 128,-1,75
 381 157 381 157 377 173 c 0,76,77
 374 185 374 185 374 191 c 256,78,79
 374 197 374 197 377 209 c 0,80,81
 381 226 381 226 378.5 233.5 c 128,-1,82
 376 241 376 241 365 253 c 0,83,84
 356 262 356 262 353 267 c 0,85,86
 350 273 350 273 347 285 c 0,87,88
 343 301 343 301 337.5 306.5 c 128,-1,89
 332 312 332 312 316 317 c 0,90,91
 304 321 304 321 299 324 c 128,-1,92
 294 327 294 327 285 336 c 0,93,94
 273 348 273 348 265 350 c 0,95,96
 262 351 262 351 258 351 c 0,97,98
 253 351 253 351 241.5 348.5 c 128,-1,99
 230 346 230 346 224 346 c 2,100,-1
 223 346 l 2,101,102
 218 346 218 346 206 349 c 256,103,104
 194 352 194 352 188 352 c 0,16,17
224 331 m 128,-1,106
 280 331 280 331 319.5 290.5 c 128,-1,107
 359 250 359 250 359 192 c 128,-1,108
 359 134 359 134 319.5 93.5 c 128,-1,109
 280 53 280 53 224 53 c 128,-1,110
 168 53 168 53 128.5 93.5 c 128,-1,111
 89 134 89 134 89 192 c 128,-1,112
 89 250 89 250 128.5 290.5 c 128,-1,105
 168 331 168 331 224 331 c 128,-1,106
224 317 m 128,-1,114
 172 317 172 317 135.5 280.5 c 128,-1,115
 99 244 99 244 99 192 c 0,116,117
 99 158 99 158 116 129.5 c 128,-1,118
 133 101 133 101 161.5 84 c 128,-1,119
 190 67 190 67 224 67 c 0,120,121
 276 67 276 67 312.5 103.5 c 128,-1,122
 349 140 349 140 349 192 c 128,-1,123
 349 244 349 244 312.5 280.5 c 128,-1,113
 276 317 276 317 224 317 c 128,-1,114
212 278 m 2,124,-1
 238 278 l 2,125,126
 244 278 244 278 244 272 c 2,127,-1
 244 250 l 2,128,129
 244 245 244 245 238 245 c 2,130,-1
 212 245 l 2,131,132
 207 245 207 245 207 250 c 2,133,-1
 207 272 l 2,134,135
 207 278 207 278 212 278 c 2,124,-1
192 226 m 2,136,-1
 238 226 l 2,137,138
 244 226 244 226 244 221 c 2,139,-1
 244 146 l 1,140,-1
 258 146 l 2,141,142
 263 146 263 146 263 141 c 2,143,-1
 263 117 l 2,144,145
 263 112 263 112 258 112 c 2,146,-1
 192 112 l 2,147,148
 187 112 187 112 187 117 c 2,149,-1
 187 141 l 2,150,151
 187 146 187 146 192 146 c 2,152,-1
 207 146 l 1,153,-1
 207 194 l 1,154,-1
 192 194 l 2,155,156
 187 194 187 194 187 199 c 2,157,-1
 187 221 l 2,158,159
 187 226 187 226 192 226 c 2,136,-1
EndSplineSet
EndChar

StartChar: inspire
Encoding: 59881 59881 55
Width: 512
GlyphClass: 1
Flags: W
LayerCount: 2
Fore
SplineSet
32 416 m 1,0,-1
 480 416 l 1,1,-1
 480 -32 l 1,2,-1
 32 -32 l 1,3,-1
 32 416 l 1,0,-1
110 336 m 128,-1,5
 96 336 96 336 86 326 c 128,-1,6
 76 316 76 316 76 302 c 128,-1,7
 76 288 76 288 86 278 c 128,-1,8
 96 268 96 268 110 268 c 0,9,10
 119 268 119 268 127 272.5 c 128,-1,11
 135 277 135 277 139.5 285 c 128,-1,12
 144 293 144 293 144 302 c 0,13,14
 144 316 144 316 134 326 c 128,-1,4
 124 336 124 336 110 336 c 128,-1,5
186 327 m 1,15,-1
 186 47 l 1,16,-1
 248 47 l 1,17,-1
 248 232 l 1,18,-1
 360 47 l 1,19,-1
 425 47 l 1,20,-1
 425 327 l 1,21,-1
 366 327 l 1,22,-1
 366 140 l 1,23,-1
 250 327 l 1,24,-1
 186 327 l 1,15,-1
79 244 m 1,25,-1
 79 47 l 1,26,-1
 141 47 l 1,27,-1
 141 244 l 1,28,-1
 79 244 l 1,25,-1
EndSplineSet
EndChar

StartChar: inspire-square
Encoding: 59902 59902 56
Width: 448
GlyphClass: 1
Flags: W
LayerCount: 2
Fore
SplineSet
48 416 m 2,0,-1
 400 416 l 2,1,2
 420 416 420 416 434 402 c 128,-1,3
 448 388 448 388 448 368 c 2,4,-1
 448 16 l 2,5,6
 448 -4 448 -4 434 -18 c 128,-1,7
 420 -32 420 -32 400 -32 c 2,8,-1
 48 -32 l 2,9,10
 28 -32 28 -32 14 -18 c 128,-1,11
 0 -4 0 -4 0 16 c 2,12,-1
 0 368 l 2,13,14
 0 388 0 388 14 402 c 128,-1,15
 28 416 28 416 48 416 c 2,0,-1
64 352 m 1,16,-1
 64 32 l 1,17,-1
 384 32 l 1,18,-1
 384 352 l 1,19,-1
 64 352 l 1,16,-1
119.5 295 m 128,-1,21
 130 295 130 295 137 288 c 128,-1,22
 144 281 144 281 144 271 c 128,-1,23
 144 261 144 261 137 253.5 c 128,-1,24
 130 246 130 246 119.5 246 c 128,-1,25
 109 246 109 246 102 253.5 c 128,-1,26
 95 261 95 261 95 271 c 128,-1,27
 95 281 95 281 102 288 c 128,-1,20
 109 295 109 295 119.5 295 c 128,-1,21
174 289 m 1,28,-1
 220 289 l 1,29,-1
 303 155 l 1,30,-1
 303 289 l 1,31,-1
 345 289 l 1,32,-1
 345 88 l 1,33,-1
 298 88 l 1,34,-1
 218 221 l 1,35,-1
 218 88 l 1,36,-1
 174 88 l 1,37,-1
 174 289 l 1,28,-1
97 229 m 1,38,-1
 142 229 l 1,39,-1
 142 88 l 1,40,-1
 97 88 l 1,41,-1
 97 229 l 1,38,-1
EndSplineSet
EndChar

StartChar: isidore
Encoding: 59702 59702 57
Width: 448
GlyphClass: 1
Flags: W
LayerCount: 2
Fore
SplineSet
17 352 m 1,0,1
 49 348 49 348 75.5 334 c 128,-1,2
 102 320 102 320 118.5 300.5 c 128,-1,3
 135 281 135 281 143 268 c 128,-1,4
 151 255 151 255 157 241 c 1,5,6
 173 283 173 283 209 308 c 128,-1,7
 245 333 245 333 290 333 c 0,8,9
 349 333 349 333 390.5 291.5 c 128,-1,10
 432 250 432 250 432 191 c 128,-1,11
 432 132 432 132 390.5 90 c 128,-1,12
 349 48 349 48 290 48 c 0,13,14
 245 48 245 48 208 74 c 128,-1,15
 171 100 171 100 156 142 c 1,16,17
 114 46 114 46 17 32 c 1,18,19
 13 62 13 62 19.5 89.5 c 128,-1,20
 26 117 26 117 37.5 135 c 128,-1,21
 49 153 49 153 61.5 166 c 128,-1,22
 74 179 74 179 83 185 c 2,23,-1
 91 191 l 1,24,25
 88 193 88 193 82 197.5 c 128,-1,26
 76 202 76 202 62 217 c 128,-1,27
 48 232 48 232 37.5 249.5 c 128,-1,28
 27 267 27 267 20 294.5 c 128,-1,29
 13 322 13 322 17 352 c 1,0,1
289 277 m 0,30,31
 254 277 254 277 229 251.5 c 128,-1,32
 204 226 204 226 204 190.5 c 128,-1,33
 204 155 204 155 229 130 c 128,-1,34
 254 105 254 105 289.5 105 c 128,-1,35
 325 105 325 105 350.5 130 c 128,-1,36
 376 155 376 155 376 190.5 c 128,-1,37
 376 226 376 226 350.5 251.5 c 128,-1,38
 325 277 325 277 290 277 c 2,39,40
 290 277 290 277 289 277 c 0,30,31
289.5 224 m 128,-1,42
 303 224 303 224 313 214 c 128,-1,43
 323 204 323 204 323 191 c 0,44,45
 323 184 323 184 320 178 c 128,-1,46
 317 172 317 172 313 167.5 c 128,-1,47
 309 163 309 163 302.5 160.5 c 128,-1,48
 296 158 296 158 290 158 c 0,49,50
 276 158 276 158 266.5 167.5 c 128,-1,51
 257 177 257 177 257 190.5 c 128,-1,52
 257 204 257 204 266.5 214 c 128,-1,41
 276 224 276 224 289.5 224 c 128,-1,42
EndSplineSet
EndChar

StartChar: isidore-square
Encoding: 59732 59732 58
Width: 448
GlyphClass: 1
Flags: W
LayerCount: 2
Fore
SplineSet
48 416 m 2,0,-1
 400 416 l 2,1,2
 420 416 420 416 434 402 c 128,-1,3
 448 388 448 388 448 368 c 2,4,-1
 448 16 l 2,5,6
 448 -4 448 -4 434 -18 c 128,-1,7
 420 -32 420 -32 400 -32 c 2,8,-1
 48 -32 l 2,9,10
 28 -32 28 -32 14 -18 c 128,-1,11
 0 -4 0 -4 0 16 c 2,12,-1
 0 368 l 2,13,14
 0 388 0 388 14 402 c 128,-1,15
 28 416 28 416 48 416 c 2,0,-1
65 315 m 1,16,17
 62 292 62 292 67 271 c 128,-1,18
 72 250 72 250 81 236 c 128,-1,19
 90 222 90 222 99 211.5 c 128,-1,20
 108 201 108 201 115 196 c 2,21,-1
 122 191 l 1,22,23
 119 189 119 189 114.5 186 c 128,-1,24
 110 183 110 183 99 172 c 128,-1,25
 88 161 88 161 80.5 148 c 128,-1,26
 73 135 73 135 67.5 113.5 c 128,-1,27
 62 92 62 92 65 69 c 1,28,29
 139 80 139 80 172 154 c 1,30,31
 184 121 184 121 212 101.5 c 128,-1,32
 240 82 240 82 275 82 c 0,33,34
 320 82 320 82 352 114 c 128,-1,35
 384 146 384 146 384 191 c 128,-1,36
 384 236 384 236 352 268.5 c 128,-1,37
 320 301 320 301 275 301 c 2,38,-1
 274 301 l 2,39,40
 240 301 240 301 212 281.5 c 128,-1,41
 184 262 184 262 172 230 c 1,42,43
 139 307 139 307 65 315 c 1,16,17
274 257 m 2,44,-1
 275 257 l 2,45,46
 302 257 302 257 321.5 237.5 c 128,-1,47
 341 218 341 218 341 191 c 0,48,49
 341 173 341 173 332 158 c 128,-1,50
 323 143 323 143 308 134 c 128,-1,51
 293 125 293 125 275 125 c 0,52,53
 247 125 247 125 228 144.5 c 128,-1,54
 209 164 209 164 209 191 c 128,-1,55
 209 218 209 218 228 237.5 c 128,-1,56
 247 257 247 257 274 257 c 2,44,-1
275 216 m 0,57,58
 264 216 264 216 256.5 209 c 128,-1,59
 249 202 249 202 249 191.5 c 128,-1,60
 249 181 249 181 256.5 173.5 c 128,-1,61
 264 166 264 166 275 166 c 0,62,63
 281 166 281 166 287 169.5 c 128,-1,64
 293 173 293 173 296.5 178.5 c 128,-1,65
 300 184 300 184 300 191 c 0,66,67
 300 196 300 196 298 201 c 128,-1,68
 296 206 296 206 292.5 209 c 128,-1,69
 289 212 289 212 284.5 214 c 128,-1,70
 280 216 280 216 275 216 c 0,57,58
EndSplineSet
EndChar

StartChar: jstor
Encoding: 59704 59704 59
Width: 320
GlyphClass: 1
Flags: W
LayerCount: 2
Fore
SplineSet
160 384 m 0,0,1
 167 384 167 384 195 384 c 0,2,3
 251 383 251 383 252 382.5 c 128,-1,4
 253 382 253 382 253 380 c 128,-1,5
 253 378 253 378 252 377 c 0,6,7
 250 376 250 376 243 374 c 0,8,9
 230 371 230 371 223 364 c 0,10,11
 214 354 214 354 212 342 c 0,12,13
 212 337 212 337 211 229 c 0,14,15
 211 108 211 108 209 93 c 0,16,17
 202 54 202 54 176 33 c 0,18,19
 160 20 160 20 140 15 c 0,20,21
 124 12 124 12 106 14 c 0,22,23
 85 15 85 15 83 16 c 2,24,25
 83 16 83 16 74.5 41.5 c 128,-1,26
 66 67 66 67 66.5 67 c 128,-1,27
 67 67 67 67 77 59 c 0,28,29
 93 45 93 45 101.5 40.5 c 128,-1,30
 110 36 110 36 121 35 c 0,31,32
 137 33 137 33 150 42 c 0,33,34
 167 54 167 54 172 84 c 0,35,36
 174 91 174 91 174 138 c 128,-1,37
 174 185 174 185 175 240 c 0,38,39
 177 338 177 338 175 346 c 0,40,41
 172 355 172 355 164 364 c 0,42,43
 157 372 157 372 143 375 c 0,44,45
 138 376 138 376 136 377.5 c 128,-1,46
 134 379 134 379 134 381 c 0,47,48
 135 384 135 384 160 384 c 0,0,1
242.5 366 m 128,-1,50
 243 366 243 366 240 363 c 0,51,52
 235 359 235 359 231 352 c 0,53,54
 228 347 228 347 228 331.5 c 128,-1,55
 228 316 228 316 228 220 c 0,56,57
 228 122 228 122 227.5 106 c 128,-1,58
 227 90 227 90 224 78 c 0,59,60
 221 67 221 67 215 55 c 0,61,62
 210 46 210 46 202 37 c 0,63,64
 179 7 179 7 144 1 c 0,65,66
 138 0 138 0 123.5 0 c 128,-1,67
 109 0 109 0 103 1 c 2,68,-1
 90 5 l 1,69,70
 91 5 91 5 104 4 c 0,71,72
 130 3 130 3 146 7 c 0,73,74
 170 13 170 13 188 31 c 0,75,76
 199 42 199 42 207 59 c 0,77,78
 214 71 214 71 216 82 c 0,79,80
 220 95 220 95 220.5 111.5 c 128,-1,81
 221 128 221 128 221 226 c 128,-1,82
 221 324 221 324 221.5 336.5 c 128,-1,83
 222 349 222 349 226 354 c 256,84,85
 230 359 230 359 238 364 c 0,86,49
 242 366 242 366 242.5 366 c 128,-1,50
EndSplineSet
EndChar

StartChar: jstor-square
Encoding: 59716 59716 60
Width: 448
GlyphClass: 1
Flags: W
LayerCount: 2
Fore
SplineSet
48 416 m 2,0,-1
 400 416 l 2,1,2
 420 416 420 416 434 402 c 128,-1,3
 448 388 448 388 448 368 c 2,4,-1
 448 16 l 2,5,6
 448 -4 448 -4 434 -18 c 128,-1,7
 420 -32 420 -32 400 -32 c 2,8,-1
 48 -32 l 2,9,10
 28 -32 28 -32 14 -18 c 128,-1,11
 0 -4 0 -4 0 16 c 2,12,-1
 0 368 l 2,13,14
 0 388 0 388 14 402 c 128,-1,15
 28 416 28 416 48 416 c 2,0,-1
224 352 m 0,16,17
 203 352 203 352 203 349 c 0,18,19
 202 348 202 348 203.5 346.5 c 128,-1,20
 205 345 205 345 210 344 c 0,21,22
 221 342 221 342 228 335 c 0,23,24
 234 328 234 328 236 320 c 0,25,26
 238 314 238 314 237 232 c 0,27,28
 236 187 236 187 235.5 147.5 c 128,-1,29
 235 108 235 108 234 102 c 0,30,31
 230 77 230 77 215 67 c 0,32,33
 205 60 205 60 192 61 c 0,34,35
 176 62 176 62 155 81 c 0,36,37
 147 88 147 88 146.5 88 c 128,-1,38
 146 88 146 88 153 67 c 128,-1,39
 160 46 160 46 160 45 c 1,40,41
 161 45 161 45 179 43 c 0,42,43
 194 42 194 42 207 45 c 0,44,45
 224 48 224 48 237 59 c 0,46,47
 259 77 259 77 265 109 c 0,48,49
 267 122 267 122 267 223 c 0,50,51
 267 313 267 313 268 317 c 0,52,53
 269 327 269 327 277 335 c 0,54,55
 282 341 282 341 294 344 c 0,56,57
 299 345 299 345 300 346 c 128,-1,58
 301 347 301 347 301.5 348.5 c 128,-1,59
 302 350 302 350 301 350.5 c 128,-1,60
 300 351 300 351 253 352 c 0,61,62
 230 352 230 352 224 352 c 0,16,17
293 337 m 128,-1,64
 292 337 292 337 289 335 c 0,65,66
 282 331 282 331 279 327 c 0,67,68
 276 322 276 322 275.5 312 c 128,-1,69
 275 302 275 302 275 220 c 0,70,71
 274 115 274 115 271 100 c 0,72,73
 269 91 269 91 264 81 c 0,74,75
 256 67 256 67 247 58 c 0,76,77
 232 43 232 43 213 38 c 0,78,79
 199 34 199 34 177 36 c 0,80,81
 166 36 166 36 166 36 c 1,82,-1
 176 33 l 2,83,84
 181 32 181 32 193 32 c 128,-1,85
 205 32 205 32 211 33 c 0,86,87
 240 38 240 38 259 62 c 0,88,89
 266 70 266 70 270 78 c 0,90,91
 274 88 274 88 277 97 c 0,92,93
 280 110 280 110 280 215 c 0,94,95
 280 319 280 319 283 325 c 256,96,97
 286 331 286 331 291 335 c 0,98,63
 294 337 294 337 293 337 c 128,-1,64
EndSplineSet
EndChar

